{
	"patcher" : 	{
		"fileversion" : 1,
		"appversion" : 		{
			"major" : 8,
			"minor" : 6,
			"revision" : 1,
			"architecture" : "x64",
			"modernui" : 1
		}
,
		"classnamespace" : "box",
		"rect" : [ 59.0, 107.0, 1546.0, 747.0 ],
		"bglocked" : 0,
		"openinpresentation" : 0,
		"default_fontsize" : 12.0,
		"default_fontface" : 0,
		"default_fontname" : "Arial",
		"gridonopen" : 1,
		"gridsize" : [ 15.0, 15.0 ],
		"gridsnaponopen" : 1,
		"objectsnaponopen" : 1,
		"statusbarvisible" : 2,
		"toolbarvisible" : 1,
		"lefttoolbarpinned" : 0,
		"toptoolbarpinned" : 0,
		"righttoolbarpinned" : 0,
		"bottomtoolbarpinned" : 0,
		"toolbars_unpinned_last_save" : 0,
		"tallnewobj" : 0,
		"boxanimatetime" : 200,
		"enablehscroll" : 1,
		"enablevscroll" : 1,
		"devicewidth" : 0.0,
		"description" : "",
		"digest" : "",
		"tags" : "",
		"style" : "",
		"subpatcher_template" : "",
		"assistshowspatchername" : 0,
		"boxes" : [ 			{
				"box" : 				{
					"fontsize" : 43.546887203097846,
					"id" : "obj-6",
					"linecount" : 2,
					"maxclass" : "comment",
					"numinlets" : 1,
					"numoutlets" : 0,
					"patching_rect" : [ 1373.689601208843669, 626.666685342788696, 899.0, 107.0 ],
					"presentation_linecount" : 6,
					"text" : "Patch comparing multiple Eclidean techniques\nwith speed and processes (Amazing)"
				}

			}
, 			{
				"box" : 				{
					"id" : "obj-1",
					"linecount" : 2,
					"maxclass" : "message",
					"numinlets" : 2,
					"numoutlets" : 1,
					"outlettype" : [ "" ],
					"patching_rect" : [ 1373.689601208843669, 740.000022053718567, 701.0, 36.0 ],
					"presentation_linecount" : 3,
					"text" : ";\r\nmax launchbrowser https://www.11olsen.de/max-msp-externals/download/8-max-msp-examples/25-euclidean-bjorklund-algorithms"
				}

			}
, 			{
				"box" : 				{
					"fontsize" : 38.434240699762071,
					"id" : "obj-11",
					"linecount" : 3,
					"maxclass" : "comment",
					"numinlets" : 1,
					"numoutlets" : 0,
					"patching_rect" : [ 19.0, 503.947926255161121, 214.0, 139.0 ],
					"text" : "Secuencia\nvalores \nindividuales"
				}

			}
, 			{
				"box" : 				{
					"fontsize" : 45.092489016670463,
					"id" : "obj-10",
					"maxclass" : "comment",
					"numinlets" : 1,
					"numoutlets" : 0,
					"patching_rect" : [ 525.0, 603.923076923076906, 219.0, 58.0 ],
					"text" : "Secuencia"
				}

			}
, 			{
				"box" : 				{
					"fontsize" : 35.47656510661033,
					"id" : "obj-7",
					"maxclass" : "comment",
					"numinlets" : 1,
					"numoutlets" : 0,
					"patching_rect" : [ 691.326825495809317, 24.664630665417917, 420.0, 47.0 ],
					"text" : "Euclideanos usando listas"
				}

			}
, 			{
				"box" : 				{
					"fontsize" : 25.06659486304185,
					"id" : "obj-5",
					"linecount" : 2,
					"maxclass" : "comment",
					"numinlets" : 1,
					"numoutlets" : 0,
					"patching_rect" : [ 19.0, 7.664630665417917, 241.0, 64.0 ],
					"text" : "Euclideanos usando \noperadores lógicos"
				}

			}
, 			{
				"box" : 				{
					"fontsize" : 21.665043112328522,
					"id" : "obj-4",
					"maxclass" : "comment",
					"numinlets" : 1,
					"numoutlets" : 0,
					"patching_rect" : [ 419.0, 401.153846153846132, 113.600033789873123, 31.0 ],
					"text" : "% del total"
				}

			}
, 			{
				"box" : 				{
					"fontsize" : 34.890407648792049,
					"id" : "obj-2",
					"maxclass" : "comment",
					"numinlets" : 1,
					"numoutlets" : 0,
					"patching_rect" : [ 19.0, 130.833695951338996, 141.0, 47.0 ],
					"text" : "Posición"
				}

			}
, 			{
				"box" : 				{
					"id" : "obj-255",
					"maxclass" : "newobj",
					"numinlets" : 2,
					"numoutlets" : 1,
					"outlettype" : [ "int" ],
					"patching_rect" : [ 994.37890961766243, 427.921135314341882, 29.5, 22.0 ],
					"text" : "- 1"
				}

			}
, 			{
				"box" : 				{
					"id" : "obj-253",
					"maxclass" : "message",
					"numinlets" : 2,
					"numoutlets" : 1,
					"outlettype" : [ "" ],
					"patching_rect" : [ 994.37890961766243, 454.742386232253011, 48.0, 22.0 ],
					"text" : "max $1"
				}

			}
, 			{
				"box" : 				{
					"id" : "obj-399",
					"maxclass" : "message",
					"numinlets" : 2,
					"numoutlets" : 1,
					"outlettype" : [ "" ],
					"patching_rect" : [ 1372.000040888786316, 118.666670203208923, 29.5, 22.0 ],
					"text" : "1"
				}

			}
, 			{
				"box" : 				{
					"id" : "obj-397",
					"linecount" : 2,
					"maxclass" : "comment",
					"numinlets" : 1,
					"numoutlets" : 0,
					"patching_rect" : [ 1406.666708588600159, 112.000003337860107, 278.0, 34.0 ],
					"text" : "k is a factor of n (k divides n evenly) E(4,8) = {2,2,2,2}"
				}

			}
, 			{
				"box" : 				{
					"id" : "obj-375",
					"maxclass" : "newobj",
					"numinlets" : 1,
					"numoutlets" : 2,
					"outlettype" : [ "bang", "int" ],
					"patching_rect" : [ 267.500028431415558, 73.664630665417917, 35.399999499320984, 22.0 ],
					"text" : "t b i"
				}

			}
, 			{
				"box" : 				{
					"id" : "obj-377",
					"maxclass" : "message",
					"numinlets" : 2,
					"numoutlets" : 1,
					"outlettype" : [ "" ],
					"patching_rect" : [ 283.900027930736542, 100.731297745343454, 48.0, 22.0 ],
					"text" : "max $1"
				}

			}
, 			{
				"box" : 				{
					"id" : "obj-356",
					"maxclass" : "message",
					"numinlets" : 2,
					"numoutlets" : 1,
					"outlettype" : [ "" ],
					"patching_rect" : [ 1372.000040888786316, 268.0000079870224, 29.5, 22.0 ],
					"text" : "4"
				}

			}
, 			{
				"box" : 				{
					"id" : "obj-359",
					"linecount" : 2,
					"maxclass" : "comment",
					"numinlets" : 1,
					"numoutlets" : 0,
					"patching_rect" : [ 1406.666708588600159, 261.333341121673584, 282.0, 34.0 ],
					"text" : "k is NOT a factor of n; k and n ARE coprime; k IS a factor of [n+/–1] E(5,16) = {3,3,3,3,4}"
				}

			}
, 			{
				"box" : 				{
					"id" : "obj-348",
					"maxclass" : "message",
					"numinlets" : 2,
					"numoutlets" : 1,
					"outlettype" : [ "" ],
					"patching_rect" : [ 1372.000040888786316, 218.666673183441162, 29.5, 22.0 ],
					"text" : "3"
				}

			}
, 			{
				"box" : 				{
					"id" : "obj-355",
					"linecount" : 2,
					"maxclass" : "comment",
					"numinlets" : 1,
					"numoutlets" : 0,
					"patching_rect" : [ 1406.666708588600159, 212.000006318092346, 362.0, 34.0 ],
					"text" : "k is NOT a factor of n; k and n ARE coprime; k is NOT a factor of [n+/–1] E(7,16) = {2,2,2,2,2,3,3}"
				}

			}
, 			{
				"box" : 				{
					"id" : "obj-345",
					"maxclass" : "message",
					"numinlets" : 2,
					"numoutlets" : 1,
					"outlettype" : [ "" ],
					"patching_rect" : [ 1372.000040888786316, 169.333338379859924, 29.5, 22.0 ],
					"text" : "2"
				}

			}
, 			{
				"box" : 				{
					"id" : "obj-344",
					"linecount" : 2,
					"maxclass" : "comment",
					"numinlets" : 1,
					"numoutlets" : 0,
					"patching_rect" : [ 1406.666708588600159, 162.666671514511108, 278.0, 34.0 ],
					"text" : "k is NOT a factor of n; k and n are NOT co-prime E(4,10) = {2,2,3,3}"
				}

			}
, 			{
				"box" : 				{
					"id" : "obj-305",
					"linecount" : 2,
					"maxclass" : "message",
					"numinlets" : 2,
					"numoutlets" : 1,
					"outlettype" : [ "" ],
					"patching_rect" : [ 517.44551882147789, 764.36558068596969, 624.0, 36.0 ],
					"text" : ";\r\nmax launchbrowser http://acreil.wordpress.com/2013/04/20/algorithmic-composition-of-acid-house-with-lo-fi-timbres/"
				}

			}
, 			{
				"box" : 				{
					"id" : "obj-775",
					"maxclass" : "comment",
					"numinlets" : 1,
					"numoutlets" : 0,
					"patching_rect" : [ 490.600033789873123, 144.833695951338996, 78.0, 20.0 ],
					"text" : "intervalos (n)"
				}

			}
, 			{
				"box" : 				{
					"id" : "obj-776",
					"maxclass" : "comment",
					"numinlets" : 1,
					"numoutlets" : 0,
					"patching_rect" : [ 311.400027930736542, 73.664630665417917, 65.199998736381531, 20.0 ],
					"text" : "pulsos (k)"
				}

			}
, 			{
				"box" : 				{
					"fontsize" : 16.034340669250177,
					"format" : 6,
					"id" : "obj-774",
					"maxclass" : "flonum",
					"maximum" : 8.0,
					"minimum" : 0.0,
					"numinlets" : 1,
					"numoutlets" : 2,
					"outlettype" : [ "", "bang" ],
					"parameter_enable" : 0,
					"patching_rect" : [ 369.700028121471405, 436.922415438528787, 62.400000631809235, 27.0 ],
					"varname" : "number[27]"
				}

			}
, 			{
				"box" : 				{
					"id" : "obj-773",
					"maxclass" : "newobj",
					"numinlets" : 2,
					"numoutlets" : 1,
					"outlettype" : [ "float" ],
					"patching_rect" : [ 369.700028121471405, 408.722386422988166, 29.5, 22.0 ],
					"text" : "/ 0."
				}

			}
, 			{
				"box" : 				{
					"fontsize" : 38.574970792797806,
					"id" : "obj-769",
					"maxclass" : "number",
					"numinlets" : 1,
					"numoutlets" : 2,
					"outlettype" : [ "", "bang" ],
					"parameter_enable" : 0,
					"patching_rect" : [ 238.500028431415558, 539.192386948304375, 121.399999499320984, 53.0 ],
					"varname" : "number[26]"
				}

			}
, 			{
				"box" : 				{
					"color" : [ 1.0, 0.882352941176471, 0.145098039215686, 1.0 ],
					"fontname" : "Arial",
					"fontsize" : 12.0,
					"id" : "obj-767",
					"maxclass" : "newobj",
					"numinlets" : 2,
					"numoutlets" : 1,
					"outlettype" : [ "int" ],
					"patching_rect" : [ 238.500028431415558, 443.72238648259281, 121.399999499320984, 22.0 ],
					"text" : "<"
				}

			}
, 			{
				"box" : 				{
					"fontsize" : 16.123089935770214,
					"id" : "obj-766",
					"maxclass" : "number",
					"numinlets" : 1,
					"numoutlets" : 2,
					"outlettype" : [ "", "bang" ],
					"parameter_enable" : 0,
					"patching_rect" : [ 150.200028121471405, 401.122387770052683, 62.0, 27.0 ],
					"varname" : "number[25]"
				}

			}
, 			{
				"box" : 				{
					"fontsize" : 14.688050256018292,
					"id" : "obj-765",
					"maxclass" : "number",
					"numinlets" : 1,
					"numoutlets" : 2,
					"outlettype" : [ "", "bang" ],
					"parameter_enable" : 0,
					"patching_rect" : [ 116.0, 351.002358504172662, 58.0, 25.0 ],
					"varname" : "number[24]"
				}

			}
, 			{
				"box" : 				{
					"id" : "obj-763",
					"maxclass" : "message",
					"numinlets" : 2,
					"numoutlets" : 1,
					"outlettype" : [ "" ],
					"patching_rect" : [ 116.0, 193.945004824038733, 47.0, 22.0 ],
					"text" : "size $1"
				}

			}
, 			{
				"box" : 				{
					"id" : "obj-760",
					"maxclass" : "dial",
					"numinlets" : 1,
					"numoutlets" : 1,
					"outlettype" : [ "float" ],
					"parameter_enable" : 0,
					"patching_rect" : [ 116.0, 223.833695951338996, 112.0, 112.0 ],
					"size" : 10.0,
					"varname" : "dial[4]"
				}

			}
, 			{
				"box" : 				{
					"color" : [ 1.0, 0.882352941176471, 0.145098039215686, 1.0 ],
					"id" : "obj-759",
					"maxclass" : "newobj",
					"numinlets" : 2,
					"numoutlets" : 1,
					"outlettype" : [ "int" ],
					"patching_rect" : [ 238.500028431415558, 354.002358504172662, 48.0, 22.0 ],
					"text" : "*"
				}

			}
, 			{
				"box" : 				{
					"fontsize" : 16.034340669250177,
					"id" : "obj-731",
					"maxclass" : "number",
					"maximum" : 8,
					"minimum" : 0,
					"numinlets" : 1,
					"numoutlets" : 2,
					"outlettype" : [ "", "bang" ],
					"parameter_enable" : 0,
					"patching_rect" : [ 150.200028121471405, 449.742386232253011, 62.400000631809235, 27.0 ],
					"varname" : "number[23]"
				}

			}
, 			{
				"box" : 				{
					"bgcolor" : [ 0.831372549019608, 0.725490196078431, 0.188235294117647, 1.0 ],
					"fontsize" : 27.773237628361962,
					"id" : "obj-732",
					"maxclass" : "number",
					"maximum" : 10,
					"minimum" : 0,
					"numinlets" : 1,
					"numoutlets" : 2,
					"outlettype" : [ "", "bang" ],
					"parameter_enable" : 0,
					"patching_rect" : [ 267.500028431415558, 130.833695951338996, 92.400000631809235, 40.0 ],
					"textcolor" : [ 0.0, 0.0, 0.0, 1.0 ],
					"varname" : "number[22]"
				}

			}
, 			{
				"box" : 				{
					"bgcolor" : [ 0.192156862745098, 0.741176470588235, 0.376470588235294, 1.0 ],
					"fontsize" : 27.773237628361962,
					"id" : "obj-733",
					"maxclass" : "number",
					"minimum" : 1,
					"numinlets" : 1,
					"numoutlets" : 2,
					"outlettype" : [ "", "bang" ],
					"parameter_enable" : 0,
					"patching_rect" : [ 374.600031077861786, 130.833695951338996, 92.400000631809235, 40.0 ],
					"varname" : "number[21]"
				}

			}
, 			{
				"box" : 				{
					"color" : [ 0.203921568627451, 0.815686274509804, 0.411764705882353, 1.0 ],
					"fontname" : "Arial",
					"fontsize" : 12.0,
					"id" : "obj-730",
					"maxclass" : "newobj",
					"numinlets" : 2,
					"numoutlets" : 1,
					"outlettype" : [ "int" ],
					"patching_rect" : [ 238.500028431415558, 408.722386422988166, 87.100002646446228, 22.0 ],
					"text" : "%"
				}

			}
, 			{
				"box" : 				{
					"id" : "obj-728",
					"maxclass" : "newobj",
					"numinlets" : 1,
					"numoutlets" : 1,
					"outlettype" : [ "bang" ],
					"patching_rect" : [ 711.970575347542763, 233.522387269374121, 43.191661700606346, 22.0 ],
					"text" : "t b"
				}

			}
, 			{
				"box" : 				{
					"id" : "obj-727",
					"maxclass" : "newobj",
					"numinlets" : 1,
					"numoutlets" : 2,
					"outlettype" : [ "bang", "int" ],
					"patching_rect" : [ 994.37890961766243, 524.762383657332975, 29.5, 22.0 ],
					"text" : "t b i"
				}

			}
, 			{
				"box" : 				{
					"fontsize" : 27.773237628361962,
					"id" : "obj-726",
					"maxclass" : "number",
					"maximum" : 8,
					"minimum" : 0,
					"numinlets" : 1,
					"numoutlets" : 2,
					"outlettype" : [ "", "bang" ],
					"parameter_enable" : 0,
					"patching_rect" : [ 994.37890961766243, 478.162384944792848, 92.400000631809235, 40.0 ],
					"varname" : "number[20]"
				}

			}
, 			{
				"box" : 				{
					"id" : "obj-724",
					"maxclass" : "newobj",
					"numinlets" : 1,
					"numoutlets" : 2,
					"outlettype" : [ "bang", "int" ],
					"patching_rect" : [ 880.278906971216202, 84.761695160504587, 35.399999499320984, 22.0 ],
					"text" : "t b i"
				}

			}
, 			{
				"box" : 				{
					"id" : "obj-725",
					"maxclass" : "message",
					"numinlets" : 2,
					"numoutlets" : 1,
					"outlettype" : [ "" ],
					"patching_rect" : [ 896.678906470537186, 111.828362240430124, 48.0, 22.0 ],
					"text" : "max $1"
				}

			}
, 			{
				"box" : 				{
					"fontsize" : 42.919731601210884,
					"id" : "obj-723",
					"maxclass" : "message",
					"numinlets" : 2,
					"numoutlets" : 1,
					"outlettype" : [ "" ],
					"patching_rect" : [ 778.774741373956203, 603.715088382980639, 373.704171366989613, 58.0 ],
					"text" : "1 0 0 1 0 0 1 0 0"
				}

			}
, 			{
				"box" : 				{
					"id" : "obj-707",
					"maxclass" : "comment",
					"numinlets" : 1,
					"numoutlets" : 0,
					"patching_rect" : [ 517.44551882147789, 692.965600498553613, 150.0, 20.0 ],
					"text" : "posted by XiNNiW"
				}

			}
, 			{
				"box" : 				{
					"id" : "obj-710",
					"maxclass" : "newobj",
					"numinlets" : 2,
					"numoutlets" : 2,
					"outlettype" : [ "", "" ],
					"patching_rect" : [ 778.774741373956203, 555.562384086486418, 245.104168243706226, 22.0 ],
					"text" : "zl.rot"
				}

			}
, 			{
				"box" : 				{
					"color" : [ 0.203921568627451, 0.815686274509804, 0.411764705882353, 1.0 ],
					"id" : "obj-711",
					"maxclass" : "newobj",
					"numinlets" : 2,
					"numoutlets" : 2,
					"outlettype" : [ "", "" ],
					"patching_rect" : [ 778.774741373956203, 405.162384944792848, 209.508337393403053, 22.0 ],
					"text" : "zl.group"
				}

			}
, 			{
				"box" : 				{
					"id" : "obj-69",
					"maxclass" : "newobj",
					"numinlets" : 2,
					"numoutlets" : 3,
					"outlettype" : [ "bang", "bang", "int" ],
					"patching_rect" : [ 711.970575347542763, 270.589053097602118, 152.608332052826881, 22.0 ],
					"text" : "Uzi 1 0"
				}

			}
, 			{
				"box" : 				{
					"fontname" : "Arial",
					"fontsize" : 12.0,
					"id" : "obj-713",
					"linecount" : 2,
					"maxclass" : "comment",
					"numinlets" : 1,
					"numoutlets" : 0,
					"patching_rect" : [ 517.44551882147789, 718.965600498553613, 537.0, 34.0 ],
					"text" : "i found this implementation in acriel's algorithmic acid pure data patch. http://acreil.wordpress.com/2013/04/20/algorithmic-composition-of-acid-house-with-lo-fi-timbres/ "
				}

			}
, 			{
				"box" : 				{
					"color" : [ 1.0, 0.882352941176471, 0.145098039215686, 1.0 ],
					"fontname" : "Arial",
					"fontsize" : 12.0,
					"id" : "obj-718",
					"maxclass" : "newobj",
					"numinlets" : 2,
					"numoutlets" : 1,
					"outlettype" : [ "int" ],
					"patching_rect" : [ 845.578907400369644, 371.72238648259281, 103.300000309944153, 22.0 ],
					"text" : "<"
				}

			}
, 			{
				"box" : 				{
					"color" : [ 0.203921568627451, 0.815686274509804, 0.411764705882353, 1.0 ],
					"fontname" : "Arial",
					"fontsize" : 12.0,
					"id" : "obj-719",
					"maxclass" : "newobj",
					"numinlets" : 2,
					"numoutlets" : 1,
					"outlettype" : [ "int" ],
					"patching_rect" : [ 845.578907400369644, 336.722386422988166, 75.900005340576172, 22.0 ],
					"text" : "%"
				}

			}
, 			{
				"box" : 				{
					"color" : [ 1.0, 0.882352941176471, 0.145098039215686, 1.0 ],
					"fontname" : "Arial",
					"fontsize" : 12.0,
					"id" : "obj-720",
					"maxclass" : "newobj",
					"numinlets" : 2,
					"numoutlets" : 1,
					"outlettype" : [ "int" ],
					"patching_rect" : [ 845.578907400369644, 300.72238648259281, 53.699999570846558, 22.0 ],
					"text" : "*"
				}

			}
, 			{
				"box" : 				{
					"bgcolor" : [ 0.831372549019608, 0.725490196078431, 0.188235294117647, 1.0 ],
					"fontsize" : 27.773237628361962,
					"id" : "obj-689",
					"maxclass" : "number",
					"maximum" : 9,
					"minimum" : 1,
					"numinlets" : 1,
					"numoutlets" : 2,
					"outlettype" : [ "", "bang" ],
					"parameter_enable" : 0,
					"patching_rect" : [ 880.278906971216202, 137.833695951338996, 92.400000631809235, 40.0 ],
					"textcolor" : [ 0.0, 0.0, 0.0, 1.0 ],
					"varname" : "number[19]"
				}

			}
, 			{
				"box" : 				{
					"bgcolor" : [ 0.203921568627451, 0.815686274509804, 0.411764705882353, 1.0 ],
					"fontsize" : 27.773237628361962,
					"id" : "obj-690",
					"maxclass" : "number",
					"minimum" : 1,
					"numinlets" : 1,
					"numoutlets" : 2,
					"outlettype" : [ "", "bang" ],
					"parameter_enable" : 0,
					"patching_rect" : [ 994.37890961766243, 137.833695951338996, 92.400000631809235, 40.0 ],
					"varname" : "number[18]"
				}

			}
, 			{
				"box" : 				{
					"id" : "obj-691",
					"maxclass" : "comment",
					"numinlets" : 1,
					"numoutlets" : 0,
					"patching_rect" : [ 994.37890961766243, 111.828362240430124, 78.0, 20.0 ],
					"text" : "intervalos (n)"
				}

			}
, 			{
				"box" : 				{
					"id" : "obj-692",
					"maxclass" : "comment",
					"numinlets" : 1,
					"numoutlets" : 0,
					"patching_rect" : [ 818.662237882614136, 111.828362240430124, 65.199998736381531, 20.0 ],
					"text" : "pulsos (k)"
				}

			}
, 			{
				"box" : 				{
					"fontsize" : 43.546887203097846,
					"id" : "obj-437",
					"maxclass" : "comment",
					"numinlets" : 1,
					"numoutlets" : 0,
					"patching_rect" : [ 1373.689601208843669, 337.035494738759553, 472.5, 57.0 ],
					"text" : "Ritmos Euclideanos"
				}

			}
, 			{
				"box" : 				{
					"id" : "obj-438",
					"linecount" : 2,
					"maxclass" : "message",
					"numinlets" : 2,
					"numoutlets" : 1,
					"outlettype" : [ "" ],
					"patching_rect" : [ 1373.689601208843669, 403.192386948304375, 404.0, 36.0 ],
					"text" : ";\r\nmax launchbrowser http://cgm.cs.mcgill.ca/~godfried/publications/banff.pdf"
				}

			}
, 			{
				"box" : 				{
					"fontsize" : 43.546887203097846,
					"id" : "obj-436",
					"maxclass" : "comment",
					"numinlets" : 1,
					"numoutlets" : 0,
					"patching_rect" : [ 1373.689601208843669, 473.035494738759553, 391.0, 57.0 ],
					"text" : "Ritmos Radiohead"
				}

			}
, 			{
				"box" : 				{
					"id" : "obj-435",
					"linecount" : 2,
					"maxclass" : "message",
					"numinlets" : 2,
					"numoutlets" : 1,
					"outlettype" : [ "" ],
					"patching_rect" : [ 1373.689601208843669, 539.192386948304375, 602.0, 36.0 ],
					"text" : ";\r\nmax launchbrowser https://kuscholarworks.ku.edu/bitstream/handle/1808/19135/Osborn%20Kid%20Algebra.pdf"
				}

			}
 ],
		"lines" : [ 			{
				"patchline" : 				{
					"destination" : [ "obj-726", 0 ],
					"source" : [ "obj-253", 0 ]
				}

			}
, 			{
				"patchline" : 				{
					"destination" : [ "obj-253", 0 ],
					"source" : [ "obj-255", 0 ]
				}

			}
, 			{
				"patchline" : 				{
					"destination" : [ "obj-377", 0 ],
					"source" : [ "obj-375", 1 ]
				}

			}
, 			{
				"patchline" : 				{
					"destination" : [ "obj-732", 0 ],
					"source" : [ "obj-375", 0 ]
				}

			}
, 			{
				"patchline" : 				{
					"destination" : [ "obj-732", 0 ],
					"source" : [ "obj-377", 0 ]
				}

			}
, 			{
				"patchline" : 				{
					"destination" : [ "obj-718", 1 ],
					"order" : 0,
					"source" : [ "obj-689", 0 ]
				}

			}
, 			{
				"patchline" : 				{
					"destination" : [ "obj-720", 1 ],
					"order" : 1,
					"source" : [ "obj-689", 0 ]
				}

			}
, 			{
				"patchline" : 				{
					"destination" : [ "obj-728", 0 ],
					"order" : 2,
					"source" : [ "obj-689", 0 ]
				}

			}
, 			{
				"patchline" : 				{
					"destination" : [ "obj-711", 0 ],
					"source" : [ "obj-69", 1 ]
				}

			}
, 			{
				"patchline" : 				{
					"destination" : [ "obj-720", 0 ],
					"source" : [ "obj-69", 2 ]
				}

			}
, 			{
				"patchline" : 				{
					"destination" : [ "obj-255", 0 ],
					"order" : 0,
					"source" : [ "obj-690", 0 ]
				}

			}
, 			{
				"patchline" : 				{
					"destination" : [ "obj-69", 1 ],
					"order" : 4,
					"source" : [ "obj-690", 0 ]
				}

			}
, 			{
				"patchline" : 				{
					"destination" : [ "obj-711", 1 ],
					"order" : 1,
					"source" : [ "obj-690", 0 ]
				}

			}
, 			{
				"patchline" : 				{
					"destination" : [ "obj-719", 1 ],
					"order" : 2,
					"source" : [ "obj-690", 0 ]
				}

			}
, 			{
				"patchline" : 				{
					"destination" : [ "obj-724", 0 ],
					"order" : 3,
					"source" : [ "obj-690", 0 ]
				}

			}
, 			{
				"patchline" : 				{
					"destination" : [ "obj-728", 0 ],
					"order" : 5,
					"source" : [ "obj-690", 0 ]
				}

			}
, 			{
				"patchline" : 				{
					"destination" : [ "obj-723", 1 ],
					"source" : [ "obj-710", 0 ]
				}

			}
, 			{
				"patchline" : 				{
					"destination" : [ "obj-710", 0 ],
					"source" : [ "obj-711", 0 ]
				}

			}
, 			{
				"patchline" : 				{
					"destination" : [ "obj-711", 0 ],
					"source" : [ "obj-718", 0 ]
				}

			}
, 			{
				"patchline" : 				{
					"destination" : [ "obj-718", 0 ],
					"source" : [ "obj-719", 0 ]
				}

			}
, 			{
				"patchline" : 				{
					"destination" : [ "obj-719", 0 ],
					"source" : [ "obj-720", 0 ]
				}

			}
, 			{
				"patchline" : 				{
					"destination" : [ "obj-689", 0 ],
					"source" : [ "obj-724", 0 ]
				}

			}
, 			{
				"patchline" : 				{
					"destination" : [ "obj-725", 0 ],
					"source" : [ "obj-724", 1 ]
				}

			}
, 			{
				"patchline" : 				{
					"destination" : [ "obj-689", 0 ],
					"source" : [ "obj-725", 0 ]
				}

			}
, 			{
				"patchline" : 				{
					"destination" : [ "obj-727", 0 ],
					"source" : [ "obj-726", 0 ]
				}

			}
, 			{
				"patchline" : 				{
					"destination" : [ "obj-710", 1 ],
					"source" : [ "obj-727", 1 ]
				}

			}
, 			{
				"patchline" : 				{
					"destination" : [ "obj-710", 0 ],
					"source" : [ "obj-727", 0 ]
				}

			}
, 			{
				"patchline" : 				{
					"destination" : [ "obj-69", 0 ],
					"source" : [ "obj-728", 0 ]
				}

			}
, 			{
				"patchline" : 				{
					"destination" : [ "obj-731", 0 ],
					"order" : 1,
					"source" : [ "obj-730", 0 ]
				}

			}
, 			{
				"patchline" : 				{
					"destination" : [ "obj-767", 0 ],
					"order" : 0,
					"source" : [ "obj-730", 0 ]
				}

			}
, 			{
				"patchline" : 				{
					"destination" : [ "obj-759", 1 ],
					"order" : 1,
					"source" : [ "obj-732", 0 ]
				}

			}
, 			{
				"patchline" : 				{
					"destination" : [ "obj-767", 1 ],
					"order" : 0,
					"source" : [ "obj-732", 0 ]
				}

			}
, 			{
				"patchline" : 				{
					"destination" : [ "obj-375", 0 ],
					"order" : 2,
					"source" : [ "obj-733", 0 ]
				}

			}
, 			{
				"patchline" : 				{
					"destination" : [ "obj-730", 1 ],
					"order" : 1,
					"source" : [ "obj-733", 0 ]
				}

			}
, 			{
				"patchline" : 				{
					"destination" : [ "obj-763", 0 ],
					"order" : 3,
					"source" : [ "obj-733", 0 ]
				}

			}
, 			{
				"patchline" : 				{
					"destination" : [ "obj-773", 1 ],
					"order" : 0,
					"source" : [ "obj-733", 0 ]
				}

			}
, 			{
				"patchline" : 				{
					"destination" : [ "obj-730", 0 ],
					"order" : 1,
					"source" : [ "obj-759", 0 ]
				}

			}
, 			{
				"patchline" : 				{
					"destination" : [ "obj-766", 0 ],
					"order" : 2,
					"source" : [ "obj-759", 0 ]
				}

			}
, 			{
				"patchline" : 				{
					"destination" : [ "obj-773", 0 ],
					"order" : 0,
					"source" : [ "obj-759", 0 ]
				}

			}
, 			{
				"patchline" : 				{
					"destination" : [ "obj-759", 0 ],
					"order" : 0,
					"source" : [ "obj-760", 0 ]
				}

			}
, 			{
				"patchline" : 				{
					"destination" : [ "obj-765", 0 ],
					"order" : 1,
					"source" : [ "obj-760", 0 ]
				}

			}
, 			{
				"patchline" : 				{
					"destination" : [ "obj-760", 0 ],
					"source" : [ "obj-763", 0 ]
				}

			}
, 			{
				"patchline" : 				{
					"destination" : [ "obj-769", 0 ],
					"source" : [ "obj-767", 0 ]
				}

			}
, 			{
				"patchline" : 				{
					"destination" : [ "obj-774", 0 ],
					"source" : [ "obj-773", 0 ]
				}

			}
 ],
		"dependency_cache" : [  ],
		"autosave" : 0
	}

}
