{
	"patcher" : 	{
		"fileversion" : 1,
		"appversion" : 		{
			"major" : 9,
			"minor" : 0,
			"revision" : 1,
			"architecture" : "x64",
			"modernui" : 1
		}
,
		"classnamespace" : "box",
		"rect" : [ 34.0, 77.0, 1852.0, 969.0 ],
		"gridsize" : [ 15.0, 15.0 ],
		"boxes" : [ 			{
				"box" : 				{
					"id" : "obj-169",
					"maxclass" : "newobj",
					"numinlets" : 2,
					"numoutlets" : 2,
					"outlettype" : [ "", "" ],
					"patching_rect" : [ 239.000010073184967, 1169.0, 118.0, 22.0 ],
					"text" : "gate 2"
				}

			}
, 			{
				"box" : 				{
					"id" : "obj-168",
					"maxclass" : "newobj",
					"numinlets" : 2,
					"numoutlets" : 2,
					"outlettype" : [ "bang", "" ],
					"patching_rect" : [ 338.000010073184967, 1216.666702926158905, 34.0, 22.0 ],
					"text" : "sel 1"
				}

			}
, 			{
				"box" : 				{
					"id" : "obj-167",
					"maxclass" : "newobj",
					"numinlets" : 3,
					"numoutlets" : 3,
					"outlettype" : [ "bang", "bang", "" ],
					"patching_rect" : [ 238.66667377948761, 1216.666702926158905, 49.333334803581238, 22.0 ],
					"text" : "sel 1 4"
				}

			}
, 			{
				"box" : 				{
					"id" : "obj-122",
					"maxclass" : "newobj",
					"numinlets" : 2,
					"numoutlets" : 2,
					"outlettype" : [ "", "" ],
					"patching_rect" : [ 358.762907981872559, 1475.257819890975952, 61.0, 22.0 ],
					"text" : "zl.group 2"
				}

			}
, 			{
				"box" : 				{
					"id" : "obj-120",
					"maxclass" : "newobj",
					"numinlets" : 1,
					"numoutlets" : 2,
					"outlettype" : [ "bang", "int" ],
					"patching_rect" : [ 450.000013411045074, 1328.666706264019012, 29.5, 22.0 ],
					"text" : "t b i"
				}

			}
, 			{
				"box" : 				{
					"id" : "obj-113",
					"maxclass" : "number",
					"numinlets" : 1,
					"numoutlets" : 2,
					"outlettype" : [ "", "bang" ],
					"parameter_enable" : 0,
					"patching_rect" : [ 450.000013411045074, 1267.300018787384033, 50.0, 22.0 ]
				}

			}
, 			{
				"box" : 				{
					"id" : "obj-110",
					"maxclass" : "newobj",
					"numinlets" : 2,
					"numoutlets" : 1,
					"outlettype" : [ "int" ],
					"patching_rect" : [ 450.000013411045074, 1294.00003856420517, 30.0, 22.0 ],
					"text" : "* 12"
				}

			}
, 			{
				"box" : 				{
					"id" : "obj-106",
					"maxclass" : "newobj",
					"numinlets" : 2,
					"numoutlets" : 1,
					"outlettype" : [ "int" ],
					"patching_rect" : [ 430.000012814998627, 1359.333373844623566, 49.333347976207733, 22.0 ],
					"text" : "-"
				}

			}
, 			{
				"box" : 				{
					"fontsize" : 28.513102241101727,
					"id" : "obj-96",
					"maxclass" : "number",
					"numinlets" : 1,
					"numoutlets" : 2,
					"outlettype" : [ "", "bang" ],
					"parameter_enable" : 0,
					"patching_rect" : [ 366.999999448657036, 1353.0, 61.000001102685928, 41.0 ]
				}

			}
, 			{
				"box" : 				{
					"fontsize" : 28.513102241101727,
					"format" : 5,
					"id" : "obj-104",
					"maxclass" : "number",
					"numinlets" : 1,
					"numoutlets" : 2,
					"outlettype" : [ "", "bang" ],
					"parameter_enable" : 0,
					"patching_rect" : [ 430.000012814998627, 1388.0, 72.666668832302094, 41.0 ]
				}

			}
, 			{
				"box" : 				{
					"fontsize" : 28.513102241101727,
					"id" : "obj-95",
					"maxclass" : "number",
					"numinlets" : 1,
					"numoutlets" : 2,
					"outlettype" : [ "", "bang" ],
					"parameter_enable" : 0,
					"patching_rect" : [ 848.666691958904266, 1326.666706204414368, 61.000001102685928, 41.0 ]
				}

			}
, 			{
				"box" : 				{
					"fontsize" : 28.513102241101727,
					"format" : 5,
					"id" : "obj-94",
					"maxclass" : "number",
					"numinlets" : 1,
					"numoutlets" : 2,
					"outlettype" : [ "", "bang" ],
					"parameter_enable" : 0,
					"patching_rect" : [ 767.333356201648712, 1326.666706204414368, 72.666668832302094, 41.0 ]
				}

			}
, 			{
				"box" : 				{
					"fontname" : "Arial",
					"fontsize" : 13.0,
					"id" : "obj-92",
					"maxclass" : "message",
					"numinlets" : 2,
					"numoutlets" : 1,
					"outlettype" : [ "" ],
					"patching_rect" : [ 338.000010073184967, 1303.333372175693512, 41.0, 23.0 ],
					"presentation_linecount" : 2,
					"text" : "12 24"
				}

			}
, 			{
				"box" : 				{
					"fontname" : "Arial",
					"fontsize" : 13.0,
					"id" : "obj-89",
					"maxclass" : "message",
					"numinlets" : 2,
					"numoutlets" : 1,
					"outlettype" : [ "" ],
					"patching_rect" : [ 286.500001430511475, 1303.5, 40.0, 23.0 ],
					"presentation_linecount" : 2,
					"text" : "11 23"
				}

			}
, 			{
				"box" : 				{
					"fontname" : "Arial",
					"fontsize" : 13.0,
					"id" : "obj-87",
					"maxclass" : "message",
					"numinlets" : 2,
					"numoutlets" : 1,
					"outlettype" : [ "" ],
					"patching_rect" : [ 238.5, 1303.5, 34.0, 23.0 ],
					"text" : "9 21"
				}

			}
, 			{
				"box" : 				{
					"id" : "obj-74",
					"maxclass" : "number",
					"numinlets" : 1,
					"numoutlets" : 2,
					"outlettype" : [ "", "bang" ],
					"parameter_enable" : 0,
					"patching_rect" : [ 99.800001621246338, 1142.268109321594238, 50.0, 22.0 ]
				}

			}
, 			{
				"box" : 				{
					"id" : "obj-78",
					"maxclass" : "newobj",
					"numinlets" : 1,
					"numoutlets" : 1,
					"outlettype" : [ "" ],
					"patching_rect" : [ 199.0, 1405.333373725414276, 25.0, 22.0 ],
					"text" : "iter"
				}

			}
, 			{
				"box" : 				{
					"bgcolor" : [ 1.0, 1.0, 1.0, 1.0 ],
					"bubble_bgcolor" : [ 0.407843137254902, 0.317647058823529, 0.317647058823529, 1.0 ],
					"fontsize" : 24.907734681905204,
					"id" : "obj-73",
					"maxclass" : "comment",
					"numinlets" : 1,
					"numoutlets" : 0,
					"patching_rect" : [ 834.733366549015045, 795.800012052059174, 110.0, 35.0 ],
					"text" : "LEVEL C",
					"textcolor" : [ 0.0, 0.0, 0.0, 1.0 ]
				}

			}
, 			{
				"box" : 				{
					"bgcolor" : [ 1.0, 1.0, 1.0, 1.0 ],
					"bubble_bgcolor" : [ 0.407843137254902, 0.317647058823529, 0.317647058823529, 1.0 ],
					"fontsize" : 24.907734681905204,
					"id" : "obj-72",
					"maxclass" : "comment",
					"numinlets" : 1,
					"numoutlets" : 0,
					"patching_rect" : [ 834.733366549015045, 937.600013971328735, 110.0, 35.0 ],
					"text" : "LEVEL B",
					"textcolor" : [ 0.0, 0.0, 0.0, 1.0 ]
				}

			}
, 			{
				"box" : 				{
					"id" : "obj-57",
					"maxclass" : "newobj",
					"numinlets" : 2,
					"numoutlets" : 1,
					"outlettype" : [ "int" ],
					"patching_rect" : [ 198.969084024429321, 1432.989776134490967, 32.0, 22.0 ],
					"text" : "+ 21"
				}

			}
, 			{
				"box" : 				{
					"id" : "obj-56",
					"maxclass" : "comment",
					"numinlets" : 1,
					"numoutlets" : 0,
					"patching_rect" : [ 444.329923391342163, 1506.891755342483521, 81.0, 20.0 ],
					"text" : "insert velocity"
				}

			}
, 			{
				"box" : 				{
					"id" : "obj-49",
					"maxclass" : "newobj",
					"numinlets" : 2,
					"numoutlets" : 2,
					"outlettype" : [ "bang", "" ],
					"patching_rect" : [ 1156.800017237663269, 521.600007772445679, 34.0, 22.0 ],
					"text" : "sel 0"
				}

			}
, 			{
				"box" : 				{
					"id" : "obj-48",
					"maxclass" : "newobj",
					"numinlets" : 2,
					"numoutlets" : 2,
					"outlettype" : [ "bang", "" ],
					"patching_rect" : [ 730.400010883808136, 840.000012516975403, 34.0, 22.0 ],
					"text" : "sel 0"
				}

			}
, 			{
				"box" : 				{
					"id" : "obj-36",
					"maxclass" : "newobj",
					"numinlets" : 2,
					"numoutlets" : 2,
					"outlettype" : [ "bang", "" ],
					"patching_rect" : [ 199.20000296831131, 1304.0, 34.0, 22.0 ],
					"text" : "sel 1"
				}

			}
, 			{
				"box" : 				{
					"id" : "obj-54",
					"maxclass" : "number",
					"numinlets" : 1,
					"numoutlets" : 2,
					"outlettype" : [ "", "bang" ],
					"parameter_enable" : 0,
					"patching_rect" : [ 1201.600017905235291, 575.200008571147919, 50.0, 22.0 ]
				}

			}
, 			{
				"box" : 				{
					"id" : "obj-52",
					"maxclass" : "number",
					"numinlets" : 1,
					"numoutlets" : 2,
					"outlettype" : [ "", "bang" ],
					"parameter_enable" : 0,
					"patching_rect" : [ 989.63334584236145, 688.000010251998901, 50.0, 22.0 ]
				}

			}
, 			{
				"box" : 				{
					"id" : "obj-47",
					"maxclass" : "number",
					"numinlets" : 1,
					"numoutlets" : 2,
					"outlettype" : [ "", "bang" ],
					"parameter_enable" : 0,
					"patching_rect" : [ 1026.400015294551849, 636.800009489059448, 50.0, 22.0 ]
				}

			}
, 			{
				"box" : 				{
					"id" : "obj-46",
					"maxclass" : "number",
					"numinlets" : 1,
					"numoutlets" : 2,
					"outlettype" : [ "", "bang" ],
					"parameter_enable" : 0,
					"patching_rect" : [ 1174.400017499923706, 780.000011622905731, 50.0, 22.0 ]
				}

			}
, 			{
				"box" : 				{
					"id" : "obj-37",
					"maxclass" : "button",
					"numinlets" : 1,
					"numoutlets" : 1,
					"outlettype" : [ "bang" ],
					"parameter_enable" : 0,
					"patching_rect" : [ 1352.0, 488.0, 33.600008249282837, 33.600008249282837 ]
				}

			}
, 			{
				"box" : 				{
					"id" : "obj-30",
					"maxclass" : "newobj",
					"numinlets" : 1,
					"numoutlets" : 4,
					"outlettype" : [ "int", "bang", "int", "int" ],
					"patching_rect" : [ 1134.400016903877258, 716.000010669231415, 59.0, 22.0 ],
					"text" : "t 1 b 35 7"
				}

			}
, 			{
				"box" : 				{
					"id" : "obj-29",
					"maxclass" : "newobj",
					"numinlets" : 2,
					"numoutlets" : 2,
					"outlettype" : [ "", "" ],
					"patching_rect" : [ 1057.600015759468079, 688.000010251998901, 42.0, 22.0 ],
					"text" : "gate 2"
				}

			}
, 			{
				"box" : 				{
					"id" : "obj-10",
					"linecount" : 5,
					"maxclass" : "comment",
					"numinlets" : 1,
					"numoutlets" : 0,
					"patching_rect" : [ 1465.0, 1049.0, 301.0, 75.0 ],
					"text" : "1 - n° repetitions, set notes selector & equal conditional\n2 - max count & note trigger selector\n3 - set notes\n4 - reset count next clock\n5 - change gate"
				}

			}
, 			{
				"box" : 				{
					"id" : "obj-341",
					"linecount" : 6,
					"maxclass" : "comment",
					"numinlets" : 1,
					"numoutlets" : 0,
					"patching_rect" : [ 322.400004804134369, 411.400006532669067, 269.0, 89.0 ],
					"text" : "1 - n° repetitions, set notes selector & equal conditional\n2 - max count & note trigger selector\n3 - set notes\n4 - reset count next clock\n5 - change gate"
				}

			}
, 			{
				"box" : 				{
					"fontname" : "Arial",
					"fontsize" : 13.0,
					"id" : "obj-339",
					"maxclass" : "message",
					"numinlets" : 2,
					"numoutlets" : 1,
					"outlettype" : [ "" ],
					"patching_rect" : [ 285.800003170967102, 632.0, 59.0, 23.0 ],
					"text" : "7 2 4 7 0"
				}

			}
, 			{
				"box" : 				{
					"fontname" : "Arial",
					"fontsize" : 13.0,
					"id" : "obj-340",
					"maxclass" : "message",
					"numinlets" : 2,
					"numoutlets" : 1,
					"outlettype" : [ "" ],
					"patching_rect" : [ 273.800003170967102, 590.0, 72.0, 23.0 ],
					"text" : "11 2 4 11 0"
				}

			}
, 			{
				"box" : 				{
					"id" : "obj-337",
					"maxclass" : "number",
					"numinlets" : 1,
					"numoutlets" : 2,
					"outlettype" : [ "", "bang" ],
					"parameter_enable" : 0,
					"patching_rect" : [ 1325.600019752979279, 963.200014352798462, 50.0, 22.0 ]
				}

			}
, 			{
				"box" : 				{
					"id" : "obj-335",
					"maxclass" : "newobj",
					"numinlets" : 1,
					"numoutlets" : 4,
					"outlettype" : [ "int", "bang", "bang", "int" ],
					"patching_rect" : [ 1519.200022637844086, 1004.000014960765839, 114.666670083999634, 22.0 ],
					"text" : "t 1 b b 5"
				}

			}
, 			{
				"box" : 				{
					"id" : "obj-334",
					"maxclass" : "newobj",
					"numinlets" : 2,
					"numoutlets" : 2,
					"outlettype" : [ "", "" ],
					"patching_rect" : [ 1380.000020563602448, 963.200014352798462, 42.0, 22.0 ],
					"text" : "gate 2"
				}

			}
, 			{
				"box" : 				{
					"id" : "obj-333",
					"linecount" : 4,
					"maxclass" : "comment",
					"numinlets" : 1,
					"numoutlets" : 0,
					"patching_rect" : [ 1245.600018560886383, 659.200009822845459, 142.0, 62.0 ],
					"text" : "1 - set notes\n2 - reset count next clock\n3 - change gate\n4 - Set max ZZ"
				}

			}
, 			{
				"box" : 				{
					"id" : "obj-325",
					"maxclass" : "newobj",
					"numinlets" : 2,
					"numoutlets" : 2,
					"outlettype" : [ "bang", "" ],
					"patching_rect" : [ 1403.200020909309387, 914.400013625621796, 34.0, 22.0 ],
					"text" : "sel 5"
				}

			}
, 			{
				"box" : 				{
					"id" : "obj-287",
					"maxclass" : "newobj",
					"numinlets" : 2,
					"numoutlets" : 2,
					"outlettype" : [ "", "" ],
					"patching_rect" : [ 648.000009655952454, 753.600011229515076, 180.533336102962494, 22.0 ],
					"text" : "gate 2"
				}

			}
, 			{
				"box" : 				{
					"id" : "obj-290",
					"maxclass" : "newobj",
					"numinlets" : 1,
					"numoutlets" : 4,
					"outlettype" : [ "int", "bang", "bang", "int" ],
					"patching_rect" : [ 1380.000020563602448, 1004.000014960765839, 118.800000727176666, 22.0 ],
					"text" : "t 2 b b 6"
				}

			}
, 			{
				"box" : 				{
					"fontname" : "Arial",
					"fontsize" : 13.0,
					"id" : "obj-294",
					"maxclass" : "message",
					"numinlets" : 2,
					"numoutlets" : 1,
					"outlettype" : [ "" ],
					"patching_rect" : [ 1085.600016176700592, 1232.000036716461182, 72.0, 23.0 ],
					"text" : "11 2 4 11 0"
				}

			}
, 			{
				"box" : 				{
					"id" : "obj-295",
					"maxclass" : "newobj",
					"numinlets" : 1,
					"numoutlets" : 5,
					"outlettype" : [ "int", "bang", "bang", "int", "int" ],
					"patching_rect" : [ 1057.600015759468079, 716.000010669231415, 68.0, 22.0 ],
					"text" : "t 2 b b 11 1"
				}

			}
, 			{
				"box" : 				{
					"id" : "obj-296",
					"maxclass" : "newobj",
					"numinlets" : 1,
					"numoutlets" : 2,
					"outlettype" : [ "int", "int" ],
					"patching_rect" : [ 1403.200020909309387, 878.400013089179993, 48.800000727176666, 22.0 ],
					"text" : "t i i"
				}

			}
, 			{
				"box" : 				{
					"id" : "obj-305",
					"maxclass" : "number",
					"numinlets" : 1,
					"numoutlets" : 2,
					"outlettype" : [ "", "bang" ],
					"parameter_enable" : 0,
					"patching_rect" : [ 1325.600019752979279, 885.600013196468353, 50.0, 22.0 ]
				}

			}
, 			{
				"box" : 				{
					"id" : "obj-316",
					"maxclass" : "newobj",
					"numinlets" : 5,
					"numoutlets" : 4,
					"outlettype" : [ "int", "", "", "int" ],
					"patching_rect" : [ 1403.200020909309387, 847.200012624263763, 177.400010883808136, 22.0 ],
					"text" : "counter 1 5"
				}

			}
, 			{
				"box" : 				{
					"fontname" : "Arial",
					"fontsize" : 13.0,
					"id" : "obj-319",
					"maxclass" : "message",
					"numinlets" : 2,
					"numoutlets" : 1,
					"outlettype" : [ "" ],
					"patching_rect" : [ 1446.533354381720301, 1232.000036716461182, 97.0, 23.0 ],
					"text" : "11 2 4 11 12 16"
				}

			}
, 			{
				"box" : 				{
					"fontsize" : 56.163433493027156,
					"id" : "obj-283",
					"maxclass" : "number",
					"numinlets" : 1,
					"numoutlets" : 2,
					"outlettype" : [ "", "bang" ],
					"parameter_enable" : 0,
					"patching_rect" : [ 968.000014424324036, 522.400007784366608, 114.000003397464752, 73.0 ]
				}

			}
, 			{
				"box" : 				{
					"id" : "obj-274",
					"maxclass" : "newobj",
					"numinlets" : 1,
					"numoutlets" : 7,
					"outlettype" : [ "int", "bang", "bang", "int", "int", "int", "int" ],
					"patching_rect" : [ 160.0, 525.800007820129395, 159.200002372264862, 22.0 ],
					"text" : "t 1 b b 5 4 35 7"
				}

			}
, 			{
				"box" : 				{
					"id" : "obj-273",
					"maxclass" : "button",
					"numinlets" : 1,
					"numoutlets" : 1,
					"outlettype" : [ "bang" ],
					"parameter_enable" : 0,
					"patching_rect" : [ 642.866665661334991, 1063.000031709671021, 24.0, 24.0 ]
				}

			}
, 			{
				"box" : 				{
					"id" : "obj-271",
					"maxclass" : "button",
					"numinlets" : 1,
					"numoutlets" : 1,
					"outlettype" : [ "bang" ],
					"parameter_enable" : 0,
					"patching_rect" : [ 506.400007545948029, 1063.000031709671021, 24.0, 24.0 ]
				}

			}
, 			{
				"box" : 				{
					"fontsize" : 55.213857750886703,
					"id" : "obj-269",
					"maxclass" : "number",
					"numinlets" : 1,
					"numoutlets" : 2,
					"outlettype" : [ "", "bang" ],
					"parameter_enable" : 0,
					"patching_rect" : [ 526.550002187490463, 1325.333372831344604, 105.450016647577286, 72.0 ]
				}

			}
, 			{
				"box" : 				{
					"id" : "obj-260",
					"maxclass" : "newobj",
					"numinlets" : 1,
					"numoutlets" : 5,
					"outlettype" : [ "int", "bang", "bang", "int", "int" ],
					"patching_rect" : [ 537.0, 1106.5, 62.0, 22.0 ],
					"text" : "t 2 b b 3 5"
				}

			}
, 			{
				"box" : 				{
					"id" : "obj-258",
					"linecount" : 5,
					"maxclass" : "comment",
					"numinlets" : 1,
					"numoutlets" : 0,
					"patching_rect" : [ 25.800003170967102, 851.900013089179993, 301.0, 75.0 ],
					"text" : "1 - n° repetitions, set notes selector & equal conditional\n2 - max count & note trigger selector\n3 - set notes\n4 - reset count next clock\n5 - change gate"
				}

			}
, 			{
				"box" : 				{
					"id" : "obj-253",
					"maxclass" : "number",
					"numinlets" : 1,
					"numoutlets" : 2,
					"outlettype" : [ "", "bang" ],
					"parameter_enable" : 0,
					"patching_rect" : [ 480.400007545948029, 1155.400017201900482, 50.0, 22.0 ]
				}

			}
, 			{
				"box" : 				{
					"id" : "obj-251",
					"maxclass" : "newobj",
					"numinlets" : 2,
					"numoutlets" : 2,
					"outlettype" : [ "", "" ],
					"patching_rect" : [ 536.966673254966736, 1064.000031709671021, 86.899992406368256, 22.0 ],
					"text" : "gate 2"
				}

			}
, 			{
				"box" : 				{
					"fontname" : "Arial",
					"fontsize" : 13.0,
					"id" : "obj-249",
					"maxclass" : "message",
					"numinlets" : 2,
					"numoutlets" : 1,
					"outlettype" : [ "" ],
					"patching_rect" : [ 558.5, 1195.5, 37.0, 23.0 ],
					"text" : "6 2 4"
				}

			}
, 			{
				"box" : 				{
					"fontname" : "Arial",
					"fontsize" : 13.0,
					"id" : "obj-250",
					"maxclass" : "message",
					"numinlets" : 2,
					"numoutlets" : 1,
					"outlettype" : [ "" ],
					"patching_rect" : [ 537.100007593631744, 1154.900017201900482, 37.0, 23.0 ],
					"text" : "9 2 4"
				}

			}
, 			{
				"box" : 				{
					"id" : "obj-247",
					"maxclass" : "newobj",
					"numinlets" : 1,
					"numoutlets" : 2,
					"outlettype" : [ "bang", "bang" ],
					"patching_rect" : [ 764.466693073511124, 429.500013470649719, 64.066662341356277, 22.0 ],
					"text" : "t b b"
				}

			}
, 			{
				"box" : 				{
					"id" : "obj-246",
					"maxclass" : "newobj",
					"numinlets" : 1,
					"numoutlets" : 5,
					"outlettype" : [ "int", "bang", "bang", "int", "int" ],
					"patching_rect" : [ 604.866665661334991, 1106.5, 62.0, 22.0 ],
					"text" : "t 1 b b 5 4"
				}

			}
, 			{
				"box" : 				{
					"id" : "obj-238",
					"maxclass" : "newobj",
					"numinlets" : 1,
					"numoutlets" : 2,
					"outlettype" : [ "int", "int" ],
					"patching_rect" : [ 648.000009655952454, 840.000012516975403, 48.800000727176666, 22.0 ],
					"text" : "t i i"
				}

			}
, 			{
				"box" : 				{
					"id" : "obj-236",
					"maxclass" : "newobj",
					"numinlets" : 1,
					"numoutlets" : 1,
					"outlettype" : [ "" ],
					"patching_rect" : [ 1848.000055074691772, 713.333354592323303, 738.0, 22.0 ],
					"text" : "loadmess read \"D:/PROYECTOS/Max-Msp/Propios/MaxMsp-Patches/MIDI/TigranHamasyan_Entertain_Me/Images/Time signatures.png\""
				}

			}
, 			{
				"box" : 				{
					"bgcolor" : [ 1.0, 1.0, 1.0, 1.0 ],
					"bubble_bgcolor" : [ 0.407843137254902, 0.317647058823529, 0.317647058823529, 1.0 ],
					"fontsize" : 36.665980603813615,
					"id" : "obj-220",
					"maxclass" : "comment",
					"numinlets" : 1,
					"numoutlets" : 0,
					"patching_rect" : [ 10.0, 402.500013470649719, 131.0, 49.0 ],
					"text" : "RESET",
					"textcolor" : [ 0.0, 0.0, 0.0, 1.0 ]
				}

			}
, 			{
				"box" : 				{
					"bgcolor" : [ 1.0, 1.0, 1.0, 1.0 ],
					"bubble_bgcolor" : [ 0.407843137254902, 0.317647058823529, 0.317647058823529, 1.0 ],
					"fontsize" : 36.665980603813615,
					"id" : "obj-145",
					"maxclass" : "comment",
					"numinlets" : 1,
					"numoutlets" : 0,
					"patching_rect" : [ 994.0, 131.250004053115845, 139.0, 49.0 ],
					"text" : "DEBUG",
					"textcolor" : [ 0.0, 0.0, 0.0, 1.0 ]
				}

			}
, 			{
				"box" : 				{
					"id" : "obj-144",
					"maxclass" : "button",
					"numinlets" : 1,
					"numoutlets" : 1,
					"outlettype" : [ "bang" ],
					"parameter_enable" : 0,
					"patching_rect" : [ 989.63334584236145, 188.833338618278503, 205.33333945274353, 205.33333945274353 ]
				}

			}
, 			{
				"box" : 				{
					"id" : "obj-132",
					"maxclass" : "button",
					"numinlets" : 1,
					"numoutlets" : 1,
					"outlettype" : [ "bang" ],
					"parameter_enable" : 0,
					"patching_rect" : [ 1578.400023519992828, 489.600007295608521, 32.000000953674316, 32.000000953674316 ]
				}

			}
, 			{
				"box" : 				{
					"bgcolor" : [ 1.0, 1.0, 1.0, 1.0 ],
					"bubble_bgcolor" : [ 0.407843137254902, 0.317647058823529, 0.317647058823529, 1.0 ],
					"fontsize" : 24.907734681905204,
					"id" : "obj-128",
					"maxclass" : "comment",
					"numinlets" : 1,
					"numoutlets" : 0,
					"patching_rect" : [ 528.800007879734039, 1260.800018787384033, 114.0, 35.0 ],
					"text" : "LEVEL D",
					"textcolor" : [ 0.0, 0.0, 0.0, 1.0 ]
				}

			}
, 			{
				"box" : 				{
					"bgcolor" : [ 1.0, 1.0, 1.0, 1.0 ],
					"bubble_bgcolor" : [ 0.407843137254902, 0.317647058823529, 0.317647058823529, 1.0 ],
					"fontsize" : 36.665980603813615,
					"id" : "obj-119",
					"maxclass" : "comment",
					"numinlets" : 1,
					"numoutlets" : 0,
					"patching_rect" : [ 1656.800024688243866, 544.800008118152618, 123.0, 49.0 ],
					"text" : "TOTAL",
					"textcolor" : [ 0.0, 0.0, 0.0, 1.0 ]
				}

			}
, 			{
				"box" : 				{
					"fontsize" : 25.0,
					"id" : "obj-118",
					"maxclass" : "comment",
					"numinlets" : 1,
					"numoutlets" : 0,
					"patching_rect" : [ 2078.666728615760803, 80.000002384185791, 103.0, 35.0 ],
					"text" : "TOTAL",
					"textcolor" : [ 0.0, 0.0, 0.0, 1.0 ]
				}

			}
, 			{
				"box" : 				{
					"fontsize" : 54.922927426927934,
					"id" : "obj-117",
					"maxclass" : "number",
					"numinlets" : 1,
					"numoutlets" : 2,
					"outlettype" : [ "", "bang" ],
					"parameter_enable" : 0,
					"patching_rect" : [ 1515.200022578239441, 532.800007939338684, 133.0, 72.0 ]
				}

			}
, 			{
				"box" : 				{
					"id" : "obj-115",
					"maxclass" : "newobj",
					"numinlets" : 5,
					"numoutlets" : 4,
					"outlettype" : [ "int", "", "", "int" ],
					"patching_rect" : [ 1515.200022578239441, 457.600006818771362, 82.0, 22.0 ],
					"text" : "counter 1 256"
				}

			}
, 			{
				"box" : 				{
					"id" : "obj-38",
					"maxclass" : "button",
					"numinlets" : 1,
					"numoutlets" : 1,
					"outlettype" : [ "bang" ],
					"parameter_enable" : 0,
					"patching_rect" : [ 1128.000016808509827, 636.000009477138519, 24.0, 24.0 ]
				}

			}
, 			{
				"box" : 				{
					"id" : "obj-31",
					"maxclass" : "newobj",
					"numinlets" : 2,
					"numoutlets" : 2,
					"outlettype" : [ "bang", "" ],
					"patching_rect" : [ 1080.800016105175018, 636.800009489059448, 41.0, 22.0 ],
					"text" : "sel 35"
				}

			}
, 			{
				"box" : 				{
					"id" : "obj-33",
					"maxclass" : "newobj",
					"numinlets" : 2,
					"numoutlets" : 1,
					"outlettype" : [ "" ],
					"patching_rect" : [ 1080.800016105175018, 605.600009024143219, 32.0, 22.0 ],
					"text" : "gate"
				}

			}
, 			{
				"box" : 				{
					"id" : "obj-35",
					"maxclass" : "newobj",
					"numinlets" : 2,
					"numoutlets" : 1,
					"outlettype" : [ "int" ],
					"patching_rect" : [ 1156.800017237663269, 575.200008571147919, 33.0, 22.0 ],
					"text" : "== 7"
				}

			}
, 			{
				"box" : 				{
					"id" : "obj-14",
					"maxclass" : "comment",
					"numinlets" : 1,
					"numoutlets" : 0,
					"patching_rect" : [ 1271.20001894235611, 489.600007295608521, 74.0, 20.0 ],
					"text" : "7 repetitions"
				}

			}
, 			{
				"box" : 				{
					"id" : "obj-16",
					"maxclass" : "comment",
					"numinlets" : 1,
					"numoutlets" : 0,
					"patching_rect" : [ 1271.20001894235611, 522.400007784366608, 152.0, 20.0 ],
					"text" : "+ 1 cause music starts at 1"
				}

			}
, 			{
				"box" : 				{
					"id" : "obj-17",
					"maxclass" : "newobj",
					"numinlets" : 2,
					"numoutlets" : 1,
					"outlettype" : [ "int" ],
					"patching_rect" : [ 1232.80001837015152, 521.600007772445679, 29.5, 22.0 ],
					"text" : "+ 1"
				}

			}
, 			{
				"box" : 				{
					"id" : "obj-20",
					"maxclass" : "newobj",
					"numinlets" : 2,
					"numoutlets" : 1,
					"outlettype" : [ "int" ],
					"patching_rect" : [ 1156.800017237663269, 548.000008165836334, 95.0, 22.0 ],
					"text" : "i"
				}

			}
, 			{
				"box" : 				{
					"fontsize" : 28.208418367346933,
					"id" : "obj-21",
					"maxclass" : "number",
					"numinlets" : 1,
					"numoutlets" : 2,
					"outlettype" : [ "", "bang" ],
					"parameter_enable" : 0,
					"patching_rect" : [ 1297.600019335746765, 556.000008285045624, 90.0, 41.0 ]
				}

			}
, 			{
				"box" : 				{
					"id" : "obj-22",
					"maxclass" : "newobj",
					"numinlets" : 2,
					"numoutlets" : 1,
					"outlettype" : [ "int" ],
					"patching_rect" : [ 1232.80001837015152, 488.800007283687592, 29.5, 22.0 ],
					"text" : "% 7"
				}

			}
, 			{
				"box" : 				{
					"id" : "obj-12",
					"maxclass" : "newobj",
					"numinlets" : 5,
					"numoutlets" : 4,
					"outlettype" : [ "int", "", "", "int" ],
					"patching_rect" : [ 1094.400016307830811, 457.600006818771362, 157.399987757205963, 22.0 ],
					"text" : "counter 1 35"
				}

			}
, 			{
				"box" : 				{
					"bgcolor" : [ 1.0, 1.0, 1.0, 1.0 ],
					"bubble_bgcolor" : [ 0.407843137254902, 0.317647058823529, 0.317647058823529, 1.0 ],
					"fontsize" : 24.907734681905204,
					"id" : "obj-266",
					"maxclass" : "comment",
					"numinlets" : 1,
					"numoutlets" : 0,
					"patching_rect" : [ 1261.600018799304962, 442.400006592273712, 110.0, 35.0 ],
					"text" : "LEVEL A",
					"textcolor" : [ 0.0, 0.0, 0.0, 1.0 ]
				}

			}
, 			{
				"box" : 				{
					"id" : "obj-205",
					"maxclass" : "button",
					"numinlets" : 1,
					"numoutlets" : 1,
					"outlettype" : [ "bang" ],
					"parameter_enable" : 0,
					"patching_rect" : [ 642.866665661334991, 1029.0, 24.0, 24.0 ]
				}

			}
, 			{
				"box" : 				{
					"id" : "obj-203",
					"maxclass" : "newobj",
					"numinlets" : 2,
					"numoutlets" : 2,
					"outlettype" : [ "bang", "" ],
					"patching_rect" : [ 604.866665661334991, 1030.0, 34.0, 22.0 ],
					"text" : "sel 5"
				}

			}
, 			{
				"box" : 				{
					"id" : "obj-202",
					"maxclass" : "newobj",
					"numinlets" : 2,
					"numoutlets" : 1,
					"outlettype" : [ "" ],
					"patching_rect" : [ 604.866665661334991, 1000.0, 62.133343994617462, 22.0 ],
					"text" : "gate"
				}

			}
, 			{
				"box" : 				{
					"id" : "obj-201",
					"maxclass" : "newobj",
					"numinlets" : 2,
					"numoutlets" : 1,
					"outlettype" : [ "int" ],
					"patching_rect" : [ 604.866665661334991, 971.333362281322479, 33.0, 22.0 ],
					"text" : "== 4"
				}

			}
, 			{
				"box" : 				{
					"id" : "obj-194",
					"maxclass" : "comment",
					"numinlets" : 1,
					"numoutlets" : 0,
					"patching_rect" : [ 830.333358079195023, 1148.000034213066101, 73.0, 20.0 ],
					"text" : "bang on bar"
				}

			}
, 			{
				"box" : 				{
					"id" : "obj-137",
					"maxclass" : "comment",
					"numinlets" : 1,
					"numoutlets" : 0,
					"patching_rect" : [ 540.700008809566498, 1305.0, 119.0, 20.0 ],
					"text" : "[zl.lookup] starts at 0"
				}

			}
, 			{
				"box" : 				{
					"id" : "obj-135",
					"maxclass" : "comment",
					"numinlets" : 1,
					"numoutlets" : 0,
					"patching_rect" : [ 509.600007593631744, 809.800012052059174, 117.0, 20.0 ],
					"text" : "5 beats, starting at 1"
				}

			}
, 			{
				"box" : 				{
					"id" : "obj-134",
					"maxclass" : "comment",
					"numinlets" : 1,
					"numoutlets" : 0,
					"patching_rect" : [ 846.400010883808136, 840.000012516975403, 79.0, 20.0 ],
					"text" : "4 Repetitions"
				}

			}
, 			{
				"box" : 				{
					"id" : "obj-133",
					"linecount" : 2,
					"maxclass" : "comment",
					"numinlets" : 1,
					"numoutlets" : 0,
					"patching_rect" : [ 846.400010883808136, 866.000012516975403, 105.633354306221008, 34.0 ],
					"text" : "+ 1 cause music starts at 1"
				}

			}
, 			{
				"box" : 				{
					"id" : "obj-131",
					"maxclass" : "number",
					"numinlets" : 1,
					"numoutlets" : 2,
					"outlettype" : [ "", "bang" ],
					"parameter_enable" : 0,
					"patching_rect" : [ 569.600008487701416, 847.200012624263763, 50.0, 22.0 ]
				}

			}
, 			{
				"box" : 				{
					"id" : "obj-127",
					"maxclass" : "newobj",
					"numinlets" : 2,
					"numoutlets" : 1,
					"outlettype" : [ "int" ],
					"patching_rect" : [ 806.400010883808136, 872.000012516975403, 29.5, 22.0 ],
					"text" : "+ 1"
				}

			}
, 			{
				"box" : 				{
					"id" : "obj-124",
					"maxclass" : "newobj",
					"numinlets" : 2,
					"numoutlets" : 1,
					"outlettype" : [ "int" ],
					"patching_rect" : [ 677.80001038312912, 1260.800018787384033, 29.5, 22.0 ],
					"text" : "- 1"
				}

			}
, 			{
				"box" : 				{
					"id" : "obj-111",
					"maxclass" : "button",
					"numinlets" : 1,
					"numoutlets" : 1,
					"outlettype" : [ "bang" ],
					"parameter_enable" : 0,
					"patching_rect" : [ 804.333357304334641, 1177.333368420600891, 24.0, 24.0 ]
				}

			}
, 			{
				"box" : 				{
					"id" : "obj-108",
					"maxclass" : "button",
					"numinlets" : 1,
					"numoutlets" : 1,
					"outlettype" : [ "bang" ],
					"parameter_enable" : 0,
					"patching_rect" : [ 751.000022381544113, 1177.333368420600891, 24.0, 24.0 ]
				}

			}
, 			{
				"box" : 				{
					"id" : "obj-105",
					"maxclass" : "newobj",
					"numinlets" : 3,
					"numoutlets" : 3,
					"outlettype" : [ "bang", "bang", "" ],
					"patching_rect" : [ 730.333355098962784, 1146.666700839996338, 98.133344531059265, 22.0 ],
					"text" : "sel 1 4"
				}

			}
, 			{
				"box" : 				{
					"id" : "obj-97",
					"maxclass" : "newobj",
					"numinlets" : 2,
					"numoutlets" : 1,
					"outlettype" : [ "int" ],
					"patching_rect" : [ 730.333355098962784, 912.0, 95.066655784845352, 22.0 ],
					"text" : "i"
				}

			}
, 			{
				"box" : 				{
					"id" : "obj-98",
					"maxclass" : "number",
					"numinlets" : 1,
					"numoutlets" : 2,
					"outlettype" : [ "", "bang" ],
					"parameter_enable" : 0,
					"patching_rect" : [ 834.733366549015045, 912.0, 50.0, 22.0 ]
				}

			}
, 			{
				"box" : 				{
					"id" : "obj-101",
					"maxclass" : "newobj",
					"numinlets" : 2,
					"numoutlets" : 1,
					"outlettype" : [ "int" ],
					"patching_rect" : [ 806.400010883808136, 840.000012516975403, 29.5, 22.0 ],
					"text" : "% 4"
				}

			}
, 			{
				"box" : 				{
					"id" : "obj-90",
					"maxclass" : "newobj",
					"numinlets" : 5,
					"numoutlets" : 4,
					"outlettype" : [ "int", "", "", "int" ],
					"patching_rect" : [ 648.0, 808.800012052059174, 177.400010883808136, 22.0 ],
					"text" : "counter 1 5"
				}

			}
, 			{
				"box" : 				{
					"fontsize" : 25.0,
					"id" : "obj-18",
					"maxclass" : "comment",
					"numinlets" : 1,
					"numoutlets" : 0,
					"patching_rect" : [ 2270.666734337806702, 172.000005125999451, 29.0, 35.0 ],
					"text" : "A",
					"textcolor" : [ 0.0, 0.0, 0.0, 1.0 ]
				}

			}
, 			{
				"box" : 				{
					"id" : "obj-109",
					"maxclass" : "newobj",
					"numinlets" : 1,
					"numoutlets" : 2,
					"outlettype" : [ "", "flush" ],
					"patching_rect" : [ 358.762907981872559, 1569.778357028961182, 47.0, 22.0 ],
					"text" : "t l flush"
				}

			}
, 			{
				"box" : 				{
					"id" : "obj-103",
					"maxclass" : "nslider",
					"mode" : 1,
					"numinlets" : 2,
					"numoutlets" : 2,
					"outlettype" : [ "int", "int" ],
					"parameter_enable" : 0,
					"patching_rect" : [ 1706.0, 1155.400017201900482, 234.0, 618.0 ]
				}

			}
, 			{
				"box" : 				{
					"id" : "obj-102",
					"maxclass" : "newobj",
					"numinlets" : 1,
					"numoutlets" : 1,
					"outlettype" : [ "" ],
					"patching_rect" : [ 358.762907981872559, 1540.912375926971436, 86.0, 22.0 ],
					"text" : "prepend chord"
				}

			}
, 			{
				"box" : 				{
					"fontname" : "Arial",
					"fontsize" : 13.0,
					"id" : "obj-199",
					"maxclass" : "newobj",
					"numinlets" : 2,
					"numoutlets" : 2,
					"outlettype" : [ "", "" ],
					"patching_rect" : [ 358.762907981872559, 1505.860827445983887, 81.0, 23.0 ],
					"text" : "zl lace 60 60"
				}

			}
, 			{
				"box" : 				{
					"id" : "obj-166",
					"maxclass" : "message",
					"numinlets" : 2,
					"numoutlets" : 1,
					"outlettype" : [ "" ],
					"patching_rect" : [ 186.0, 1627.0, 124.390245676040649, 22.0 ],
					"text" : "midievent 144 42 0"
				}

			}
, 			{
				"box" : 				{
					"format" : 5,
					"id" : "obj-153",
					"maxclass" : "number",
					"numinlets" : 1,
					"numoutlets" : 2,
					"outlettype" : [ "", "bang" ],
					"parameter_enable" : 0,
					"patching_rect" : [ 131.0, 1575.0, 50.0, 22.0 ]
				}

			}
, 			{
				"box" : 				{
					"id" : "obj-154",
					"maxclass" : "comment",
					"numinlets" : 1,
					"numoutlets" : 0,
					"patching_rect" : [ 152.0, 1444.0, 39.0, 20.0 ],
					"text" : "Scale"
				}

			}
, 			{
				"box" : 				{
					"id" : "obj-156",
					"maxclass" : "message",
					"numinlets" : 2,
					"numoutlets" : 1,
					"outlettype" : [ "" ],
					"patching_rect" : [ 135.0, 1475.5, 50.0, 22.0 ],
					"text" : "42"
				}

			}
, 			{
				"box" : 				{
					"fontname" : "Arial",
					"fontsize" : 13.0,
					"id" : "obj-159",
					"maxclass" : "newobj",
					"numinlets" : 7,
					"numoutlets" : 2,
					"outlettype" : [ "int", "" ],
					"patching_rect" : [ 199.0, 1583.0, 111.027026891708374, 23.0 ],
					"text" : "midiformat"
				}

			}
, 			{
				"box" : 				{
					"fontname" : "Arial",
					"fontsize" : 13.0,
					"id" : "obj-160",
					"maxclass" : "newobj",
					"numinlets" : 2,
					"numoutlets" : 1,
					"outlettype" : [ "" ],
					"patching_rect" : [ 199.0, 1547.0, 100.733340084552765, 23.0 ],
					"text" : "join"
				}

			}
, 			{
				"box" : 				{
					"id" : "obj-161",
					"maxclass" : "newobj",
					"numinlets" : 3,
					"numoutlets" : 2,
					"outlettype" : [ "float", "float" ],
					"patching_rect" : [ 198.666672587394714, 1507.0, 101.333336353302002, 22.0 ],
					"text" : "makenote 50 8n"
				}

			}
, 			{
				"box" : 				{
					"fontface" : 0,
					"fontname" : "Arial",
					"fontsize" : 13.0,
					"id" : "obj-88",
					"items" : [ "1n", ",", "1nd", ",", "1nt", ",", "2n", ",", "2nd", ",", "2nt", ",", "4n", ",", "4nd", ",", "4nt", ",", "8n", ",", "8nd", ",", "8nt", ",", "16n", ",", "16nd", ",", "16nt", ",", "32n", ",", "32nd", ",", "32nt", ",", "64n", ",", "64nd", ",", "64nt", ",", "128n", ",", "128nd", ",", "128nt" ],
					"maxclass" : "umenu",
					"numinlets" : 1,
					"numoutlets" : 3,
					"outlettype" : [ "int", "", "" ],
					"parameter_enable" : 0,
					"patching_rect" : [ 259.0, 1475.0, 64.0, 23.0 ]
				}

			}
, 			{
				"box" : 				{
					"id" : "obj-149",
					"maxclass" : "nslider",
					"numinlets" : 2,
					"numoutlets" : 2,
					"outlettype" : [ "int", "int" ],
					"parameter_enable" : 0,
					"patching_rect" : [ 1964.0, 1155.400017201900482, 234.0, 618.0 ]
				}

			}
, 			{
				"box" : 				{
					"fontname" : "Arial",
					"fontsize" : 13.0,
					"id" : "obj-141",
					"maxclass" : "message",
					"numinlets" : 2,
					"numoutlets" : 1,
					"outlettype" : [ "" ],
					"patching_rect" : [ 199.20000296831131, 1374.333372831344604, 58.29999703168869, 23.0 ],
					"text" : "9 21"
				}

			}
, 			{
				"box" : 				{
					"id" : "obj-86",
					"maxclass" : "newobj",
					"numinlets" : 1,
					"numoutlets" : 1,
					"outlettype" : [ "bang" ],
					"patching_rect" : [ 91.333336055278778, 494.666681408882141, 58.0, 22.0 ],
					"text" : "loadbang"
				}

			}
, 			{
				"box" : 				{
					"fontsize" : 25.0,
					"id" : "obj-71",
					"maxclass" : "comment",
					"numinlets" : 1,
					"numoutlets" : 0,
					"patching_rect" : [ 2286.66673481464386, 112.000003337860107, 103.0, 35.0 ],
					"text" : "LEVELS",
					"textcolor" : [ 0.0, 0.0, 0.0, 1.0 ]
				}

			}
, 			{
				"box" : 				{
					"fontsize" : 25.0,
					"id" : "obj-70",
					"maxclass" : "comment",
					"numinlets" : 1,
					"numoutlets" : 0,
					"patching_rect" : [ 1886.666722893714905, 389.33334493637085, 29.0, 35.0 ],
					"text" : "D",
					"textcolor" : [ 0.0, 0.0, 0.0, 1.0 ]
				}

			}
, 			{
				"box" : 				{
					"fontsize" : 25.0,
					"id" : "obj-69",
					"maxclass" : "comment",
					"numinlets" : 1,
					"numoutlets" : 0,
					"patching_rect" : [ 1930.66672420501709, 317.333342790603638, 29.0, 35.0 ],
					"text" : "C",
					"textcolor" : [ 0.0, 0.0, 0.0, 1.0 ]
				}

			}
, 			{
				"box" : 				{
					"fontsize" : 25.0,
					"id" : "obj-68",
					"maxclass" : "comment",
					"numinlets" : 1,
					"numoutlets" : 0,
					"patching_rect" : [ 2084.000062108039856, 245.333340644836426, 29.0, 35.0 ],
					"text" : "B",
					"textcolor" : [ 0.0, 0.0, 0.0, 1.0 ]
				}

			}
, 			{
				"box" : 				{
					"forceaspect" : 1,
					"id" : "obj-91",
					"maxclass" : "fpic",
					"numinlets" : 1,
					"numoutlets" : 1,
					"outlettype" : [ "jit_matrix" ],
					"patching_rect" : [ 1824.000054359436035, 749.333355665206909, 1317.333417773246765, 320.83765334234613 ],
					"pic" : "Time signatures.png",
					"xoffset" : -0.800000011920929,
					"yoffset" : 0.533333420753479
				}

			}
, 			{
				"box" : 				{
					"id" : "obj-13",
					"maxclass" : "newobj",
					"numinlets" : 1,
					"numoutlets" : 1,
					"outlettype" : [ "" ],
					"patching_rect" : [ 404.000012040138245, 164.000004887580872, 120.0, 22.0 ],
					"text" : "loadmess tempo 130"
				}

			}
, 			{
				"box" : 				{
					"autofit" : 1,
					"id" : "obj-2",
					"maxclass" : "fpic",
					"numinlets" : 1,
					"numoutlets" : 1,
					"outlettype" : [ "jit_matrix" ],
					"patching_rect" : [ 1824.000054359436035, 48.000001430511475, 1317.333372592926025, 632.000018835067749 ],
					"pic" : "D:/PROYECTOS/Max-Msp/Propios/MaxMsp-Patches/MIDI/TigranHamasyan_Entertain_Me/Images/Tigran Example.png",
					"xoffset" : -1.236343026161194,
					"yoffset" : 1.600000023841858
				}

			}
, 			{
				"box" : 				{
					"id" : "obj-3",
					"maxclass" : "message",
					"numinlets" : 2,
					"numoutlets" : 1,
					"outlettype" : [ "" ],
					"patching_rect" : [ 1824.000054359436035, 689.333353877067566, 683.0, 22.0 ],
					"text" : "read \"D:/PROYECTOS/Max-Msp/Propios/MaxMsp-Patches/MIDI/TigranHamasyan_Entertain_Me/Images/Time signatures.png\""
				}

			}
, 			{
				"box" : 				{
					"id" : "obj-1",
					"maxclass" : "message",
					"numinlets" : 2,
					"numoutlets" : 1,
					"outlettype" : [ "" ],
					"patching_rect" : [ 1824.000054359436035, 17.333333849906921, 681.0, 22.0 ],
					"text" : "read \"D:/PROYECTOS/Max-Msp/Propios/MaxMsp-Patches/MIDI/TigranHamasyan_Entertain_Me/Images/Tigran Example.png\""
				}

			}
, 			{
				"box" : 				{
					"fontname" : "Arial",
					"fontsize" : 13.0,
					"id" : "obj-107",
					"maxclass" : "message",
					"numinlets" : 2,
					"numoutlets" : 1,
					"outlettype" : [ "" ],
					"patching_rect" : [ 606.366665661334991, 1195.5, 59.0, 23.0 ],
					"text" : "7 2 4 7 0"
				}

			}
, 			{
				"box" : 				{
					"fontname" : "Arial",
					"fontsize" : 13.0,
					"id" : "obj-100",
					"maxclass" : "message",
					"numinlets" : 2,
					"numoutlets" : 1,
					"outlettype" : [ "" ],
					"patching_rect" : [ 598.133354306221008, 1154.900017201900482, 72.0, 23.0 ],
					"text" : "11 2 4 11 0"
				}

			}
, 			{
				"box" : 				{
					"bgcolor" : [ 0.913725490196078, 0.945098039215686, 0.745098039215686, 1.0 ],
					"id" : "obj-99",
					"maxclass" : "button",
					"numinlets" : 1,
					"numoutlets" : 1,
					"outlettype" : [ "bang" ],
					"parameter_enable" : 0,
					"patching_rect" : [ 160.0, 362.500013470649719, 119.5, 119.5 ]
				}

			}
, 			{
				"box" : 				{
					"fontname" : "Arial",
					"fontsize" : 13.0,
					"id" : "obj-64",
					"maxclass" : "message",
					"numinlets" : 2,
					"numoutlets" : 1,
					"outlettype" : [ "" ],
					"patching_rect" : [ 856.333358854055405, 1232.000036716461182, 59.0, 23.0 ],
					"text" : "7 2 4 7 0"
				}

			}
, 			{
				"box" : 				{
					"format" : 5,
					"id" : "obj-42",
					"maxclass" : "number",
					"numinlets" : 1,
					"numoutlets" : 2,
					"outlettype" : [ "", "bang" ],
					"parameter_enable" : 0,
					"patching_rect" : [ 609.133354306221008, 1465.0, 50.0, 22.0 ]
				}

			}
, 			{
				"box" : 				{
					"id" : "obj-34",
					"maxclass" : "comment",
					"numinlets" : 1,
					"numoutlets" : 0,
					"patching_rect" : [ 713.146867752075195, 1348.0, 39.0, 20.0 ],
					"text" : "Scale"
				}

			}
, 			{
				"box" : 				{
					"bubble" : 1,
					"bubbleside" : 3,
					"fontname" : "Arial",
					"fontsize" : 19.045481481481485,
					"id" : "obj-32",
					"linecount" : 4,
					"maxclass" : "comment",
					"numinlets" : 1,
					"numoutlets" : 0,
					"patching_rect" : [ 1425.333375811576843, 4.00000011920929, 390.666678309440613, 98.0 ],
					"style" : "helpfile_label",
					"text" : "1- Drag and Drop images in path:\nProjectPath\\Images\n2 - Then assign the corresponding path to the loadmess"
				}

			}
, 			{
				"box" : 				{
					"bubble" : 1,
					"fontname" : "Arial",
					"fontsize" : 13.0,
					"id" : "obj-28",
					"maxclass" : "comment",
					"numinlets" : 1,
					"numoutlets" : 0,
					"patching_rect" : [ 837.800028592348099, 358.833344697952271, 137.0, 25.0 ],
					"style" : "helpfile_label",
					"text" : "Current subdivision"
				}

			}
, 			{
				"box" : 				{
					"id" : "obj-26",
					"maxclass" : "ezdac~",
					"numinlets" : 2,
					"numoutlets" : 0,
					"patching_rect" : [ 317.133354306221008, 1932.0, 316.666671872138977, 316.666671872138977 ]
				}

			}
, 			{
				"box" : 				{
					"id" : "obj-25",
					"lastchannelcount" : 0,
					"maxclass" : "live.gain~",
					"numinlets" : 2,
					"numoutlets" : 5,
					"outlettype" : [ "signal", "signal", "", "float", "list" ],
					"parameter_enable" : 1,
					"patching_rect" : [ 771.133354306221008, 1804.0, 88.0, 135.0 ],
					"saved_attribute_attributes" : 					{
						"valueof" : 						{
							"parameter_longname" : "live.gain~",
							"parameter_mmax" : 6.0,
							"parameter_mmin" : -70.0,
							"parameter_modmode" : 3,
							"parameter_osc_name" : "<default>",
							"parameter_shortname" : "live.gain~",
							"parameter_type" : 0,
							"parameter_unitstyle" : 4
						}

					}
,
					"varname" : "live.gain~"
				}

			}
, 			{
				"box" : 				{
					"id" : "obj-24",
					"maxclass" : "newobj",
					"numinlets" : 2,
					"numoutlets" : 1,
					"outlettype" : [ "int" ],
					"patching_rect" : [ 677.133354306221008, 1347.0, 32.0, 22.0 ],
					"text" : "+ 57"
				}

			}
, 			{
				"box" : 				{
					"id" : "obj-23",
					"maxclass" : "kslider",
					"numinlets" : 2,
					"numoutlets" : 2,
					"offset" : 21,
					"outlettype" : [ "int", "int" ],
					"parameter_enable" : 0,
					"patching_rect" : [ 919.533354381720528, 1554.278357028961182, 624.0, 53.0 ],
					"range" : 88
				}

			}
, 			{
				"box" : 				{
					"fontname" : "Arial",
					"fontsize" : 13.0,
					"id" : "obj-281",
					"maxclass" : "message",
					"numinlets" : 2,
					"numoutlets" : 1,
					"outlettype" : [ "" ],
					"patching_rect" : [ 633.133354306221008, 1657.0, 37.0, 23.0 ],
					"text" : "open"
				}

			}
, 			{
				"box" : 				{
					"fontname" : "Arial",
					"fontsize" : 13.0,
					"id" : "obj-282",
					"maxclass" : "message",
					"numinlets" : 2,
					"numoutlets" : 1,
					"outlettype" : [ "" ],
					"patching_rect" : [ 669.133354306221008, 1657.0, 33.0, 23.0 ],
					"text" : "plug"
				}

			}
, 			{
				"box" : 				{
					"id" : "obj-19",
					"maxclass" : "message",
					"numinlets" : 2,
					"numoutlets" : 1,
					"outlettype" : [ "" ],
					"patching_rect" : [ 613.133354306221008, 1420.0, 50.0, 22.0 ],
					"text" : "57"
				}

			}
, 			{
				"box" : 				{
					"id" : "obj-50",
					"maxclass" : "newobj",
					"numinlets" : 1,
					"numoutlets" : 1,
					"outlettype" : [ "" ],
					"patching_rect" : [ 785.133354306221008, 1659.0, 433.0, 22.0 ],
					"text" : "loadmess plug_vst \"C:/Program Files/Common Files/VST3/MetaPiano x64.vst3\""
				}

			}
, 			{
				"box" : 				{
					"id" : "obj-15",
					"maxclass" : "message",
					"numinlets" : 2,
					"numoutlets" : 1,
					"outlettype" : [ "" ],
					"patching_rect" : [ 645.133354306221008, 1547.0, 124.390245676040649, 22.0 ],
					"text" : "midievent 144 57 0"
				}

			}
, 			{
				"box" : 				{
					"fontname" : "Arial",
					"fontsize" : 13.0,
					"id" : "obj-308",
					"maxclass" : "newobj",
					"numinlets" : 7,
					"numoutlets" : 2,
					"outlettype" : [ "int", "" ],
					"patching_rect" : [ 677.133354306221008, 1496.0, 111.027026891708374, 23.0 ],
					"text" : "midiformat"
				}

			}
, 			{
				"box" : 				{
					"fontname" : "Arial",
					"fontsize" : 13.0,
					"id" : "obj-309",
					"maxclass" : "newobj",
					"numinlets" : 2,
					"numoutlets" : 1,
					"outlettype" : [ "" ],
					"patching_rect" : [ 677.133354306221008, 1460.0, 100.733340084552765, 23.0 ],
					"text" : "join"
				}

			}
, 			{
				"box" : 				{
					"id" : "obj-8",
					"maxclass" : "newobj",
					"numinlets" : 3,
					"numoutlets" : 2,
					"outlettype" : [ "float", "float" ],
					"patching_rect" : [ 677.133354306221008, 1420.0, 101.0, 22.0 ],
					"text" : "makenote 60 16n"
				}

			}
, 			{
				"box" : 				{
					"autosave" : 1,
					"bgmode" : 0,
					"border" : 0,
					"clickthrough" : 0,
					"id" : "obj-7",
					"maxclass" : "newobj",
					"numinlets" : 2,
					"numoutlets" : 8,
					"offset" : [ 0.0, 0.0 ],
					"outlettype" : [ "signal", "signal", "", "list", "int", "", "", "" ],
					"patching_rect" : [ 769.133354306221008, 1712.0, 120.0, 22.0 ],
					"save" : [ "#N", "vst~", "loaduniqueid", 0, ";" ],
					"saved_attribute_attributes" : 					{
						"valueof" : 						{
							"parameter_invisible" : 1,
							"parameter_longname" : "vst~",
							"parameter_modmode" : 0,
							"parameter_osc_name" : "<default>",
							"parameter_shortname" : "vst~",
							"parameter_type" : 3
						}

					}
,
					"saved_object_attributes" : 					{
						"parameter_enable" : 1,
						"parameter_mappable" : 0
					}
,
					"snapshot" : 					{
						"filetype" : "C74Snapshot",
						"version" : 2,
						"minorversion" : 0,
						"name" : "snapshotlist",
						"origin" : "vst~",
						"type" : "list",
						"subtype" : "Undefined",
						"embed" : 1,
						"snapshot" : 						{
							"pluginname" : "MetaPiano x64.vst3info",
							"plugindisplayname" : "MetaPiano",
							"pluginsavedname" : "",
							"pluginsaveduniqueid" : 0,
							"version" : 1,
							"isbank" : 0,
							"isbase64" : 1,
							"blob" : "632.VMjLg7l....O+fWarAhckI2bo8la8HRLt.iHfTlai8FYo41Y8HRUTYTK3HxO9.BOVMEUy.Ea0cVZtMEcgQWY9vSRC8Vav8lak4Fc9LSNv3hUMczXWEjKt3hYt3hKt.kKt3hKt3BS5gEcyQjKtPjYgYTR5AkaA4hKtfDTSoWPWokKDAUPt3hKt3hKt3hKt3hKt3hKt3hKt3hKt3hKt3hKt3hKt3hKt3hKt3hKt3hKt3hKt3hKt3hKt3hKt3hKt3hKt3hKt3hKt3hKt3hKt3hKt3hKt3hKt3hKt3hKt3hKt3hKt3hKt3hKt3hKt3hKt3hKt3hKt3hKt3hKt3hKt3hKt3hKt3hKt3hKt3hKt3hKt3hKt3hKt3hKt3hKt3hKt3hKt3hKt3hKt3hKt3hKt3hKt3hKt3hKt3hKtfUSJASNRshY3DjKEIkKtfmX1YTZtnkPt3xcFoFNLkWRLYFU3EWX2fSYEwlM0YWSZkEcvkTNwnGNSEDQHslPR8lZ0bySigTPzrRTKUTZVISUznVQzYFVYw1bHcjdxk2aiEFMrolcUQ0YBwlZJc1arcCQyIzbX8TTZMFZ0.UVyMFNpYjcCMmKl01c3rDZgIkdRw1QP4BYzMWMo0VZiA0MOAyaikVStHjZtA0QOQjKsYmKW8Tb2QzXRcjSrgVSHoGZtfzQ1gCTJMkUv4zUuYWUL4hKt3hKt3hKt3hYRUUSTEETIckVwTjQisVTTgkdEYjKAQjYPQSPWgUdMcjKAQjct3hdA4hKt3hKt3hKtnTUv.UQAslXuk0UXoWUFE0YQcEV77RRC8Vav8lak4Fc9vyKVMEUy.Ea0cVZtMEcgQWY9.."
						}
,
						"snapshotlist" : 						{
							"current_snapshot" : 0,
							"entries" : [ 								{
									"filetype" : "C74Snapshot",
									"version" : 2,
									"minorversion" : 0,
									"name" : "MetaPiano",
									"origin" : "MetaPiano x64.vst3info",
									"type" : "VST3",
									"subtype" : "Instrument",
									"embed" : 1,
									"snapshot" : 									{
										"pluginname" : "MetaPiano x64.vst3info",
										"plugindisplayname" : "MetaPiano",
										"pluginsavedname" : "",
										"pluginsaveduniqueid" : 0,
										"version" : 1,
										"isbank" : 0,
										"isbase64" : 1,
										"blob" : "632.VMjLg7l....O+fWarAhckI2bo8la8HRLt.iHfTlai8FYo41Y8HRUTYTK3HxO9.BOVMEUy.Ea0cVZtMEcgQWY9vSRC8Vav8lak4Fc9LSNv3hUMczXWEjKt3hYt3hKt.kKt3hKt3BS5gEcyQjKtPjYgYTR5AkaA4hKtfDTSoWPWokKDAUPt3hKt3hKt3hKt3hKt3hKt3hKt3hKt3hKt3hKt3hKt3hKt3hKt3hKt3hKt3hKt3hKt3hKt3hKt3hKt3hKt3hKt3hKt3hKt3hKt3hKt3hKt3hKt3hKt3hKt3hKt3hKt3hKt3hKt3hKt3hKt3hKt3hKt3hKt3hKt3hKt3hKt3hKt3hKt3hKt3hKt3hKt3hKt3hKt3hKt3hKt3hKt3hKt3hKt3hKt3hKt3hKt3hKt3hKt3hKt3hKtfUSJASNRshY3DjKEIkKtfmX1YTZtnkPt3xcFoFNLkWRLYFU3EWX2fSYEwlM0YWSZkEcvkTNwnGNSEDQHslPR8lZ0bySigTPzrRTKUTZVISUznVQzYFVYw1bHcjdxk2aiEFMrolcUQ0YBwlZJc1arcCQyIzbX8TTZMFZ0.UVyMFNpYjcCMmKl01c3rDZgIkdRw1QP4BYzMWMo0VZiA0MOAyaikVStHjZtA0QOQjKsYmKW8Tb2QzXRcjSrgVSHoGZtfzQ1gCTJMkUv4zUuYWUL4hKt3hKt3hKt3hYRUUSTEETIckVwTjQisVTTgkdEYjKAQjYPQSPWgUdMcjKAQjct3hdA4hKt3hKt3hKtnTUv.UQAslXuk0UXoWUFE0YQcEV77RRC8Vav8lak4Fc9vyKVMEUy.Ea0cVZtMEcgQWY9.."
									}
,
									"fileref" : 									{
										"name" : "MetaPiano",
										"filename" : "MetaPiano.maxsnap",
										"filepath" : "~/Documents/Max 9/Snapshots",
										"filepos" : -1,
										"snapshotfileid" : "3905b08737d3fc8239245c43b7487bae"
									}

								}
 ]
						}

					}
,
					"text" : "vst~",
					"varname" : "vst~",
					"viewvisibility" : 0
				}

			}
, 			{
				"box" : 				{
					"id" : "obj-4",
					"maxclass" : "message",
					"numinlets" : 2,
					"numoutlets" : 1,
					"outlettype" : [ "" ],
					"patching_rect" : [ 813.800027877092361, 308.16667652130127, 29.5, 22.0 ],
					"text" : "16n"
				}

			}
, 			{
				"box" : 				{
					"id" : "obj-6",
					"maxclass" : "message",
					"numinlets" : 2,
					"numoutlets" : 1,
					"outlettype" : [ "" ],
					"patching_rect" : [ 776.466693431138992, 308.16667652130127, 29.5, 22.0 ],
					"text" : "4n"
				}

			}
, 			{
				"box" : 				{
					"fontname" : "Arial",
					"fontsize" : 13.0,
					"id" : "obj-175",
					"maxclass" : "message",
					"numinlets" : 2,
					"numoutlets" : 1,
					"outlettype" : [ "" ],
					"patching_rect" : [ 730.333355098962784, 1232.000036716461182, 72.0, 23.0 ],
					"text" : "11 2 4 11 0"
				}

			}
, 			{
				"box" : 				{
					"fontname" : "Arial",
					"fontsize" : 13.0,
					"id" : "obj-178",
					"linecount" : 2,
					"maxclass" : "newobj",
					"numinlets" : 2,
					"numoutlets" : 2,
					"outlettype" : [ "", "" ],
					"patching_rect" : [ 677.133354306221008, 1296.0, 72.0, 38.0 ],
					"text" : "zl lookup 11 2 4 11 0"
				}

			}
, 			{
				"box" : 				{
					"fontname" : "Arial",
					"fontsize" : 13.0,
					"id" : "obj-84",
					"linecount" : 2,
					"maxclass" : "newobj",
					"numinlets" : 2,
					"numoutlets" : 1,
					"outlettype" : [ "bang" ],
					"patching_rect" : [ 764.466693073511124, 352.166677832603455, 71.0, 38.0 ],
					"text" : "metro 16n @active 1"
				}

			}
, 			{
				"box" : 				{
					"bubble" : 1,
					"fontname" : "Arial",
					"fontsize" : 13.0,
					"id" : "obj-80",
					"linecount" : 2,
					"maxclass" : "comment",
					"numinlets" : 1,
					"numoutlets" : 0,
					"patching_rect" : [ 672.000020027160645, 166.666671633720398, 111.0, 40.0 ],
					"style" : "helpfile_label",
					"text" : "set custom\ntime signature "
				}

			}
, 			{
				"box" : 				{
					"id" : "obj-79",
					"maxclass" : "number",
					"numinlets" : 1,
					"numoutlets" : 2,
					"outlettype" : [ "", "bang" ],
					"parameter_enable" : 0,
					"patching_rect" : [ 610.666684865951538, 188.000005602836609, 50.0, 22.0 ]
				}

			}
, 			{
				"box" : 				{
					"id" : "obj-77",
					"maxclass" : "number",
					"numinlets" : 1,
					"numoutlets" : 2,
					"outlettype" : [ "", "bang" ],
					"parameter_enable" : 0,
					"patching_rect" : [ 584.000017404556274, 164.000004887580872, 50.0, 22.0 ]
				}

			}
, 			{
				"box" : 				{
					"id" : "obj-75",
					"maxclass" : "newobj",
					"numinlets" : 2,
					"numoutlets" : 1,
					"outlettype" : [ "" ],
					"patching_rect" : [ 584.000017404556274, 214.666673064231873, 46.0, 22.0 ],
					"text" : "pak"
				}

			}
, 			{
				"box" : 				{
					"id" : "obj-63",
					"maxclass" : "toggle",
					"numinlets" : 1,
					"numoutlets" : 1,
					"outlettype" : [ "int" ],
					"parameter_enable" : 0,
					"patching_rect" : [ 18.666667222976685, 19.666674345731735, 333.999994575977325, 333.999994575977325 ],
					"svg" : ""
				}

			}
, 			{
				"box" : 				{
					"fontname" : "Arial",
					"fontsize" : 13.0,
					"id" : "obj-66",
					"linecount" : 2,
					"maxclass" : "comment",
					"numinlets" : 1,
					"numoutlets" : 0,
					"patching_rect" : [ 508.000015139579773, 306.666675806045532, 95.0, 36.0 ],
					"style" : "helpfile_label",
					"text" : "Current \ntime signature"
				}

			}
, 			{
				"box" : 				{
					"fontname" : "Arial",
					"fontsize" : 13.0,
					"id" : "obj-11",
					"maxclass" : "message",
					"numinlets" : 2,
					"numoutlets" : 1,
					"outlettype" : [ "" ],
					"patching_rect" : [ 410.83334493637085, 306.666675806045532, 50.0, 23.0 ],
					"text" : "4 4"
				}

			}
, 			{
				"box" : 				{
					"fontname" : "Arial",
					"fontsize" : 13.0,
					"id" : "obj-5",
					"maxclass" : "newobj",
					"numinlets" : 2,
					"numoutlets" : 9,
					"outlettype" : [ "int", "int", "float", "float", "float", "", "int", "float", "" ],
					"patching_rect" : [ 389.33334493637085, 280.000008344650269, 103.0, 23.0 ],
					"text" : "transport"
				}

			}
, 			{
				"box" : 				{
					"attr" : "tempo",
					"fontface" : 0,
					"fontname" : "Arial",
					"fontsize" : 13.0,
					"id" : "obj-39",
					"maxclass" : "attrui",
					"numinlets" : 1,
					"numoutlets" : 1,
					"outlettype" : [ "" ],
					"parameter_enable" : 0,
					"patching_rect" : [ 389.33334493637085, 57.333335041999817, 199.0, 23.0 ]
				}

			}
, 			{
				"box" : 				{
					"bubble" : 1,
					"fontname" : "Arial",
					"fontsize" : 13.0,
					"id" : "obj-41",
					"maxclass" : "comment",
					"numinlets" : 1,
					"numoutlets" : 0,
					"patching_rect" : [ 584.000017404556274, 56.000001668930054, 130.0, 25.0 ],
					"style" : "helpfile_label",
					"text" : "set tempo in bpm"
				}

			}
, 			{
				"box" : 				{
					"bubble" : 1,
					"fontname" : "Arial",
					"fontsize" : 13.0,
					"id" : "obj-43",
					"maxclass" : "comment",
					"numinlets" : 1,
					"numoutlets" : 0,
					"patching_rect" : [ 622.666685223579407, 108.000003218650818, 137.0, 25.0 ],
					"style" : "helpfile_label",
					"text" : "set time signature "
				}

			}
, 			{
				"box" : 				{
					"fontname" : "Arial",
					"fontsize" : 13.0,
					"id" : "obj-126",
					"maxclass" : "message",
					"numinlets" : 2,
					"numoutlets" : 1,
					"outlettype" : [ "" ],
					"patching_rect" : [ 584.000017404556274, 238.66667377948761, 86.0, 23.0 ],
					"text" : "timesig $1 $2"
				}

			}
, 			{
				"box" : 				{
					"fontname" : "Arial",
					"fontsize" : 13.0,
					"id" : "obj-125",
					"maxclass" : "message",
					"numinlets" : 2,
					"numoutlets" : 1,
					"outlettype" : [ "" ],
					"patching_rect" : [ 536.0000159740448, 109.333336591720581, 79.0, 23.0 ],
					"text" : "timesig 5 16"
				}

			}
 ],
		"lines" : [ 			{
				"patchline" : 				{
					"destination" : [ "obj-2", 0 ],
					"source" : [ "obj-1", 0 ]
				}

			}
, 			{
				"patchline" : 				{
					"color" : [ 0.674509803921569, 0.819607843137255, 0.572549019607843, 1.0 ],
					"destination" : [ "obj-175", 1 ],
					"source" : [ "obj-100", 0 ]
				}

			}
, 			{
				"patchline" : 				{
					"destination" : [ "obj-127", 0 ],
					"source" : [ "obj-101", 0 ]
				}

			}
, 			{
				"patchline" : 				{
					"destination" : [ "obj-109", 0 ],
					"source" : [ "obj-102", 0 ]
				}

			}
, 			{
				"patchline" : 				{
					"destination" : [ "obj-108", 0 ],
					"order" : 0,
					"source" : [ "obj-105", 0 ]
				}

			}
, 			{
				"patchline" : 				{
					"destination" : [ "obj-111", 0 ],
					"order" : 1,
					"source" : [ "obj-105", 1 ]
				}

			}
, 			{
				"patchline" : 				{
					"destination" : [ "obj-175", 0 ],
					"order" : 1,
					"source" : [ "obj-105", 0 ]
				}

			}
, 			{
				"patchline" : 				{
					"destination" : [ "obj-64", 0 ],
					"order" : 0,
					"source" : [ "obj-105", 1 ]
				}

			}
, 			{
				"patchline" : 				{
					"destination" : [ "obj-104", 0 ],
					"order" : 0,
					"source" : [ "obj-106", 0 ]
				}

			}
, 			{
				"patchline" : 				{
					"destination" : [ "obj-57", 1 ],
					"order" : 2,
					"source" : [ "obj-106", 0 ]
				}

			}
, 			{
				"patchline" : 				{
					"destination" : [ "obj-96", 0 ],
					"order" : 1,
					"source" : [ "obj-106", 0 ]
				}

			}
, 			{
				"patchline" : 				{
					"color" : [ 0.764705882352941, 0.819607843137255, 0.572549019607843, 1.0 ],
					"destination" : [ "obj-64", 1 ],
					"source" : [ "obj-107", 0 ]
				}

			}
, 			{
				"patchline" : 				{
					"destination" : [ "obj-103", 0 ],
					"source" : [ "obj-109", 1 ]
				}

			}
, 			{
				"patchline" : 				{
					"destination" : [ "obj-103", 0 ],
					"source" : [ "obj-109", 0 ]
				}

			}
, 			{
				"patchline" : 				{
					"destination" : [ "obj-120", 0 ],
					"source" : [ "obj-110", 0 ]
				}

			}
, 			{
				"patchline" : 				{
					"destination" : [ "obj-110", 0 ],
					"source" : [ "obj-113", 0 ]
				}

			}
, 			{
				"patchline" : 				{
					"destination" : [ "obj-117", 0 ],
					"source" : [ "obj-115", 0 ]
				}

			}
, 			{
				"patchline" : 				{
					"destination" : [ "obj-132", 0 ],
					"source" : [ "obj-115", 3 ]
				}

			}
, 			{
				"patchline" : 				{
					"destination" : [ "obj-22", 0 ],
					"order" : 1,
					"source" : [ "obj-12", 3 ]
				}

			}
, 			{
				"patchline" : 				{
					"destination" : [ "obj-283", 0 ],
					"order" : 1,
					"source" : [ "obj-12", 0 ]
				}

			}
, 			{
				"patchline" : 				{
					"destination" : [ "obj-33", 1 ],
					"order" : 0,
					"source" : [ "obj-12", 0 ]
				}

			}
, 			{
				"patchline" : 				{
					"destination" : [ "obj-37", 0 ],
					"order" : 0,
					"source" : [ "obj-12", 3 ]
				}

			}
, 			{
				"patchline" : 				{
					"destination" : [ "obj-49", 0 ],
					"source" : [ "obj-12", 2 ]
				}

			}
, 			{
				"patchline" : 				{
					"destination" : [ "obj-106", 1 ],
					"source" : [ "obj-120", 1 ]
				}

			}
, 			{
				"patchline" : 				{
					"destination" : [ "obj-106", 0 ],
					"source" : [ "obj-120", 0 ]
				}

			}
, 			{
				"patchline" : 				{
					"destination" : [ "obj-199", 0 ],
					"source" : [ "obj-122", 0 ]
				}

			}
, 			{
				"patchline" : 				{
					"destination" : [ "obj-178", 0 ],
					"order" : 0,
					"source" : [ "obj-124", 0 ]
				}

			}
, 			{
				"patchline" : 				{
					"destination" : [ "obj-269", 0 ],
					"order" : 1,
					"source" : [ "obj-124", 0 ]
				}

			}
, 			{
				"patchline" : 				{
					"destination" : [ "obj-5", 0 ],
					"source" : [ "obj-125", 0 ]
				}

			}
, 			{
				"patchline" : 				{
					"destination" : [ "obj-5", 0 ],
					"source" : [ "obj-126", 0 ]
				}

			}
, 			{
				"patchline" : 				{
					"destination" : [ "obj-97", 1 ],
					"order" : 1,
					"source" : [ "obj-127", 0 ]
				}

			}
, 			{
				"patchline" : 				{
					"destination" : [ "obj-98", 0 ],
					"order" : 0,
					"source" : [ "obj-127", 0 ]
				}

			}
, 			{
				"patchline" : 				{
					"destination" : [ "obj-5", 0 ],
					"source" : [ "obj-13", 0 ]
				}

			}
, 			{
				"patchline" : 				{
					"destination" : [ "obj-78", 0 ],
					"source" : [ "obj-141", 0 ]
				}

			}
, 			{
				"patchline" : 				{
					"destination" : [ "obj-247", 0 ],
					"source" : [ "obj-144", 0 ]
				}

			}
, 			{
				"patchline" : 				{
					"destination" : [ "obj-166", 1 ],
					"order" : 1,
					"source" : [ "obj-159", 1 ]
				}

			}
, 			{
				"patchline" : 				{
					"destination" : [ "obj-7", 0 ],
					"order" : 0,
					"source" : [ "obj-159", 1 ]
				}

			}
, 			{
				"patchline" : 				{
					"destination" : [ "obj-159", 0 ],
					"midpoints" : [ 208.5, 1574.899960458278656, 208.5, 1574.899960458278656 ],
					"source" : [ "obj-160", 0 ]
				}

			}
, 			{
				"patchline" : 				{
					"destination" : [ "obj-153", 0 ],
					"order" : 2,
					"source" : [ "obj-161", 0 ]
				}

			}
, 			{
				"patchline" : 				{
					"destination" : [ "obj-160", 1 ],
					"order" : 1,
					"source" : [ "obj-161", 1 ]
				}

			}
, 			{
				"patchline" : 				{
					"destination" : [ "obj-160", 0 ],
					"order" : 1,
					"source" : [ "obj-161", 0 ]
				}

			}
, 			{
				"patchline" : 				{
					"destination" : [ "obj-23", 1 ],
					"order" : 0,
					"source" : [ "obj-161", 1 ]
				}

			}
, 			{
				"patchline" : 				{
					"destination" : [ "obj-23", 0 ],
					"order" : 0,
					"source" : [ "obj-161", 0 ]
				}

			}
, 			{
				"patchline" : 				{
					"destination" : [ "obj-87", 0 ],
					"source" : [ "obj-167", 0 ]
				}

			}
, 			{
				"patchline" : 				{
					"destination" : [ "obj-89", 0 ],
					"source" : [ "obj-167", 1 ]
				}

			}
, 			{
				"patchline" : 				{
					"destination" : [ "obj-92", 0 ],
					"source" : [ "obj-168", 0 ]
				}

			}
, 			{
				"patchline" : 				{
					"destination" : [ "obj-167", 0 ],
					"source" : [ "obj-169", 0 ]
				}

			}
, 			{
				"patchline" : 				{
					"destination" : [ "obj-168", 0 ],
					"source" : [ "obj-169", 1 ]
				}

			}
, 			{
				"patchline" : 				{
					"destination" : [ "obj-20", 1 ],
					"order" : 1,
					"source" : [ "obj-17", 0 ]
				}

			}
, 			{
				"patchline" : 				{
					"destination" : [ "obj-21", 0 ],
					"order" : 0,
					"source" : [ "obj-17", 0 ]
				}

			}
, 			{
				"patchline" : 				{
					"destination" : [ "obj-178", 1 ],
					"source" : [ "obj-175", 0 ]
				}

			}
, 			{
				"patchline" : 				{
					"destination" : [ "obj-24", 0 ],
					"source" : [ "obj-178", 0 ]
				}

			}
, 			{
				"patchline" : 				{
					"destination" : [ "obj-102", 0 ],
					"source" : [ "obj-199", 0 ]
				}

			}
, 			{
				"patchline" : 				{
					"destination" : [ "obj-35", 0 ],
					"source" : [ "obj-20", 0 ]
				}

			}
, 			{
				"patchline" : 				{
					"destination" : [ "obj-202", 0 ],
					"source" : [ "obj-201", 0 ]
				}

			}
, 			{
				"patchline" : 				{
					"destination" : [ "obj-203", 0 ],
					"source" : [ "obj-202", 0 ]
				}

			}
, 			{
				"patchline" : 				{
					"destination" : [ "obj-205", 0 ],
					"order" : 0,
					"source" : [ "obj-203", 0 ]
				}

			}
, 			{
				"patchline" : 				{
					"destination" : [ "obj-251", 1 ],
					"order" : 1,
					"source" : [ "obj-203", 0 ]
				}

			}
, 			{
				"patchline" : 				{
					"destination" : [ "obj-17", 0 ],
					"source" : [ "obj-22", 0 ]
				}

			}
, 			{
				"patchline" : 				{
					"destination" : [ "obj-91", 0 ],
					"source" : [ "obj-236", 0 ]
				}

			}
, 			{
				"patchline" : 				{
					"color" : [ 0.835294117647059, 0.862745098039216, 0.894117647058824, 1.0 ],
					"destination" : [ "obj-124", 0 ],
					"order" : 0,
					"source" : [ "obj-238", 1 ]
				}

			}
, 			{
				"patchline" : 				{
					"color" : [ 0.945098039215686, 0.913725490196078, 0.407843137254902, 1.0 ],
					"destination" : [ "obj-202", 1 ],
					"source" : [ "obj-238", 0 ]
				}

			}
, 			{
				"patchline" : 				{
					"color" : [ 0.835294117647059, 0.862745098039216, 0.894117647058824, 1.0 ],
					"destination" : [ "obj-36", 0 ],
					"midpoints" : [ 687.30001038312912, 1244.200018405914307, 208.70000296831131, 1244.200018405914307 ],
					"order" : 1,
					"source" : [ "obj-238", 1 ]
				}

			}
, 			{
				"patchline" : 				{
					"destination" : [ "obj-149", 0 ],
					"order" : 0,
					"source" : [ "obj-24", 0 ]
				}

			}
, 			{
				"patchline" : 				{
					"destination" : [ "obj-8", 0 ],
					"order" : 1,
					"source" : [ "obj-24", 0 ]
				}

			}
, 			{
				"patchline" : 				{
					"color" : [ 0.835294117647059, 0.858823529411765, 0.541176470588235, 1.0 ],
					"destination" : [ "obj-100", 0 ],
					"order" : 1,
					"source" : [ "obj-246", 2 ]
				}

			}
, 			{
				"patchline" : 				{
					"color" : [ 0.874509803921569, 0.250980392156863, 0.717647058823529, 1.0 ],
					"destination" : [ "obj-101", 1 ],
					"order" : 0,
					"source" : [ "obj-246", 4 ]
				}

			}
, 			{
				"patchline" : 				{
					"color" : [ 0.874509803921569, 0.250980392156863, 0.717647058823529, 1.0 ],
					"destination" : [ "obj-105", 2 ],
					"order" : 1,
					"source" : [ "obj-246", 4 ]
				}

			}
, 			{
				"patchline" : 				{
					"color" : [ 0.835294117647059, 0.858823529411765, 0.541176470588235, 1.0 ],
					"destination" : [ "obj-107", 0 ],
					"order" : 0,
					"source" : [ "obj-246", 2 ]
				}

			}
, 			{
				"patchline" : 				{
					"destination" : [ "obj-169", 0 ],
					"order" : 2,
					"source" : [ "obj-246", 0 ]
				}

			}
, 			{
				"patchline" : 				{
					"color" : [ 0.874509803921569, 0.250980392156863, 0.717647058823529, 1.0 ],
					"destination" : [ "obj-201", 1 ],
					"order" : 2,
					"source" : [ "obj-246", 4 ]
				}

			}
, 			{
				"patchline" : 				{
					"color" : [ 0.23921568627451, 0.643137254901961, 0.709803921568627, 1.0 ],
					"destination" : [ "obj-203", 1 ],
					"order" : 1,
					"source" : [ "obj-246", 3 ]
				}

			}
, 			{
				"patchline" : 				{
					"color" : [ 0.537254901960784, 0.537254901960784, 0.537254901960784, 1.0 ],
					"destination" : [ "obj-251", 0 ],
					"midpoints" : [ 614.366665661334991, 1145.800000309944153, 473.333329677581787, 1145.800000309944153, 473.333329677581787, 1032.999999046325684, 546.466673254966736, 1032.999999046325684 ],
					"order" : 0,
					"source" : [ "obj-246", 0 ]
				}

			}
, 			{
				"patchline" : 				{
					"color" : [ 0.537254901960784, 0.537254901960784, 0.537254901960784, 1.0 ],
					"destination" : [ "obj-253", 0 ],
					"order" : 1,
					"source" : [ "obj-246", 0 ]
				}

			}
, 			{
				"patchline" : 				{
					"destination" : [ "obj-74", 0 ],
					"order" : 3,
					"source" : [ "obj-246", 0 ]
				}

			}
, 			{
				"patchline" : 				{
					"color" : [ 0.23921568627451, 0.643137254901961, 0.709803921568627, 1.0 ],
					"destination" : [ "obj-90", 4 ],
					"order" : 0,
					"source" : [ "obj-246", 3 ]
				}

			}
, 			{
				"patchline" : 				{
					"color" : [ 0.403921568627451, 0.109803921568627, 0.701960784313725, 1.0 ],
					"destination" : [ "obj-90", 2 ],
					"source" : [ "obj-246", 1 ]
				}

			}
, 			{
				"patchline" : 				{
					"destination" : [ "obj-115", 0 ],
					"order" : 0,
					"source" : [ "obj-247", 0 ]
				}

			}
, 			{
				"patchline" : 				{
					"destination" : [ "obj-12", 0 ],
					"order" : 1,
					"source" : [ "obj-247", 0 ]
				}

			}
, 			{
				"patchline" : 				{
					"destination" : [ "obj-287", 1 ],
					"source" : [ "obj-247", 1 ]
				}

			}
, 			{
				"patchline" : 				{
					"color" : [ 0.764705882352941, 0.819607843137255, 0.572549019607843, 1.0 ],
					"destination" : [ "obj-64", 1 ],
					"source" : [ "obj-249", 0 ]
				}

			}
, 			{
				"patchline" : 				{
					"destination" : [ "obj-26", 1 ],
					"source" : [ "obj-25", 1 ]
				}

			}
, 			{
				"patchline" : 				{
					"destination" : [ "obj-26", 0 ],
					"source" : [ "obj-25", 0 ]
				}

			}
, 			{
				"patchline" : 				{
					"color" : [ 0.674509803921569, 0.819607843137255, 0.572549019607843, 1.0 ],
					"destination" : [ "obj-175", 1 ],
					"source" : [ "obj-250", 0 ]
				}

			}
, 			{
				"patchline" : 				{
					"destination" : [ "obj-246", 0 ],
					"order" : 1,
					"source" : [ "obj-251", 1 ]
				}

			}
, 			{
				"patchline" : 				{
					"destination" : [ "obj-260", 0 ],
					"order" : 0,
					"source" : [ "obj-251", 0 ]
				}

			}
, 			{
				"patchline" : 				{
					"destination" : [ "obj-271", 0 ],
					"order" : 1,
					"source" : [ "obj-251", 0 ]
				}

			}
, 			{
				"patchline" : 				{
					"destination" : [ "obj-273", 0 ],
					"order" : 0,
					"source" : [ "obj-251", 1 ]
				}

			}
, 			{
				"patchline" : 				{
					"color" : [ 0.874509803921569, 0.250980392156863, 0.717647058823529, 1.0 ],
					"destination" : [ "obj-101", 1 ],
					"order" : 0,
					"source" : [ "obj-260", 4 ]
				}

			}
, 			{
				"patchline" : 				{
					"color" : [ 0.874509803921569, 0.250980392156863, 0.717647058823529, 1.0 ],
					"destination" : [ "obj-105", 2 ],
					"order" : 1,
					"source" : [ "obj-260", 4 ]
				}

			}
, 			{
				"patchline" : 				{
					"destination" : [ "obj-169", 0 ],
					"order" : 2,
					"source" : [ "obj-260", 0 ]
				}

			}
, 			{
				"patchline" : 				{
					"color" : [ 0.874509803921569, 0.250980392156863, 0.717647058823529, 1.0 ],
					"destination" : [ "obj-201", 1 ],
					"order" : 2,
					"source" : [ "obj-260", 4 ]
				}

			}
, 			{
				"patchline" : 				{
					"color" : [ 0.23921568627451, 0.643137254901961, 0.709803921568627, 1.0 ],
					"destination" : [ "obj-203", 1 ],
					"order" : 1,
					"source" : [ "obj-260", 3 ]
				}

			}
, 			{
				"patchline" : 				{
					"color" : [ 0.835294117647059, 0.858823529411765, 0.541176470588235, 1.0 ],
					"destination" : [ "obj-249", 0 ],
					"order" : 0,
					"source" : [ "obj-260", 2 ]
				}

			}
, 			{
				"patchline" : 				{
					"color" : [ 0.835294117647059, 0.858823529411765, 0.541176470588235, 1.0 ],
					"destination" : [ "obj-250", 0 ],
					"order" : 1,
					"source" : [ "obj-260", 2 ]
				}

			}
, 			{
				"patchline" : 				{
					"color" : [ 0.537254901960784, 0.537254901960784, 0.537254901960784, 1.0 ],
					"destination" : [ "obj-251", 0 ],
					"midpoints" : [ 546.5, 1138.666666626930237, 486.5, 1138.666666626930237, 486.5, 1043.666666924953461, 546.466673254966736, 1043.666666924953461 ],
					"order" : 0,
					"source" : [ "obj-260", 0 ]
				}

			}
, 			{
				"patchline" : 				{
					"color" : [ 0.537254901960784, 0.537254901960784, 0.537254901960784, 1.0 ],
					"destination" : [ "obj-253", 0 ],
					"order" : 1,
					"source" : [ "obj-260", 0 ]
				}

			}
, 			{
				"patchline" : 				{
					"destination" : [ "obj-74", 0 ],
					"order" : 3,
					"source" : [ "obj-260", 0 ]
				}

			}
, 			{
				"patchline" : 				{
					"color" : [ 0.23921568627451, 0.643137254901961, 0.709803921568627, 1.0 ],
					"destination" : [ "obj-90", 4 ],
					"order" : 0,
					"source" : [ "obj-260", 3 ]
				}

			}
, 			{
				"patchline" : 				{
					"color" : [ 0.403921568627451, 0.109803921568627, 0.701960784313725, 1.0 ],
					"destination" : [ "obj-90", 2 ],
					"source" : [ "obj-260", 1 ]
				}

			}
, 			{
				"patchline" : 				{
					"color" : [ 0.843137254901961, 0.741176470588235, 0.431372549019608, 1.0 ],
					"destination" : [ "obj-100", 0 ],
					"order" : 1,
					"source" : [ "obj-274", 2 ]
				}

			}
, 			{
				"patchline" : 				{
					"color" : [ 0.843137254901961, 0.741176470588235, 0.431372549019608, 1.0 ],
					"destination" : [ "obj-101", 1 ],
					"order" : 0,
					"source" : [ "obj-274", 4 ]
				}

			}
, 			{
				"patchline" : 				{
					"color" : [ 0.843137254901961, 0.741176470588235, 0.431372549019608, 1.0 ],
					"destination" : [ "obj-105", 2 ],
					"order" : 1,
					"source" : [ "obj-274", 4 ]
				}

			}
, 			{
				"patchline" : 				{
					"color" : [ 0.843137254901961, 0.741176470588235, 0.431372549019608, 1.0 ],
					"destination" : [ "obj-107", 0 ],
					"order" : 0,
					"source" : [ "obj-274", 2 ]
				}

			}
, 			{
				"patchline" : 				{
					"color" : [ 0.843137254901961, 0.741176470588235, 0.431372549019608, 1.0 ],
					"destination" : [ "obj-115", 2 ],
					"order" : 0,
					"source" : [ "obj-274", 1 ]
				}

			}
, 			{
				"patchline" : 				{
					"color" : [ 0.843137254901961, 0.741176470588235, 0.431372549019608, 1.0 ],
					"destination" : [ "obj-12", 4 ],
					"order" : 0,
					"source" : [ "obj-274", 5 ]
				}

			}
, 			{
				"patchline" : 				{
					"color" : [ 0.843137254901961, 0.741176470588235, 0.431372549019608, 1.0 ],
					"destination" : [ "obj-12", 2 ],
					"order" : 2,
					"source" : [ "obj-274", 1 ]
				}

			}
, 			{
				"patchline" : 				{
					"color" : [ 0.843137254901961, 0.741176470588235, 0.431372549019608, 1.0 ],
					"destination" : [ "obj-169", 0 ],
					"order" : 6,
					"source" : [ "obj-274", 0 ]
				}

			}
, 			{
				"patchline" : 				{
					"color" : [ 0.843137254901961, 0.741176470588235, 0.431372549019608, 1.0 ],
					"destination" : [ "obj-201", 1 ],
					"order" : 2,
					"source" : [ "obj-274", 4 ]
				}

			}
, 			{
				"patchline" : 				{
					"color" : [ 0.843137254901961, 0.741176470588235, 0.431372549019608, 1.0 ],
					"destination" : [ "obj-203", 1 ],
					"order" : 1,
					"source" : [ "obj-274", 3 ]
				}

			}
, 			{
				"patchline" : 				{
					"color" : [ 0.843137254901961, 0.741176470588235, 0.431372549019608, 1.0 ],
					"destination" : [ "obj-22", 1 ],
					"order" : 0,
					"source" : [ "obj-274", 6 ]
				}

			}
, 			{
				"patchline" : 				{
					"color" : [ 0.843137254901961, 0.741176470588235, 0.431372549019608, 1.0 ],
					"destination" : [ "obj-251", 0 ],
					"order" : 4,
					"source" : [ "obj-274", 0 ]
				}

			}
, 			{
				"patchline" : 				{
					"color" : [ 0.843137254901961, 0.741176470588235, 0.431372549019608, 1.0 ],
					"destination" : [ "obj-253", 0 ],
					"order" : 5,
					"source" : [ "obj-274", 0 ]
				}

			}
, 			{
				"patchline" : 				{
					"color" : [ 0.843137254901961, 0.741176470588235, 0.431372549019608, 1.0 ],
					"destination" : [ "obj-287", 0 ],
					"order" : 3,
					"source" : [ "obj-274", 0 ]
				}

			}
, 			{
				"patchline" : 				{
					"color" : [ 0.843137254901961, 0.741176470588235, 0.431372549019608, 1.0 ],
					"destination" : [ "obj-29", 0 ],
					"order" : 1,
					"source" : [ "obj-274", 0 ]
				}

			}
, 			{
				"patchline" : 				{
					"color" : [ 0.843137254901961, 0.741176470588235, 0.431372549019608, 1.0 ],
					"destination" : [ "obj-31", 1 ],
					"order" : 1,
					"source" : [ "obj-274", 5 ]
				}

			}
, 			{
				"patchline" : 				{
					"color" : [ 0.843137254901961, 0.741176470588235, 0.431372549019608, 1.0 ],
					"destination" : [ "obj-316", 2 ],
					"order" : 1,
					"source" : [ "obj-274", 1 ]
				}

			}
, 			{
				"patchline" : 				{
					"color" : [ 0.843137254901961, 0.741176470588235, 0.431372549019608, 1.0 ],
					"destination" : [ "obj-334", 0 ],
					"order" : 0,
					"source" : [ "obj-274", 0 ]
				}

			}
, 			{
				"patchline" : 				{
					"destination" : [ "obj-339", 0 ],
					"order" : 2,
					"source" : [ "obj-274", 2 ]
				}

			}
, 			{
				"patchline" : 				{
					"destination" : [ "obj-340", 0 ],
					"order" : 3,
					"source" : [ "obj-274", 2 ]
				}

			}
, 			{
				"patchline" : 				{
					"color" : [ 0.843137254901961, 0.741176470588235, 0.431372549019608, 1.0 ],
					"destination" : [ "obj-35", 1 ],
					"order" : 1,
					"source" : [ "obj-274", 6 ]
				}

			}
, 			{
				"patchline" : 				{
					"color" : [ 0.843137254901961, 0.741176470588235, 0.431372549019608, 1.0 ],
					"destination" : [ "obj-52", 0 ],
					"order" : 2,
					"source" : [ "obj-274", 0 ]
				}

			}
, 			{
				"patchline" : 				{
					"color" : [ 0.843137254901961, 0.741176470588235, 0.431372549019608, 1.0 ],
					"destination" : [ "obj-74", 0 ],
					"order" : 8,
					"source" : [ "obj-274", 0 ]
				}

			}
, 			{
				"patchline" : 				{
					"color" : [ 0.843137254901961, 0.741176470588235, 0.431372549019608, 1.0 ],
					"destination" : [ "obj-87", 0 ],
					"order" : 7,
					"source" : [ "obj-274", 0 ]
				}

			}
, 			{
				"patchline" : 				{
					"color" : [ 0.843137254901961, 0.741176470588235, 0.431372549019608, 1.0 ],
					"destination" : [ "obj-90", 4 ],
					"order" : 0,
					"source" : [ "obj-274", 3 ]
				}

			}
, 			{
				"patchline" : 				{
					"color" : [ 0.843137254901961, 0.741176470588235, 0.431372549019608, 1.0 ],
					"destination" : [ "obj-90", 2 ],
					"order" : 3,
					"source" : [ "obj-274", 1 ]
				}

			}
, 			{
				"patchline" : 				{
					"destination" : [ "obj-7", 0 ],
					"source" : [ "obj-281", 0 ]
				}

			}
, 			{
				"patchline" : 				{
					"destination" : [ "obj-7", 0 ],
					"source" : [ "obj-282", 0 ]
				}

			}
, 			{
				"patchline" : 				{
					"destination" : [ "obj-316", 0 ],
					"source" : [ "obj-287", 1 ]
				}

			}
, 			{
				"patchline" : 				{
					"destination" : [ "obj-90", 0 ],
					"source" : [ "obj-287", 0 ]
				}

			}
, 			{
				"patchline" : 				{
					"destination" : [ "obj-295", 0 ],
					"source" : [ "obj-29", 0 ]
				}

			}
, 			{
				"patchline" : 				{
					"destination" : [ "obj-30", 0 ],
					"source" : [ "obj-29", 1 ]
				}

			}
, 			{
				"patchline" : 				{
					"color" : [ 0.23921568627451, 0.643137254901961, 0.709803921568627, 1.0 ],
					"destination" : [ "obj-316", 4 ],
					"order" : 0,
					"source" : [ "obj-290", 3 ]
				}

			}
, 			{
				"patchline" : 				{
					"color" : [ 0.403921568627451, 0.109803921568627, 0.701960784313725, 1.0 ],
					"destination" : [ "obj-316", 2 ],
					"source" : [ "obj-290", 1 ]
				}

			}
, 			{
				"patchline" : 				{
					"color" : [ 0.835294117647059, 0.858823529411765, 0.541176470588235, 1.0 ],
					"destination" : [ "obj-319", 0 ],
					"source" : [ "obj-290", 2 ]
				}

			}
, 			{
				"patchline" : 				{
					"color" : [ 0.23921568627451, 0.643137254901961, 0.709803921568627, 1.0 ],
					"destination" : [ "obj-325", 1 ],
					"order" : 1,
					"source" : [ "obj-290", 3 ]
				}

			}
, 			{
				"patchline" : 				{
					"destination" : [ "obj-334", 0 ],
					"midpoints" : [ 1389.500020563602448, 1036.600014567375183, 1312.20001894235611, 1036.600014567375183, 1312.20001894235611, 952.000014245510101, 1389.500020563602448, 952.000014245510101 ],
					"order" : 0,
					"source" : [ "obj-290", 0 ]
				}

			}
, 			{
				"patchline" : 				{
					"destination" : [ "obj-337", 0 ],
					"order" : 1,
					"source" : [ "obj-290", 0 ]
				}

			}
, 			{
				"patchline" : 				{
					"color" : [ 0.674509803921569, 0.819607843137255, 0.572549019607843, 1.0 ],
					"destination" : [ "obj-178", 1 ],
					"source" : [ "obj-294", 0 ]
				}

			}
, 			{
				"patchline" : 				{
					"color" : [ 0.23921568627451, 0.643137254901961, 0.709803921568627, 1.0 ],
					"destination" : [ "obj-12", 4 ],
					"order" : 0,
					"source" : [ "obj-295", 3 ]
				}

			}
, 			{
				"patchline" : 				{
					"color" : [ 0.874509803921569, 0.250980392156863, 0.717647058823529, 1.0 ],
					"destination" : [ "obj-22", 1 ],
					"order" : 0,
					"source" : [ "obj-295", 4 ]
				}

			}
, 			{
				"patchline" : 				{
					"destination" : [ "obj-287", 0 ],
					"order" : 2,
					"source" : [ "obj-295", 0 ]
				}

			}
, 			{
				"patchline" : 				{
					"destination" : [ "obj-29", 0 ],
					"midpoints" : [ 1067.100015759468079, 763.266667306423187, 943.133319407701492, 763.266667306423187, 943.133319407701492, 664.799999892711639, 1067.100015759468079, 664.799999892711639 ],
					"order" : 0,
					"source" : [ "obj-295", 0 ]
				}

			}
, 			{
				"patchline" : 				{
					"color" : [ 0.835294117647059, 0.858823529411765, 0.541176470588235, 1.0 ],
					"destination" : [ "obj-294", 0 ],
					"order" : 0,
					"source" : [ "obj-295", 2 ]
				}

			}
, 			{
				"patchline" : 				{
					"color" : [ 0.23921568627451, 0.643137254901961, 0.709803921568627, 1.0 ],
					"destination" : [ "obj-31", 1 ],
					"order" : 1,
					"source" : [ "obj-295", 3 ]
				}

			}
, 			{
				"patchline" : 				{
					"color" : [ 0.403921568627451, 0.109803921568627, 0.701960784313725, 1.0 ],
					"destination" : [ "obj-316", 2 ],
					"source" : [ "obj-295", 1 ]
				}

			}
, 			{
				"patchline" : 				{
					"color" : [ 0.874509803921569, 0.250980392156863, 0.717647058823529, 1.0 ],
					"destination" : [ "obj-35", 1 ],
					"order" : 2,
					"source" : [ "obj-295", 4 ]
				}

			}
, 			{
				"patchline" : 				{
					"color" : [ 0.874509803921569, 0.250980392156863, 0.717647058823529, 1.0 ],
					"destination" : [ "obj-46", 0 ],
					"order" : 3,
					"source" : [ "obj-295", 4 ]
				}

			}
, 			{
				"patchline" : 				{
					"color" : [ 0.23921568627451, 0.643137254901961, 0.709803921568627, 1.0 ],
					"destination" : [ "obj-47", 0 ],
					"order" : 2,
					"source" : [ "obj-295", 3 ]
				}

			}
, 			{
				"patchline" : 				{
					"destination" : [ "obj-52", 0 ],
					"order" : 1,
					"source" : [ "obj-295", 0 ]
				}

			}
, 			{
				"patchline" : 				{
					"color" : [ 0.874509803921569, 0.250980392156863, 0.717647058823529, 1.0 ],
					"destination" : [ "obj-54", 0 ],
					"order" : 1,
					"source" : [ "obj-295", 4 ]
				}

			}
, 			{
				"patchline" : 				{
					"color" : [ 0.835294117647059, 0.858823529411765, 0.541176470588235, 1.0 ],
					"destination" : [ "obj-87", 0 ],
					"order" : 1,
					"source" : [ "obj-295", 2 ]
				}

			}
, 			{
				"patchline" : 				{
					"color" : [ 0.835294117647059, 0.862745098039216, 0.894117647058824, 1.0 ],
					"destination" : [ "obj-124", 0 ],
					"order" : 0,
					"source" : [ "obj-296", 1 ]
				}

			}
, 			{
				"patchline" : 				{
					"color" : [ 0.945098039215686, 0.913725490196078, 0.407843137254902, 1.0 ],
					"destination" : [ "obj-325", 0 ],
					"source" : [ "obj-296", 0 ]
				}

			}
, 			{
				"patchline" : 				{
					"color" : [ 0.835294117647059, 0.862745098039216, 0.894117647058824, 1.0 ],
					"destination" : [ "obj-36", 0 ],
					"order" : 1,
					"source" : [ "obj-296", 1 ]
				}

			}
, 			{
				"patchline" : 				{
					"destination" : [ "obj-91", 0 ],
					"source" : [ "obj-3", 0 ]
				}

			}
, 			{
				"patchline" : 				{
					"color" : [ 0.23921568627451, 0.643137254901961, 0.709803921568627, 1.0 ],
					"destination" : [ "obj-12", 4 ],
					"order" : 0,
					"source" : [ "obj-30", 2 ]
				}

			}
, 			{
				"patchline" : 				{
					"color" : [ 0.403921568627451, 0.109803921568627, 0.701960784313725, 1.0 ],
					"destination" : [ "obj-12", 2 ],
					"midpoints" : [ 1157.233350237210516, 753.333344459533691, 1285.700007672111042, 753.333344459533691, 1285.700007672111042, 428.600006818771362, 1173.100010186433792, 428.600006818771362 ],
					"source" : [ "obj-30", 1 ]
				}

			}
, 			{
				"patchline" : 				{
					"color" : [ 0.874509803921569, 0.250980392156863, 0.717647058823529, 1.0 ],
					"destination" : [ "obj-22", 1 ],
					"order" : 0,
					"source" : [ "obj-30", 3 ]
				}

			}
, 			{
				"patchline" : 				{
					"destination" : [ "obj-29", 0 ],
					"midpoints" : [ 1143.900016903877258, 753.400000274181366, 969.133318901062012, 753.400000274181366, 969.133318901062012, 673.000000059604645, 1067.100015759468079, 673.000000059604645 ],
					"order" : 0,
					"source" : [ "obj-30", 0 ]
				}

			}
, 			{
				"patchline" : 				{
					"color" : [ 0.23921568627451, 0.643137254901961, 0.709803921568627, 1.0 ],
					"destination" : [ "obj-31", 1 ],
					"order" : 1,
					"source" : [ "obj-30", 2 ]
				}

			}
, 			{
				"patchline" : 				{
					"color" : [ 0.874509803921569, 0.250980392156863, 0.717647058823529, 1.0 ],
					"destination" : [ "obj-35", 1 ],
					"order" : 2,
					"source" : [ "obj-30", 3 ]
				}

			}
, 			{
				"patchline" : 				{
					"color" : [ 0.874509803921569, 0.250980392156863, 0.717647058823529, 1.0 ],
					"destination" : [ "obj-46", 0 ],
					"order" : 3,
					"source" : [ "obj-30", 3 ]
				}

			}
, 			{
				"patchline" : 				{
					"color" : [ 0.23921568627451, 0.643137254901961, 0.709803921568627, 1.0 ],
					"destination" : [ "obj-47", 0 ],
					"order" : 2,
					"source" : [ "obj-30", 2 ]
				}

			}
, 			{
				"patchline" : 				{
					"destination" : [ "obj-52", 0 ],
					"order" : 1,
					"source" : [ "obj-30", 0 ]
				}

			}
, 			{
				"patchline" : 				{
					"color" : [ 0.874509803921569, 0.250980392156863, 0.717647058823529, 1.0 ],
					"destination" : [ "obj-54", 0 ],
					"order" : 1,
					"source" : [ "obj-30", 3 ]
				}

			}
, 			{
				"patchline" : 				{
					"destination" : [ "obj-15", 1 ],
					"order" : 1,
					"source" : [ "obj-308", 1 ]
				}

			}
, 			{
				"patchline" : 				{
					"destination" : [ "obj-7", 0 ],
					"order" : 0,
					"source" : [ "obj-308", 1 ]
				}

			}
, 			{
				"patchline" : 				{
					"destination" : [ "obj-308", 0 ],
					"midpoints" : [ 686.633354306221008, 1487.166633248329163, 686.633354306221008, 1487.166633248329163 ],
					"source" : [ "obj-309", 0 ]
				}

			}
, 			{
				"patchline" : 				{
					"destination" : [ "obj-29", 1 ],
					"order" : 1,
					"source" : [ "obj-31", 0 ]
				}

			}
, 			{
				"patchline" : 				{
					"destination" : [ "obj-38", 0 ],
					"order" : 0,
					"source" : [ "obj-31", 0 ]
				}

			}
, 			{
				"patchline" : 				{
					"destination" : [ "obj-296", 0 ],
					"order" : 0,
					"source" : [ "obj-316", 0 ]
				}

			}
, 			{
				"patchline" : 				{
					"destination" : [ "obj-305", 0 ],
					"order" : 1,
					"source" : [ "obj-316", 0 ]
				}

			}
, 			{
				"patchline" : 				{
					"color" : [ 0.674509803921569, 0.819607843137255, 0.572549019607843, 1.0 ],
					"destination" : [ "obj-178", 1 ],
					"source" : [ "obj-319", 0 ]
				}

			}
, 			{
				"patchline" : 				{
					"destination" : [ "obj-334", 1 ],
					"source" : [ "obj-325", 0 ]
				}

			}
, 			{
				"patchline" : 				{
					"destination" : [ "obj-31", 0 ],
					"source" : [ "obj-33", 0 ]
				}

			}
, 			{
				"patchline" : 				{
					"destination" : [ "obj-290", 0 ],
					"source" : [ "obj-334", 0 ]
				}

			}
, 			{
				"patchline" : 				{
					"destination" : [ "obj-335", 0 ],
					"source" : [ "obj-334", 1 ]
				}

			}
, 			{
				"patchline" : 				{
					"destination" : [ "obj-287", 0 ],
					"order" : 2,
					"source" : [ "obj-335", 0 ]
				}

			}
, 			{
				"patchline" : 				{
					"color" : [ 0.835294117647059, 0.858823529411765, 0.541176470588235, 1.0 ],
					"destination" : [ "obj-294", 0 ],
					"order" : 0,
					"source" : [ "obj-335", 2 ]
				}

			}
, 			{
				"patchline" : 				{
					"color" : [ 0.23921568627451, 0.643137254901961, 0.709803921568627, 1.0 ],
					"destination" : [ "obj-316", 4 ],
					"order" : 0,
					"source" : [ "obj-335", 3 ]
				}

			}
, 			{
				"patchline" : 				{
					"color" : [ 0.403921568627451, 0.109803921568627, 0.701960784313725, 1.0 ],
					"destination" : [ "obj-316", 2 ],
					"order" : 0,
					"source" : [ "obj-335", 1 ]
				}

			}
, 			{
				"patchline" : 				{
					"color" : [ 0.23921568627451, 0.643137254901961, 0.709803921568627, 1.0 ],
					"destination" : [ "obj-325", 1 ],
					"order" : 1,
					"source" : [ "obj-335", 3 ]
				}

			}
, 			{
				"patchline" : 				{
					"destination" : [ "obj-334", 0 ],
					"midpoints" : [ 1528.700022637844086, 1045.400028884410858, 1298.200037002563477, 1045.400028884410858, 1298.200037002563477, 945.200014233589172, 1389.500020563602448, 945.200014233589172 ],
					"order" : 0,
					"source" : [ "obj-335", 0 ]
				}

			}
, 			{
				"patchline" : 				{
					"destination" : [ "obj-337", 0 ],
					"order" : 1,
					"source" : [ "obj-335", 0 ]
				}

			}
, 			{
				"patchline" : 				{
					"color" : [ 0.835294117647059, 0.858823529411765, 0.541176470588235, 1.0 ],
					"destination" : [ "obj-87", 0 ],
					"order" : 1,
					"source" : [ "obj-335", 2 ]
				}

			}
, 			{
				"patchline" : 				{
					"color" : [ 0.403921568627451, 0.109803921568627, 0.701960784313725, 1.0 ],
					"destination" : [ "obj-90", 2 ],
					"order" : 1,
					"source" : [ "obj-335", 1 ]
				}

			}
, 			{
				"patchline" : 				{
					"color" : [ 0.764705882352941, 0.819607843137255, 0.572549019607843, 1.0 ],
					"destination" : [ "obj-64", 1 ],
					"source" : [ "obj-339", 0 ]
				}

			}
, 			{
				"patchline" : 				{
					"color" : [ 0.674509803921569, 0.819607843137255, 0.572549019607843, 1.0 ],
					"destination" : [ "obj-175", 1 ],
					"order" : 0,
					"source" : [ "obj-340", 0 ]
				}

			}
, 			{
				"patchline" : 				{
					"color" : [ 0.674509803921569, 0.819607843137255, 0.572549019607843, 1.0 ],
					"destination" : [ "obj-178", 1 ],
					"order" : 1,
					"source" : [ "obj-340", 0 ]
				}

			}
, 			{
				"patchline" : 				{
					"destination" : [ "obj-33", 0 ],
					"source" : [ "obj-35", 0 ]
				}

			}
, 			{
				"patchline" : 				{
					"destination" : [ "obj-141", 0 ],
					"source" : [ "obj-36", 0 ]
				}

			}
, 			{
				"patchline" : 				{
					"destination" : [ "obj-5", 0 ],
					"source" : [ "obj-39", 0 ]
				}

			}
, 			{
				"patchline" : 				{
					"destination" : [ "obj-84", 1 ],
					"source" : [ "obj-4", 0 ]
				}

			}
, 			{
				"patchline" : 				{
					"destination" : [ "obj-97", 0 ],
					"source" : [ "obj-48", 0 ]
				}

			}
, 			{
				"patchline" : 				{
					"destination" : [ "obj-20", 0 ],
					"source" : [ "obj-49", 0 ]
				}

			}
, 			{
				"patchline" : 				{
					"destination" : [ "obj-11", 1 ],
					"source" : [ "obj-5", 5 ]
				}

			}
, 			{
				"patchline" : 				{
					"destination" : [ "obj-7", 0 ],
					"source" : [ "obj-50", 0 ]
				}

			}
, 			{
				"patchline" : 				{
					"destination" : [ "obj-122", 0 ],
					"order" : 0,
					"source" : [ "obj-57", 0 ]
				}

			}
, 			{
				"patchline" : 				{
					"destination" : [ "obj-156", 1 ],
					"order" : 2,
					"source" : [ "obj-57", 0 ]
				}

			}
, 			{
				"patchline" : 				{
					"destination" : [ "obj-161", 0 ],
					"order" : 1,
					"source" : [ "obj-57", 0 ]
				}

			}
, 			{
				"patchline" : 				{
					"destination" : [ "obj-84", 1 ],
					"source" : [ "obj-6", 0 ]
				}

			}
, 			{
				"patchline" : 				{
					"destination" : [ "obj-5", 0 ],
					"source" : [ "obj-63", 0 ]
				}

			}
, 			{
				"patchline" : 				{
					"destination" : [ "obj-178", 1 ],
					"source" : [ "obj-64", 0 ]
				}

			}
, 			{
				"patchline" : 				{
					"destination" : [ "obj-25", 1 ],
					"source" : [ "obj-7", 1 ]
				}

			}
, 			{
				"patchline" : 				{
					"destination" : [ "obj-25", 0 ],
					"source" : [ "obj-7", 0 ]
				}

			}
, 			{
				"patchline" : 				{
					"destination" : [ "obj-126", 0 ],
					"source" : [ "obj-75", 0 ]
				}

			}
, 			{
				"patchline" : 				{
					"destination" : [ "obj-75", 0 ],
					"source" : [ "obj-77", 0 ]
				}

			}
, 			{
				"patchline" : 				{
					"destination" : [ "obj-57", 0 ],
					"source" : [ "obj-78", 0 ]
				}

			}
, 			{
				"patchline" : 				{
					"destination" : [ "obj-75", 1 ],
					"source" : [ "obj-79", 0 ]
				}

			}
, 			{
				"patchline" : 				{
					"destination" : [ "obj-19", 1 ],
					"order" : 2,
					"source" : [ "obj-8", 0 ]
				}

			}
, 			{
				"patchline" : 				{
					"destination" : [ "obj-23", 1 ],
					"order" : 0,
					"source" : [ "obj-8", 1 ]
				}

			}
, 			{
				"patchline" : 				{
					"destination" : [ "obj-23", 0 ],
					"order" : 0,
					"source" : [ "obj-8", 0 ]
				}

			}
, 			{
				"patchline" : 				{
					"destination" : [ "obj-309", 1 ],
					"order" : 1,
					"source" : [ "obj-8", 1 ]
				}

			}
, 			{
				"patchline" : 				{
					"destination" : [ "obj-309", 0 ],
					"order" : 1,
					"source" : [ "obj-8", 0 ]
				}

			}
, 			{
				"patchline" : 				{
					"destination" : [ "obj-42", 0 ],
					"order" : 3,
					"source" : [ "obj-8", 0 ]
				}

			}
, 			{
				"patchline" : 				{
					"destination" : [ "obj-247", 0 ],
					"source" : [ "obj-84", 0 ]
				}

			}
, 			{
				"patchline" : 				{
					"destination" : [ "obj-274", 0 ],
					"source" : [ "obj-86", 0 ]
				}

			}
, 			{
				"patchline" : 				{
					"destination" : [ "obj-141", 1 ],
					"source" : [ "obj-87", 0 ]
				}

			}
, 			{
				"patchline" : 				{
					"destination" : [ "obj-161", 2 ],
					"source" : [ "obj-88", 1 ]
				}

			}
, 			{
				"patchline" : 				{
					"destination" : [ "obj-141", 1 ],
					"source" : [ "obj-89", 0 ]
				}

			}
, 			{
				"patchline" : 				{
					"destination" : [ "obj-101", 0 ],
					"source" : [ "obj-90", 3 ]
				}

			}
, 			{
				"patchline" : 				{
					"destination" : [ "obj-131", 0 ],
					"order" : 1,
					"source" : [ "obj-90", 0 ]
				}

			}
, 			{
				"patchline" : 				{
					"destination" : [ "obj-238", 0 ],
					"order" : 0,
					"source" : [ "obj-90", 0 ]
				}

			}
, 			{
				"patchline" : 				{
					"destination" : [ "obj-48", 0 ],
					"source" : [ "obj-90", 2 ]
				}

			}
, 			{
				"patchline" : 				{
					"destination" : [ "obj-141", 1 ],
					"source" : [ "obj-92", 0 ]
				}

			}
, 			{
				"patchline" : 				{
					"destination" : [ "obj-106", 0 ],
					"order" : 2,
					"source" : [ "obj-94", 0 ]
				}

			}
, 			{
				"patchline" : 				{
					"destination" : [ "obj-24", 1 ],
					"order" : 1,
					"source" : [ "obj-94", 0 ]
				}

			}
, 			{
				"patchline" : 				{
					"destination" : [ "obj-95", 0 ],
					"order" : 0,
					"source" : [ "obj-94", 0 ]
				}

			}
, 			{
				"patchline" : 				{
					"destination" : [ "obj-105", 0 ],
					"order" : 0,
					"source" : [ "obj-97", 0 ]
				}

			}
, 			{
				"patchline" : 				{
					"destination" : [ "obj-169", 1 ],
					"order" : 2,
					"source" : [ "obj-97", 0 ]
				}

			}
, 			{
				"patchline" : 				{
					"color" : [ 0.945098039215686, 0.913725490196078, 0.407843137254902, 1.0 ],
					"destination" : [ "obj-201", 0 ],
					"order" : 1,
					"source" : [ "obj-97", 0 ]
				}

			}
, 			{
				"patchline" : 				{
					"destination" : [ "obj-274", 0 ],
					"source" : [ "obj-99", 0 ]
				}

			}
 ],
		"originid" : "pat-6",
		"parameters" : 		{
			"obj-25" : [ "live.gain~", "live.gain~", 0 ],
			"obj-7" : [ "vst~", "vst~", 0 ],
			"parameterbanks" : 			{
				"0" : 				{
					"index" : 0,
					"name" : "",
					"parameters" : [ "-", "-", "-", "-", "-", "-", "-", "-" ]
				}

			}
,
			"inherited_shortname" : 1
		}
,
		"dependency_cache" : [ 			{
				"name" : "MetaPiano.maxsnap",
				"bootpath" : "~/Documents/Max 9/Snapshots",
				"type" : "mx@s",
				"implicit" : 1
			}
, 			{
				"name" : "Tigran Example.png",
				"bootpath" : "D:/PROYECTOS/Max-Msp/Propios/MaxMsp-Patches/MIDI/TigranHamasyan_Entertain_Me/Images",
				"patcherrelativepath" : "./Images",
				"type" : "PNG",
				"implicit" : 1
			}
, 			{
				"name" : "Time signatures.png",
				"bootpath" : "D:/PROYECTOS/Max-Msp/Propios/MaxMsp-Patches/MIDI/TigranHamasyan_Entertain_Me/Images",
				"patcherrelativepath" : "./Images",
				"type" : "PNG",
				"implicit" : 1
			}
 ],
		"autosave" : 0
	}

}
