{
	"patcher" : 	{
		"fileversion" : 1,
		"appversion" : 		{
			"major" : 9,
			"minor" : 0,
			"revision" : 1,
			"architecture" : "x64",
			"modernui" : 1
		}
,
		"classnamespace" : "box",
		"rect" : [ 34.0, 77.0, 1510.0, 969.0 ],
		"gridsize" : [ 15.0, 15.0 ],
		"boxes" : [ 			{
				"box" : 				{
					"id" : "obj-94",
					"maxclass" : "number",
					"numinlets" : 1,
					"numoutlets" : 2,
					"outlettype" : [ "", "bang" ],
					"parameter_enable" : 0,
					"patching_rect" : [ 304.000009059906006, 579.0, 50.0, 22.0 ]
				}

			}
, 			{
				"box" : 				{
					"id" : "obj-86",
					"maxclass" : "newobj",
					"numinlets" : 1,
					"numoutlets" : 1,
					"outlettype" : [ "" ],
					"patching_rect" : [ 254.250007033348083, 365.333346784114838, 89.0, 22.0 ],
					"text" : "loadmess set 0"
				}

			}
, 			{
				"box" : 				{
					"id" : "obj-83",
					"maxclass" : "button",
					"numinlets" : 1,
					"numoutlets" : 1,
					"outlettype" : [ "bang" ],
					"parameter_enable" : 0,
					"patching_rect" : [ 371.0, 608.0, 24.0, 24.0 ]
				}

			}
, 			{
				"box" : 				{
					"fontname" : "Arial",
					"fontsize" : 25.0,
					"id" : "obj-78",
					"maxclass" : "comment",
					"numinlets" : 1,
					"numoutlets" : 0,
					"patching_rect" : [ 830.583346843719482, 624.0, 29.0, 35.0 ],
					"style" : "helpfile_label",
					"text" : "D"
				}

			}
, 			{
				"box" : 				{
					"fontname" : "Arial",
					"fontsize" : 25.0,
					"id" : "obj-76",
					"maxclass" : "comment",
					"numinlets" : 1,
					"numoutlets" : 0,
					"patching_rect" : [ 830.583346843719482, 573.0, 29.0, 35.0 ],
					"style" : "helpfile_label",
					"text" : "C"
				}

			}
, 			{
				"box" : 				{
					"fontname" : "Arial",
					"fontsize" : 25.0,
					"id" : "obj-74",
					"maxclass" : "comment",
					"numinlets" : 1,
					"numoutlets" : 0,
					"patching_rect" : [ 830.5, 524.000015616416931, 29.0, 35.0 ],
					"style" : "helpfile_label",
					"text" : "B"
				}

			}
, 			{
				"box" : 				{
					"fontname" : "Arial",
					"fontsize" : 25.0,
					"id" : "obj-73",
					"maxclass" : "comment",
					"numinlets" : 1,
					"numoutlets" : 0,
					"patching_rect" : [ 830.5, 463.333346784114838, 29.0, 35.0 ],
					"style" : "helpfile_label",
					"text" : "A"
				}

			}
, 			{
				"box" : 				{
					"fontname" : "Arial",
					"fontsize" : 25.0,
					"id" : "obj-72",
					"maxclass" : "comment",
					"numinlets" : 1,
					"numoutlets" : 0,
					"patching_rect" : [ 793.5, 411.333346784114838, 103.0, 35.0 ],
					"presentation_linecount" : 2,
					"style" : "helpfile_label",
					"text" : "LEVELS"
				}

			}
, 			{
				"box" : 				{
					"fontsize" : 25.0,
					"id" : "obj-71",
					"maxclass" : "comment",
					"numinlets" : 1,
					"numoutlets" : 0,
					"patching_rect" : [ 1785.0, 170.0, 103.0, 35.0 ],
					"presentation_linecount" : 6,
					"text" : "LEVELS",
					"textcolor" : [ 0.0, 0.0, 0.0, 1.0 ]
				}

			}
, 			{
				"box" : 				{
					"fontsize" : 25.0,
					"id" : "obj-70",
					"maxclass" : "comment",
					"numinlets" : 1,
					"numoutlets" : 0,
					"patching_rect" : [ 1576.0, 432.0, 29.0, 35.0 ],
					"text" : "D",
					"textcolor" : [ 0.0, 0.0, 0.0, 1.0 ]
				}

			}
, 			{
				"box" : 				{
					"fontsize" : 25.0,
					"id" : "obj-69",
					"maxclass" : "comment",
					"numinlets" : 1,
					"numoutlets" : 0,
					"patching_rect" : [ 1618.0, 354.0, 29.0, 35.0 ],
					"text" : "C",
					"textcolor" : [ 0.0, 0.0, 0.0, 1.0 ]
				}

			}
, 			{
				"box" : 				{
					"fontsize" : 25.0,
					"id" : "obj-68",
					"maxclass" : "comment",
					"numinlets" : 1,
					"numoutlets" : 0,
					"patching_rect" : [ 1776.0, 280.0, 29.0, 35.0 ],
					"text" : "B",
					"textcolor" : [ 0.0, 0.0, 0.0, 1.0 ]
				}

			}
, 			{
				"box" : 				{
					"fontsize" : 25.0,
					"id" : "obj-67",
					"maxclass" : "comment",
					"numinlets" : 1,
					"numoutlets" : 0,
					"patching_rect" : [ 1941.0, 205.333339810371399, 29.0, 35.0 ],
					"text" : "A",
					"textcolor" : [ 0.0, 0.0, 0.0, 1.0 ]
				}

			}
, 			{
				"box" : 				{
					"bubble" : 1,
					"fontname" : "Arial",
					"fontsize" : 13.0,
					"id" : "obj-62",
					"maxclass" : "comment",
					"numinlets" : 1,
					"numoutlets" : 0,
					"patching_rect" : [ 1284.0, 451.333346784114838, 64.0, 25.0 ],
					"style" : "helpfile_label",
					"text" : "Debug"
				}

			}
, 			{
				"box" : 				{
					"id" : "obj-60",
					"maxclass" : "newobj",
					"numinlets" : 2,
					"numoutlets" : 2,
					"outlettype" : [ "", "" ],
					"patching_rect" : [ 1060.666698276996613, 716.00002133846283, 41.0, 22.0 ],
					"text" : "buddy"
				}

			}
, 			{
				"box" : 				{
					"id" : "obj-59",
					"maxclass" : "newobj",
					"numinlets" : 1,
					"numoutlets" : 2,
					"outlettype" : [ "bang", "bang" ],
					"patching_rect" : [ 487.916681230068207, 495.333348095417023, 80.666669070720673, 22.0 ],
					"text" : "t b b"
				}

			}
, 			{
				"box" : 				{
					"id" : "obj-58",
					"maxclass" : "newobj",
					"numinlets" : 1,
					"numoutlets" : 2,
					"outlettype" : [ "bang", "bang" ],
					"patching_rect" : [ 382.250010848045349, 495.333348095417023, 89.333335995674133, 22.0 ],
					"text" : "t b b"
				}

			}
, 			{
				"box" : 				{
					"id" : "obj-56",
					"maxclass" : "newobj",
					"numinlets" : 2,
					"numoutlets" : 1,
					"outlettype" : [ "int" ],
					"patching_rect" : [ 673.0, 624.0, 29.5, 22.0 ],
					"text" : "% 5"
				}

			}
, 			{
				"box" : 				{
					"format" : 6,
					"id" : "obj-57",
					"maxclass" : "flonum",
					"numinlets" : 1,
					"numoutlets" : 2,
					"outlettype" : [ "", "bang" ],
					"parameter_enable" : 0,
					"patching_rect" : [ 708.0, 624.0, 50.0, 22.0 ]
				}

			}
, 			{
				"box" : 				{
					"id" : "obj-55",
					"maxclass" : "newobj",
					"numinlets" : 2,
					"numoutlets" : 1,
					"outlettype" : [ "int" ],
					"patching_rect" : [ 341.250010848045349, 443.333346784114838, 29.5, 22.0 ],
					"text" : "- 1"
				}

			}
, 			{
				"box" : 				{
					"disabled" : [ 0, 0 ],
					"id" : "obj-54",
					"itemtype" : 0,
					"maxclass" : "radiogroup",
					"numinlets" : 1,
					"numoutlets" : 1,
					"offset" : 22,
					"outlettype" : [ "" ],
					"parameter_enable" : 0,
					"patching_rect" : [ 341.250010848045349, 471.333346784114838, 18.0, 46.0 ],
					"size" : 2,
					"value" : 0
				}

			}
, 			{
				"box" : 				{
					"id" : "obj-52",
					"maxclass" : "message",
					"numinlets" : 2,
					"numoutlets" : 1,
					"outlettype" : [ "" ],
					"patching_rect" : [ 424.0, 400.333346784114838, 29.5, 22.0 ],
					"text" : "2"
				}

			}
, 			{
				"box" : 				{
					"id" : "obj-49",
					"maxclass" : "message",
					"numinlets" : 2,
					"numoutlets" : 1,
					"outlettype" : [ "" ],
					"patching_rect" : [ 382.250010848045349, 400.333346784114838, 29.5, 22.0 ],
					"text" : "1"
				}

			}
, 			{
				"box" : 				{
					"id" : "obj-45",
					"maxclass" : "newobj",
					"numinlets" : 2,
					"numoutlets" : 2,
					"outlettype" : [ "", "" ],
					"patching_rect" : [ 382.250010848045349, 463.333346784114838, 124.666670382022858, 22.0 ],
					"text" : "gate 2"
				}

			}
, 			{
				"box" : 				{
					"id" : "obj-37",
					"maxclass" : "newobj",
					"numinlets" : 5,
					"numoutlets" : 4,
					"outlettype" : [ "int", "", "", "int" ],
					"patching_rect" : [ 487.916681230068207, 541.600008070468903, 65.0, 22.0 ],
					"text" : "counter 14"
				}

			}
, 			{
				"box" : 				{
					"id" : "obj-38",
					"maxclass" : "newobj",
					"numinlets" : 5,
					"numoutlets" : 4,
					"outlettype" : [ "int", "", "", "int" ],
					"patching_rect" : [ 630.583346843719482, 579.0, 61.0, 22.0 ],
					"text" : "counter 2"
				}

			}
, 			{
				"box" : 				{
					"id" : "obj-36",
					"maxclass" : "message",
					"numinlets" : 2,
					"numoutlets" : 1,
					"outlettype" : [ "" ],
					"patching_rect" : [ 1270.0, 415.333346784114838, 29.5, 22.0 ],
					"text" : "15"
				}

			}
, 			{
				"box" : 				{
					"id" : "obj-35",
					"maxclass" : "button",
					"numinlets" : 1,
					"numoutlets" : 1,
					"outlettype" : [ "bang" ],
					"parameter_enable" : 0,
					"patching_rect" : [ 1189.0, 413.333346784114838, 24.0, 24.0 ]
				}

			}
, 			{
				"box" : 				{
					"id" : "obj-29",
					"maxclass" : "message",
					"numinlets" : 2,
					"numoutlets" : 1,
					"outlettype" : [ "" ],
					"patching_rect" : [ 1235.0, 414.333346784114838, 29.5, 22.0 ],
					"text" : "5"
				}

			}
, 			{
				"box" : 				{
					"id" : "obj-22",
					"maxclass" : "number",
					"numinlets" : 1,
					"numoutlets" : 2,
					"outlettype" : [ "", "bang" ],
					"parameter_enable" : 0,
					"patching_rect" : [ 1189.0, 490.0, 50.0, 22.0 ]
				}

			}
, 			{
				"box" : 				{
					"id" : "obj-158",
					"maxclass" : "newobj",
					"numinlets" : 5,
					"numoutlets" : 4,
					"outlettype" : [ "int", "", "", "int" ],
					"patching_rect" : [ 598.583346843719482, 463.333346784114838, 72.0, 22.0 ],
					"text" : "counter 255"
				}

			}
, 			{
				"box" : 				{
					"id" : "obj-157",
					"maxclass" : "newobj",
					"numinlets" : 5,
					"numoutlets" : 4,
					"outlettype" : [ "int", "", "", "int" ],
					"patching_rect" : [ 1189.0, 451.333346784114838, 65.0, 22.0 ],
					"text" : "counter 14"
				}

			}
, 			{
				"box" : 				{
					"id" : "obj-156",
					"maxclass" : "newobj",
					"numinlets" : 5,
					"numoutlets" : 4,
					"outlettype" : [ "int", "", "", "int" ],
					"patching_rect" : [ 382.400005698204041, 541.600008070468903, 65.0, 22.0 ],
					"text" : "counter 19"
				}

			}
, 			{
				"box" : 				{
					"id" : "obj-127",
					"maxclass" : "button",
					"numinlets" : 1,
					"numoutlets" : 1,
					"outlettype" : [ "bang" ],
					"parameter_enable" : 0,
					"patching_rect" : [ 796.983353197574615, 673.266676664352417, 24.0, 24.0 ]
				}

			}
, 			{
				"box" : 				{
					"id" : "obj-128",
					"maxclass" : "button",
					"numinlets" : 1,
					"numoutlets" : 1,
					"outlettype" : [ "bang" ],
					"parameter_enable" : 0,
					"patching_rect" : [ 819.183357536792755, 700.666687548160553, 24.0, 24.0 ]
				}

			}
, 			{
				"box" : 				{
					"id" : "obj-129",
					"maxclass" : "newobj",
					"numinlets" : 1,
					"numoutlets" : 1,
					"outlettype" : [ "" ],
					"patching_rect" : [ 695.183353841304779, 702.000020921230316, 118.0, 22.0 ],
					"text" : "if $i1 == 4 then bang"
				}

			}
, 			{
				"box" : 				{
					"id" : "obj-130",
					"maxclass" : "newobj",
					"numinlets" : 1,
					"numoutlets" : 1,
					"outlettype" : [ "" ],
					"patching_rect" : [ 672.983349502086639, 674.60001003742218, 118.0, 22.0 ],
					"text" : "if $i1 == 0 then bang"
				}

			}
, 			{
				"box" : 				{
					"id" : "obj-124",
					"maxclass" : "button",
					"numinlets" : 1,
					"numoutlets" : 1,
					"outlettype" : [ "bang" ],
					"parameter_enable" : 0,
					"patching_rect" : [ 628.583349466323853, 673.60001003742218, 24.0, 24.0 ]
				}

			}
, 			{
				"box" : 				{
					"id" : "obj-122",
					"maxclass" : "button",
					"numinlets" : 1,
					"numoutlets" : 1,
					"outlettype" : [ "bang" ],
					"parameter_enable" : 0,
					"patching_rect" : [ 651.183352530002594, 701.333354234695435, 24.0, 24.0 ]
				}

			}
, 			{
				"box" : 				{
					"id" : "obj-117",
					"maxclass" : "newobj",
					"numinlets" : 1,
					"numoutlets" : 1,
					"outlettype" : [ "" ],
					"patching_rect" : [ 527.183348834514618, 702.666687607765198, 118.0, 22.0 ],
					"text" : "if $i1 == 3 then bang"
				}

			}
, 			{
				"box" : 				{
					"id" : "obj-110",
					"maxclass" : "newobj",
					"numinlets" : 1,
					"numoutlets" : 1,
					"outlettype" : [ "" ],
					"patching_rect" : [ 504.583347618579865, 674.400010049343109, 118.0, 22.0 ],
					"text" : "if $i1 == 0 then bang"
				}

			}
, 			{
				"box" : 				{
					"id" : "obj-108",
					"maxclass" : "newobj",
					"numinlets" : 2,
					"numoutlets" : 1,
					"outlettype" : [ "int" ],
					"patching_rect" : [ 505.0, 624.0, 29.5, 22.0 ],
					"text" : "% 4"
				}

			}
, 			{
				"box" : 				{
					"forceaspect" : 1,
					"id" : "obj-91",
					"maxclass" : "fpic",
					"numinlets" : 1,
					"numoutlets" : 1,
					"outlettype" : [ "jit_matrix" ],
					"patching_rect" : [ 1516.0, 771.0, 1317.333417773246765, 320.83765334234613 ],
					"pic" : "D:/PROYECTOS/Max-Msp/Propios/MaxMsp-Patches/MIDI/TigranHamasyan_Entertain_Me/Images/Time signatures.png"
				}

			}
, 			{
				"box" : 				{
					"id" : "obj-16",
					"maxclass" : "newobj",
					"numinlets" : 1,
					"numoutlets" : 1,
					"outlettype" : [ "bang" ],
					"patching_rect" : [ 382.250010848045349, 365.333346784114838, 58.0, 22.0 ],
					"text" : "loadbang"
				}

			}
, 			{
				"box" : 				{
					"format" : 6,
					"id" : "obj-14",
					"maxclass" : "flonum",
					"numinlets" : 1,
					"numoutlets" : 2,
					"outlettype" : [ "", "bang" ],
					"parameter_enable" : 0,
					"patching_rect" : [ 540.0, 624.0, 50.0, 22.0 ]
				}

			}
, 			{
				"box" : 				{
					"id" : "obj-13",
					"maxclass" : "newobj",
					"numinlets" : 1,
					"numoutlets" : 1,
					"outlettype" : [ "" ],
					"patching_rect" : [ 822.0, 142.666670918464661, 120.0, 22.0 ],
					"text" : "loadmess tempo 130"
				}

			}
, 			{
				"box" : 				{
					"autofit" : 1,
					"id" : "obj-2",
					"maxclass" : "fpic",
					"numinlets" : 1,
					"numoutlets" : 1,
					"outlettype" : [ "jit_matrix" ],
					"patching_rect" : [ 1516.00004518032074, 86.666669249534607, 1317.333372592926025, 632.000018835067749 ],
					"pic" : "D:/PROYECTOS/Max-Msp/Propios/MaxMsp-Patches/MIDI/TigranHamasyan_Entertain_Me/Images/Tigran Example.png"
				}

			}
, 			{
				"box" : 				{
					"id" : "obj-3",
					"maxclass" : "message",
					"numinlets" : 2,
					"numoutlets" : 1,
					"outlettype" : [ "" ],
					"patching_rect" : [ 1516.0, 730.0, 683.0, 22.0 ],
					"text" : "read \"D:/PROYECTOS/Max-Msp/Propios/MaxMsp-Patches/MIDI/TigranHamasyan_Entertain_Me/Images/Time signatures.png\""
				}

			}
, 			{
				"box" : 				{
					"id" : "obj-1",
					"maxclass" : "message",
					"numinlets" : 2,
					"numoutlets" : 1,
					"outlettype" : [ "" ],
					"patching_rect" : [ 1516.00004518032074, 57.333335041999817, 681.0, 22.0 ],
					"text" : "read \"D:/PROYECTOS/Max-Msp/Propios/MaxMsp-Patches/MIDI/TigranHamasyan_Entertain_Me/Images/Tigran Example.png\""
				}

			}
, 			{
				"box" : 				{
					"fontname" : "Arial",
					"fontsize" : 13.0,
					"id" : "obj-107",
					"maxclass" : "message",
					"numinlets" : 2,
					"numoutlets" : 1,
					"outlettype" : [ "" ],
					"patching_rect" : [ 716.983350813388824, 779.200011610984802, 37.0, 23.0 ],
					"text" : "6 2 4"
				}

			}
, 			{
				"box" : 				{
					"fontname" : "Arial",
					"fontsize" : 13.0,
					"id" : "obj-100",
					"maxclass" : "message",
					"numinlets" : 2,
					"numoutlets" : 1,
					"outlettype" : [ "" ],
					"patching_rect" : [ 672.983349502086639, 779.200011610984802, 37.0, 23.0 ],
					"text" : "9 2 4"
				}

			}
, 			{
				"box" : 				{
					"bgcolor" : [ 0.47843137254902, 0.850980392156863, 0.494117647058824, 1.0 ],
					"id" : "obj-99",
					"maxclass" : "button",
					"numinlets" : 1,
					"numoutlets" : 1,
					"outlettype" : [ "bang" ],
					"parameter_enable" : 0,
					"patching_rect" : [ 254.000007569789886, 279.333341658115387, 70.0, 70.0 ]
				}

			}
, 			{
				"box" : 				{
					"id" : "obj-93",
					"maxclass" : "button",
					"numinlets" : 1,
					"numoutlets" : 1,
					"outlettype" : [ "bang" ],
					"parameter_enable" : 0,
					"patching_rect" : [ 547.583346843719482, 578.0, 24.0, 24.0 ]
				}

			}
, 			{
				"box" : 				{
					"fontname" : "Arial",
					"fontsize" : 13.0,
					"id" : "obj-64",
					"maxclass" : "message",
					"numinlets" : 2,
					"numoutlets" : 1,
					"outlettype" : [ "" ],
					"patching_rect" : [ 586.183348834514618, 779.200011610984802, 59.0, 23.0 ],
					"text" : "7 2 4 7 0"
				}

			}
, 			{
				"box" : 				{
					"id" : "obj-51",
					"maxclass" : "comment",
					"numinlets" : 1,
					"numoutlets" : 0,
					"patching_rect" : [ 760.000022649765015, 780.700011610984802, 149.0, 20.0 ],
					"text" : "Intervals (chromatic scale)"
				}

			}
, 			{
				"box" : 				{
					"format" : 5,
					"id" : "obj-42",
					"maxclass" : "number",
					"numinlets" : 1,
					"numoutlets" : 2,
					"outlettype" : [ "", "bang" ],
					"parameter_enable" : 0,
					"patching_rect" : [ 384.583345830440521, 955.200014233589172, 50.0, 22.0 ]
				}

			}
, 			{
				"box" : 				{
					"id" : "obj-34",
					"maxclass" : "comment",
					"numinlets" : 1,
					"numoutlets" : 0,
					"patching_rect" : [ 390.183345913887024, 869.600012958049774, 39.0, 20.0 ],
					"text" : "Scale"
				}

			}
, 			{
				"box" : 				{
					"bubble" : 1,
					"bubbleside" : 3,
					"fontname" : "Arial",
					"fontsize" : 19.045481481481485,
					"id" : "obj-32",
					"linecount" : 2,
					"maxclass" : "comment",
					"numinlets" : 1,
					"numoutlets" : 0,
					"patching_rect" : [ 1185.33336865901947, 316.000009417533875, 292.0, 54.0 ],
					"style" : "helpfile_label",
					"text" : "Drag and Drop images in path:\nProjectPath\\Images"
				}

			}
, 			{
				"box" : 				{
					"bubble" : 1,
					"fontname" : "Arial",
					"fontsize" : 13.0,
					"id" : "obj-28",
					"maxclass" : "comment",
					"numinlets" : 1,
					"numoutlets" : 0,
					"patching_rect" : [ 565.250010848045349, 416.333346784114838, 137.0, 25.0 ],
					"style" : "helpfile_label",
					"text" : "Current subdivision"
				}

			}
, 			{
				"box" : 				{
					"id" : "obj-26",
					"maxclass" : "ezdac~",
					"numinlets" : 2,
					"numoutlets" : 0,
					"patching_rect" : [ 95.783341526985168, 1472.000021934509277, 316.666671872138977, 316.666671872138977 ]
				}

			}
, 			{
				"box" : 				{
					"id" : "obj-25",
					"lastchannelcount" : 0,
					"maxclass" : "live.gain~",
					"numinlets" : 2,
					"numoutlets" : 5,
					"outlettype" : [ "signal", "signal", "", "float", "list" ],
					"parameter_enable" : 1,
					"patching_rect" : [ 546.983348250389099, 1292.800019264221191, 88.0, 135.0 ],
					"saved_attribute_attributes" : 					{
						"valueof" : 						{
							"parameter_longname" : "live.gain~",
							"parameter_mmax" : 6.0,
							"parameter_mmin" : -70.0,
							"parameter_modmode" : 3,
							"parameter_osc_name" : "<default>",
							"parameter_shortname" : "live.gain~",
							"parameter_type" : 0,
							"parameter_unitstyle" : 4
						}

					}
,
					"varname" : "live.gain~"
				}

			}
, 			{
				"box" : 				{
					"id" : "obj-24",
					"maxclass" : "newobj",
					"numinlets" : 2,
					"numoutlets" : 1,
					"outlettype" : [ "int" ],
					"patching_rect" : [ 452.583346843719482, 868.800012946128845, 32.0, 22.0 ],
					"text" : "+ 57"
				}

			}
, 			{
				"box" : 				{
					"id" : "obj-23",
					"maxclass" : "kslider",
					"numinlets" : 2,
					"numoutlets" : 2,
					"outlettype" : [ "int", "int" ],
					"parameter_enable" : 0,
					"patching_rect" : [ 630.983349502086639, 949.60001415014267, 672.0, 53.0 ],
					"range" : 96
				}

			}
, 			{
				"box" : 				{
					"fontname" : "Arial",
					"fontsize" : 13.0,
					"id" : "obj-281",
					"maxclass" : "message",
					"numinlets" : 2,
					"numoutlets" : 1,
					"outlettype" : [ "" ],
					"patching_rect" : [ 357.383345425128937, 1147.200017094612122, 70.0, 23.0 ],
					"text" : "open"
				}

			}
, 			{
				"box" : 				{
					"fontname" : "Arial",
					"fontsize" : 13.0,
					"id" : "obj-282",
					"maxclass" : "message",
					"numinlets" : 2,
					"numoutlets" : 1,
					"outlettype" : [ "" ],
					"patching_rect" : [ 261.383343994617462, 1147.200017094612122, 70.0, 23.0 ],
					"text" : "plug"
				}

			}
, 			{
				"box" : 				{
					"id" : "obj-19",
					"maxclass" : "message",
					"numinlets" : 2,
					"numoutlets" : 1,
					"outlettype" : [ "" ],
					"patching_rect" : [ 390.183345913887024, 908.800013542175293, 50.0, 22.0 ],
					"text" : "61"
				}

			}
, 			{
				"box" : 				{
					"id" : "obj-50",
					"maxclass" : "newobj",
					"numinlets" : 1,
					"numoutlets" : 1,
					"outlettype" : [ "" ],
					"patching_rect" : [ 669.383350074291229, 1140.80001699924469, 433.0, 22.0 ],
					"text" : "loadmess plug_vst \"C:/Program Files/Common Files/VST3/MetaPiano x64.vst3\""
				}

			}
, 			{
				"box" : 				{
					"id" : "obj-15",
					"maxclass" : "message",
					"numinlets" : 2,
					"numoutlets" : 1,
					"outlettype" : [ "" ],
					"patching_rect" : [ 406.183346152305603, 1028.800015330314636, 124.390245676040649, 22.0 ],
					"text" : "midievent 144 61 0"
				}

			}
, 			{
				"box" : 				{
					"fontname" : "Arial",
					"fontsize" : 13.0,
					"id" : "obj-308",
					"maxclass" : "newobj",
					"numinlets" : 7,
					"numoutlets" : 2,
					"outlettype" : [ "int", "" ],
					"patching_rect" : [ 452.583346843719482, 985.600014686584473, 111.027026891708374, 23.0 ],
					"text" : "midiformat"
				}

			}
, 			{
				"box" : 				{
					"fontname" : "Arial",
					"fontsize" : 13.0,
					"id" : "obj-309",
					"maxclass" : "newobj",
					"numinlets" : 2,
					"numoutlets" : 1,
					"outlettype" : [ "" ],
					"patching_rect" : [ 452.583346843719482, 949.60001415014267, 100.733340084552765, 23.0 ],
					"text" : "join"
				}

			}
, 			{
				"box" : 				{
					"id" : "obj-8",
					"maxclass" : "newobj",
					"numinlets" : 3,
					"numoutlets" : 2,
					"outlettype" : [ "float", "float" ],
					"patching_rect" : [ 452.583346843719482, 908.800013542175293, 101.0, 22.0 ],
					"text" : "makenote 60 16n"
				}

			}
, 			{
				"box" : 				{
					"autosave" : 1,
					"bgmode" : 0,
					"border" : 0,
					"clickthrough" : 0,
					"id" : "obj-7",
					"maxclass" : "newobj",
					"numinlets" : 2,
					"numoutlets" : 8,
					"offset" : [ 0.0, 0.0 ],
					"outlettype" : [ "signal", "signal", "", "list", "int", "", "", "" ],
					"patching_rect" : [ 544.583348214626312, 1200.800017893314362, 120.0, 22.0 ],
					"save" : [ "#N", "vst~", "loaduniqueid", 0, ";" ],
					"saved_attribute_attributes" : 					{
						"valueof" : 						{
							"parameter_invisible" : 1,
							"parameter_longname" : "vst~",
							"parameter_modmode" : 0,
							"parameter_osc_name" : "<default>",
							"parameter_shortname" : "vst~",
							"parameter_type" : 3
						}

					}
,
					"saved_object_attributes" : 					{
						"parameter_enable" : 1,
						"parameter_mappable" : 0
					}
,
					"snapshot" : 					{
						"filetype" : "C74Snapshot",
						"version" : 2,
						"minorversion" : 0,
						"name" : "snapshotlist",
						"origin" : "vst~",
						"type" : "list",
						"subtype" : "Undefined",
						"embed" : 1,
						"snapshot" : 						{
							"pluginname" : "MetaPiano x64.vst3info",
							"plugindisplayname" : "MetaPiano",
							"pluginsavedname" : "",
							"pluginsaveduniqueid" : 0,
							"version" : 1,
							"isbank" : 0,
							"isbase64" : 1,
							"blob" : "632.VMjLg7l....O+fWarAhckI2bo8la8HRLt.iHfTlai8FYo41Y8HRUTYTK3HxO9.BOVMEUy.Ea0cVZtMEcgQWY9vSRC8Vav8lak4Fc9LSNv3hUMczXWEjKt3hYt3hKt.kKt3hKt3BS5gEcyQjKtPjYgYTR5AkaA4hKtfDTSoWPWokKDAUPt3hKt3hKt3hKt3hKt3hKt3hKt3hKt3hKt3hKt3hKt3hKt3hKt3hKt3hKt3hKt3hKt3hKt3hKt3hKt3hKt3hKt3hKt3hKt3hKt3hKt3hKt3hKt3hKt3hKt3hKt3hKt3hKt3hKt3hKt3hKt3hKt3hKt3hKt3hKt3hKt3hKt3hKt3hKt3hKt3hKt3hKt3hKt3hKt3hKt3hKt3hKt3hKt3hKt3hKt3hKt3hKt3hKt3hKt3hKt3hKtfUSJASNRshY3DjKEIkKtfmX1YTZtnkPt3xcFoFNLkWRLYFU3EWX2fSYEwlM0YWSZkEcvkTNwnGNSEDQHslPR8lZ0bySigTPzrRTKUTZVISUznVQzYFVYw1bHcjdxk2aiEFMrolcUQ0YBwlZJc1arcCQyIzbX8TTZMFZ0.UVyMFNpYjcCMmKl01c3rDZgIkdRw1QP4BYzMWMo0VZiA0MOAyaikVStHjZtA0QOQjKsYmKW8Tb2QzXRcjSrgVSHoGZtfzQ1gCTJMkUv4zUuYWUL4hKt3hKt3hKt3hYRUUSTEETIckVwTjQisVTTgkdEYjKAQjYPQSPWgUdMcjKAQjct3hdA4hKt3hKt3hKtnTUv.UQAslXuk0UXoWUFE0YQcEV77RRC8Vav8lak4Fc9vyKVMEUy.Ea0cVZtMEcgQWY9.."
						}
,
						"snapshotlist" : 						{
							"current_snapshot" : 0,
							"entries" : [ 								{
									"filetype" : "C74Snapshot",
									"version" : 2,
									"minorversion" : 0,
									"name" : "MetaPiano",
									"origin" : "MetaPiano x64.vst3info",
									"type" : "VST3",
									"subtype" : "Instrument",
									"embed" : 1,
									"snapshot" : 									{
										"pluginname" : "MetaPiano x64.vst3info",
										"plugindisplayname" : "MetaPiano",
										"pluginsavedname" : "",
										"pluginsaveduniqueid" : 0,
										"version" : 1,
										"isbank" : 0,
										"isbase64" : 1,
										"blob" : "632.VMjLg7l....O+fWarAhckI2bo8la8HRLt.iHfTlai8FYo41Y8HRUTYTK3HxO9.BOVMEUy.Ea0cVZtMEcgQWY9vSRC8Vav8lak4Fc9LSNv3hUMczXWEjKt3hYt3hKt.kKt3hKt3BS5gEcyQjKtPjYgYTR5AkaA4hKtfDTSoWPWokKDAUPt3hKt3hKt3hKt3hKt3hKt3hKt3hKt3hKt3hKt3hKt3hKt3hKt3hKt3hKt3hKt3hKt3hKt3hKt3hKt3hKt3hKt3hKt3hKt3hKt3hKt3hKt3hKt3hKt3hKt3hKt3hKt3hKt3hKt3hKt3hKt3hKt3hKt3hKt3hKt3hKt3hKt3hKt3hKt3hKt3hKt3hKt3hKt3hKt3hKt3hKt3hKt3hKt3hKt3hKt3hKt3hKt3hKt3hKt3hKt3hKtfUSJASNRshY3DjKEIkKtfmX1YTZtnkPt3xcFoFNLkWRLYFU3EWX2fSYEwlM0YWSZkEcvkTNwnGNSEDQHslPR8lZ0bySigTPzrRTKUTZVISUznVQzYFVYw1bHcjdxk2aiEFMrolcUQ0YBwlZJc1arcCQyIzbX8TTZMFZ0.UVyMFNpYjcCMmKl01c3rDZgIkdRw1QP4BYzMWMo0VZiA0MOAyaikVStHjZtA0QOQjKsYmKW8Tb2QzXRcjSrgVSHoGZtfzQ1gCTJMkUv4zUuYWUL4hKt3hKt3hKt3hYRUUSTEETIckVwTjQisVTTgkdEYjKAQjYPQSPWgUdMcjKAQjct3hdA4hKt3hKt3hKtnTUv.UQAslXuk0UXoWUFE0YQcEV77RRC8Vav8lak4Fc9vyKVMEUy.Ea0cVZtMEcgQWY9.."
									}
,
									"fileref" : 									{
										"name" : "MetaPiano",
										"filename" : "MetaPiano.maxsnap",
										"filepath" : "~/Documents/Max 9/Snapshots",
										"filepos" : -1,
										"snapshotfileid" : "3905b08737d3fc8239245c43b7487bae"
									}

								}
 ]
						}

					}
,
					"text" : "vst~",
					"varname" : "vst~",
					"viewvisibility" : 0
				}

			}
, 			{
				"box" : 				{
					"id" : "obj-4",
					"maxclass" : "message",
					"numinlets" : 2,
					"numoutlets" : 1,
					"outlettype" : [ "" ],
					"patching_rect" : [ 539.250010848045349, 365.333346784114838, 29.5, 22.0 ],
					"text" : "16n"
				}

			}
, 			{
				"box" : 				{
					"id" : "obj-6",
					"maxclass" : "message",
					"numinlets" : 2,
					"numoutlets" : 1,
					"outlettype" : [ "" ],
					"patching_rect" : [ 503.250010848045349, 365.333346784114838, 29.5, 22.0 ],
					"text" : "4n"
				}

			}
, 			{
				"box" : 				{
					"fontname" : "Arial",
					"fontsize" : 13.0,
					"id" : "obj-175",
					"maxclass" : "message",
					"numinlets" : 2,
					"numoutlets" : 1,
					"outlettype" : [ "" ],
					"patching_rect" : [ 505.383347630500793, 779.200011610984802, 72.0, 23.0 ],
					"text" : "11 2 4 11 0"
				}

			}
, 			{
				"box" : 				{
					"fontname" : "Arial",
					"fontsize" : 13.0,
					"id" : "obj-178",
					"linecount" : 2,
					"maxclass" : "newobj",
					"numinlets" : 2,
					"numoutlets" : 2,
					"outlettype" : [ "", "" ],
					"patching_rect" : [ 452.583346843719482, 824.800012290477753, 72.0, 38.0 ],
					"text" : "zl lookup 11 2 4 11 0"
				}

			}
, 			{
				"box" : 				{
					"fontname" : "Arial",
					"fontsize" : 13.0,
					"id" : "obj-84",
					"linecount" : 2,
					"maxclass" : "newobj",
					"numinlets" : 2,
					"numoutlets" : 1,
					"outlettype" : [ "bang" ],
					"patching_rect" : [ 488.250010848045349, 409.333346784114838, 70.0, 38.0 ],
					"text" : "metro 16n @active 1"
				}

			}
, 			{
				"box" : 				{
					"bubble" : 1,
					"fontname" : "Arial",
					"fontsize" : 13.0,
					"id" : "obj-80",
					"linecount" : 2,
					"maxclass" : "comment",
					"numinlets" : 1,
					"numoutlets" : 0,
					"patching_rect" : [ 1089.333365797996521, 145.333337664604187, 111.0, 40.0 ],
					"style" : "helpfile_label",
					"text" : "set custom\ntime signature "
				}

			}
, 			{
				"box" : 				{
					"id" : "obj-79",
					"maxclass" : "number",
					"numinlets" : 1,
					"numoutlets" : 2,
					"outlettype" : [ "", "bang" ],
					"parameter_enable" : 0,
					"patching_rect" : [ 1028.000030636787415, 166.666671633720398, 50.0, 22.0 ]
				}

			}
, 			{
				"box" : 				{
					"id" : "obj-77",
					"maxclass" : "number",
					"numinlets" : 1,
					"numoutlets" : 2,
					"outlettype" : [ "", "bang" ],
					"parameter_enable" : 0,
					"patching_rect" : [ 1001.333363175392151, 142.666670918464661, 50.0, 22.0 ]
				}

			}
, 			{
				"box" : 				{
					"id" : "obj-75",
					"maxclass" : "newobj",
					"numinlets" : 2,
					"numoutlets" : 1,
					"outlettype" : [ "" ],
					"patching_rect" : [ 1001.333363175392151, 193.333339095115662, 46.0, 22.0 ],
					"text" : "pak"
				}

			}
, 			{
				"box" : 				{
					"bubble" : 1,
					"fontname" : "Arial",
					"fontsize" : 13.0,
					"id" : "obj-61",
					"maxclass" : "comment",
					"numinlets" : 1,
					"numoutlets" : 0,
					"patching_rect" : [ 878.666692852973938, 216.000006437301636, 108.0, 25.0 ],
					"text" : "start and stop "
				}

			}
, 			{
				"box" : 				{
					"id" : "obj-63",
					"maxclass" : "toggle",
					"numinlets" : 1,
					"numoutlets" : 1,
					"outlettype" : [ "int" ],
					"parameter_enable" : 0,
					"patching_rect" : [ 594.000019550323486, 21.333333969116211, 148.0, 148.0 ],
					"svg" : ""
				}

			}
, 			{
				"box" : 				{
					"fontname" : "Arial",
					"fontsize" : 13.0,
					"id" : "obj-66",
					"linecount" : 2,
					"maxclass" : "comment",
					"numinlets" : 1,
					"numoutlets" : 0,
					"patching_rect" : [ 925.666690707206726, 285.0, 95.0, 36.0 ],
					"style" : "helpfile_label",
					"text" : "Current \ntime signature"
				}

			}
, 			{
				"box" : 				{
					"fontname" : "Arial",
					"fontsize" : 13.0,
					"id" : "obj-11",
					"maxclass" : "message",
					"numinlets" : 2,
					"numoutlets" : 1,
					"outlettype" : [ "" ],
					"patching_rect" : [ 828.166690707206726, 298.0, 50.0, 23.0 ],
					"text" : "4 4"
				}

			}
, 			{
				"box" : 				{
					"fontname" : "Arial",
					"fontsize" : 13.0,
					"id" : "obj-5",
					"maxclass" : "newobj",
					"numinlets" : 2,
					"numoutlets" : 9,
					"outlettype" : [ "int", "int", "float", "float", "float", "", "int", "float", "" ],
					"patching_rect" : [ 806.666690707206726, 259.0, 103.0, 23.0 ],
					"text" : "transport"
				}

			}
, 			{
				"box" : 				{
					"id" : "obj-53",
					"maxclass" : "newobj",
					"numinlets" : 5,
					"numoutlets" : 4,
					"outlettype" : [ "int", "", "", "int" ],
					"patching_rect" : [ 452.583346843719482, 579.0, 71.5, 22.0 ],
					"text" : "counter 4"
				}

			}
, 			{
				"box" : 				{
					"attr" : "tempo",
					"fontface" : 0,
					"fontname" : "Arial",
					"fontsize" : 13.0,
					"id" : "obj-39",
					"maxclass" : "attrui",
					"numinlets" : 1,
					"numoutlets" : 1,
					"outlettype" : [ "" ],
					"parameter_enable" : 0,
					"patching_rect" : [ 806.666690707206726, 36.000001072883606, 199.0, 23.0 ]
				}

			}
, 			{
				"box" : 				{
					"bubble" : 1,
					"fontname" : "Arial",
					"fontsize" : 13.0,
					"id" : "obj-41",
					"maxclass" : "comment",
					"numinlets" : 1,
					"numoutlets" : 0,
					"patching_rect" : [ 1001.333363175392151, 34.666667699813843, 130.0, 25.0 ],
					"style" : "helpfile_label",
					"text" : "set tempo in bpm"
				}

			}
, 			{
				"box" : 				{
					"bubble" : 1,
					"fontname" : "Arial",
					"fontsize" : 13.0,
					"id" : "obj-43",
					"maxclass" : "comment",
					"numinlets" : 1,
					"numoutlets" : 0,
					"patching_rect" : [ 1040.000030994415283, 86.666669249534607, 137.0, 25.0 ],
					"style" : "helpfile_label",
					"text" : "set time signature "
				}

			}
, 			{
				"box" : 				{
					"fontname" : "Arial",
					"fontsize" : 13.0,
					"id" : "obj-126",
					"maxclass" : "message",
					"numinlets" : 2,
					"numoutlets" : 1,
					"outlettype" : [ "" ],
					"patching_rect" : [ 1001.333363175392151, 217.333339810371399, 86.0, 23.0 ],
					"text" : "timesig $1 $2"
				}

			}
, 			{
				"box" : 				{
					"fontname" : "Arial",
					"fontsize" : 13.0,
					"id" : "obj-125",
					"maxclass" : "message",
					"numinlets" : 2,
					"numoutlets" : 1,
					"outlettype" : [ "" ],
					"patching_rect" : [ 953.333361744880676, 88.00000262260437, 79.0, 23.0 ],
					"text" : "timesig 5 16"
				}

			}
 ],
		"lines" : [ 			{
				"patchline" : 				{
					"destination" : [ "obj-2", 0 ],
					"source" : [ "obj-1", 0 ]
				}

			}
, 			{
				"patchline" : 				{
					"destination" : [ "obj-178", 1 ],
					"source" : [ "obj-100", 0 ]
				}

			}
, 			{
				"patchline" : 				{
					"destination" : [ "obj-178", 1 ],
					"source" : [ "obj-107", 0 ]
				}

			}
, 			{
				"patchline" : 				{
					"destination" : [ "obj-110", 0 ],
					"order" : 2,
					"source" : [ "obj-108", 0 ]
				}

			}
, 			{
				"patchline" : 				{
					"destination" : [ "obj-117", 0 ],
					"order" : 1,
					"source" : [ "obj-108", 0 ]
				}

			}
, 			{
				"patchline" : 				{
					"destination" : [ "obj-14", 0 ],
					"order" : 0,
					"source" : [ "obj-108", 0 ]
				}

			}
, 			{
				"patchline" : 				{
					"destination" : [ "obj-124", 0 ],
					"order" : 0,
					"source" : [ "obj-110", 0 ]
				}

			}
, 			{
				"patchline" : 				{
					"destination" : [ "obj-175", 0 ],
					"order" : 1,
					"source" : [ "obj-110", 0 ]
				}

			}
, 			{
				"patchline" : 				{
					"destination" : [ "obj-122", 0 ],
					"order" : 0,
					"source" : [ "obj-117", 0 ]
				}

			}
, 			{
				"patchline" : 				{
					"destination" : [ "obj-64", 0 ],
					"order" : 1,
					"source" : [ "obj-117", 0 ]
				}

			}
, 			{
				"patchline" : 				{
					"destination" : [ "obj-5", 0 ],
					"source" : [ "obj-125", 0 ]
				}

			}
, 			{
				"patchline" : 				{
					"destination" : [ "obj-5", 0 ],
					"source" : [ "obj-126", 0 ]
				}

			}
, 			{
				"patchline" : 				{
					"destination" : [ "obj-107", 0 ],
					"order" : 1,
					"source" : [ "obj-129", 0 ]
				}

			}
, 			{
				"patchline" : 				{
					"destination" : [ "obj-128", 0 ],
					"order" : 0,
					"source" : [ "obj-129", 0 ]
				}

			}
, 			{
				"patchline" : 				{
					"destination" : [ "obj-5", 0 ],
					"source" : [ "obj-13", 0 ]
				}

			}
, 			{
				"patchline" : 				{
					"destination" : [ "obj-100", 0 ],
					"order" : 1,
					"source" : [ "obj-130", 0 ]
				}

			}
, 			{
				"patchline" : 				{
					"destination" : [ "obj-127", 0 ],
					"order" : 0,
					"source" : [ "obj-130", 0 ]
				}

			}
, 			{
				"patchline" : 				{
					"destination" : [ "obj-100", 0 ],
					"order" : 0,
					"source" : [ "obj-156", 3 ]
				}

			}
, 			{
				"patchline" : 				{
					"destination" : [ "obj-52", 0 ],
					"order" : 1,
					"source" : [ "obj-156", 3 ]
				}

			}
, 			{
				"patchline" : 				{
					"destination" : [ "obj-83", 0 ],
					"order" : 2,
					"source" : [ "obj-156", 3 ]
				}

			}
, 			{
				"patchline" : 				{
					"destination" : [ "obj-94", 0 ],
					"source" : [ "obj-156", 0 ]
				}

			}
, 			{
				"patchline" : 				{
					"destination" : [ "obj-22", 0 ],
					"source" : [ "obj-157", 0 ]
				}

			}
, 			{
				"patchline" : 				{
					"color" : [ 0.929411764705882, 0.36078431372549, 0.866666666666667, 1.0 ],
					"destination" : [ "obj-156", 2 ],
					"order" : 3,
					"source" : [ "obj-158", 3 ]
				}

			}
, 			{
				"patchline" : 				{
					"color" : [ 0.929411764705882, 0.36078431372549, 0.866666666666667, 1.0 ],
					"destination" : [ "obj-37", 2 ],
					"order" : 1,
					"source" : [ "obj-158", 3 ]
				}

			}
, 			{
				"patchline" : 				{
					"color" : [ 0.929411764705882, 0.36078431372549, 0.866666666666667, 1.0 ],
					"destination" : [ "obj-38", 2 ],
					"order" : 0,
					"source" : [ "obj-158", 3 ]
				}

			}
, 			{
				"patchline" : 				{
					"color" : [ 0.929411764705882, 0.36078431372549, 0.866666666666667, 1.0 ],
					"destination" : [ "obj-53", 2 ],
					"order" : 2,
					"source" : [ "obj-158", 3 ]
				}

			}
, 			{
				"patchline" : 				{
					"color" : [ 0.149019607843137, 0.984313725490196, 0.984313725490196, 1.0 ],
					"destination" : [ "obj-49", 0 ],
					"source" : [ "obj-16", 0 ]
				}

			}
, 			{
				"patchline" : 				{
					"destination" : [ "obj-178", 1 ],
					"source" : [ "obj-175", 0 ]
				}

			}
, 			{
				"patchline" : 				{
					"destination" : [ "obj-24", 0 ],
					"source" : [ "obj-178", 0 ]
				}

			}
, 			{
				"patchline" : 				{
					"destination" : [ "obj-8", 0 ],
					"source" : [ "obj-24", 0 ]
				}

			}
, 			{
				"patchline" : 				{
					"destination" : [ "obj-26", 1 ],
					"source" : [ "obj-25", 1 ]
				}

			}
, 			{
				"patchline" : 				{
					"destination" : [ "obj-26", 0 ],
					"source" : [ "obj-25", 0 ]
				}

			}
, 			{
				"patchline" : 				{
					"destination" : [ "obj-7", 0 ],
					"source" : [ "obj-281", 0 ]
				}

			}
, 			{
				"patchline" : 				{
					"destination" : [ "obj-7", 0 ],
					"source" : [ "obj-282", 0 ]
				}

			}
, 			{
				"patchline" : 				{
					"destination" : [ "obj-157", 4 ],
					"source" : [ "obj-29", 0 ]
				}

			}
, 			{
				"patchline" : 				{
					"destination" : [ "obj-91", 0 ],
					"source" : [ "obj-3", 0 ]
				}

			}
, 			{
				"patchline" : 				{
					"destination" : [ "obj-15", 1 ],
					"order" : 1,
					"source" : [ "obj-308", 1 ]
				}

			}
, 			{
				"patchline" : 				{
					"destination" : [ "obj-7", 0 ],
					"order" : 0,
					"source" : [ "obj-308", 1 ]
				}

			}
, 			{
				"patchline" : 				{
					"destination" : [ "obj-308", 0 ],
					"midpoints" : [ 462.083346843719482, 975.666671633720398, 462.083346843719482, 975.666671633720398 ],
					"source" : [ "obj-309", 0 ]
				}

			}
, 			{
				"patchline" : 				{
					"destination" : [ "obj-157", 0 ],
					"source" : [ "obj-35", 0 ]
				}

			}
, 			{
				"patchline" : 				{
					"destination" : [ "obj-157", 4 ],
					"source" : [ "obj-36", 0 ]
				}

			}
, 			{
				"patchline" : 				{
					"destination" : [ "obj-49", 0 ],
					"source" : [ "obj-37", 3 ]
				}

			}
, 			{
				"patchline" : 				{
					"destination" : [ "obj-56", 0 ],
					"source" : [ "obj-38", 3 ]
				}

			}
, 			{
				"patchline" : 				{
					"destination" : [ "obj-5", 0 ],
					"source" : [ "obj-39", 0 ]
				}

			}
, 			{
				"patchline" : 				{
					"destination" : [ "obj-84", 1 ],
					"source" : [ "obj-4", 0 ]
				}

			}
, 			{
				"patchline" : 				{
					"destination" : [ "obj-58", 0 ],
					"source" : [ "obj-45", 0 ]
				}

			}
, 			{
				"patchline" : 				{
					"destination" : [ "obj-59", 0 ],
					"source" : [ "obj-45", 1 ]
				}

			}
, 			{
				"patchline" : 				{
					"destination" : [ "obj-45", 0 ],
					"order" : 0,
					"source" : [ "obj-49", 0 ]
				}

			}
, 			{
				"patchline" : 				{
					"destination" : [ "obj-55", 0 ],
					"order" : 1,
					"source" : [ "obj-49", 0 ]
				}

			}
, 			{
				"patchline" : 				{
					"destination" : [ "obj-11", 1 ],
					"source" : [ "obj-5", 5 ]
				}

			}
, 			{
				"patchline" : 				{
					"destination" : [ "obj-7", 0 ],
					"source" : [ "obj-50", 0 ]
				}

			}
, 			{
				"patchline" : 				{
					"destination" : [ "obj-45", 0 ],
					"order" : 0,
					"source" : [ "obj-52", 0 ]
				}

			}
, 			{
				"patchline" : 				{
					"destination" : [ "obj-55", 0 ],
					"order" : 1,
					"source" : [ "obj-52", 0 ]
				}

			}
, 			{
				"patchline" : 				{
					"destination" : [ "obj-108", 0 ],
					"order" : 1,
					"source" : [ "obj-53", 3 ]
				}

			}
, 			{
				"patchline" : 				{
					"destination" : [ "obj-178", 0 ],
					"source" : [ "obj-53", 0 ]
				}

			}
, 			{
				"patchline" : 				{
					"destination" : [ "obj-93", 0 ],
					"order" : 0,
					"source" : [ "obj-53", 3 ]
				}

			}
, 			{
				"patchline" : 				{
					"destination" : [ "obj-54", 0 ],
					"source" : [ "obj-55", 0 ]
				}

			}
, 			{
				"patchline" : 				{
					"destination" : [ "obj-129", 0 ],
					"order" : 1,
					"source" : [ "obj-56", 0 ]
				}

			}
, 			{
				"patchline" : 				{
					"destination" : [ "obj-130", 0 ],
					"order" : 2,
					"source" : [ "obj-56", 0 ]
				}

			}
, 			{
				"patchline" : 				{
					"destination" : [ "obj-57", 0 ],
					"order" : 0,
					"source" : [ "obj-56", 0 ]
				}

			}
, 			{
				"patchline" : 				{
					"destination" : [ "obj-156", 0 ],
					"source" : [ "obj-58", 0 ]
				}

			}
, 			{
				"patchline" : 				{
					"destination" : [ "obj-53", 0 ],
					"source" : [ "obj-58", 1 ]
				}

			}
, 			{
				"patchline" : 				{
					"destination" : [ "obj-37", 0 ],
					"source" : [ "obj-59", 0 ]
				}

			}
, 			{
				"patchline" : 				{
					"destination" : [ "obj-38", 0 ],
					"source" : [ "obj-59", 1 ]
				}

			}
, 			{
				"patchline" : 				{
					"destination" : [ "obj-84", 1 ],
					"source" : [ "obj-6", 0 ]
				}

			}
, 			{
				"patchline" : 				{
					"destination" : [ "obj-5", 0 ],
					"source" : [ "obj-63", 0 ]
				}

			}
, 			{
				"patchline" : 				{
					"destination" : [ "obj-178", 1 ],
					"source" : [ "obj-64", 0 ]
				}

			}
, 			{
				"patchline" : 				{
					"destination" : [ "obj-25", 1 ],
					"source" : [ "obj-7", 1 ]
				}

			}
, 			{
				"patchline" : 				{
					"destination" : [ "obj-25", 0 ],
					"source" : [ "obj-7", 0 ]
				}

			}
, 			{
				"patchline" : 				{
					"destination" : [ "obj-126", 0 ],
					"source" : [ "obj-75", 0 ]
				}

			}
, 			{
				"patchline" : 				{
					"destination" : [ "obj-75", 0 ],
					"source" : [ "obj-77", 0 ]
				}

			}
, 			{
				"patchline" : 				{
					"destination" : [ "obj-75", 1 ],
					"source" : [ "obj-79", 0 ]
				}

			}
, 			{
				"patchline" : 				{
					"destination" : [ "obj-19", 1 ],
					"order" : 2,
					"source" : [ "obj-8", 0 ]
				}

			}
, 			{
				"patchline" : 				{
					"destination" : [ "obj-23", 1 ],
					"order" : 0,
					"source" : [ "obj-8", 1 ]
				}

			}
, 			{
				"patchline" : 				{
					"destination" : [ "obj-23", 0 ],
					"order" : 0,
					"source" : [ "obj-8", 0 ]
				}

			}
, 			{
				"patchline" : 				{
					"destination" : [ "obj-309", 1 ],
					"order" : 1,
					"source" : [ "obj-8", 1 ]
				}

			}
, 			{
				"patchline" : 				{
					"destination" : [ "obj-309", 0 ],
					"order" : 1,
					"source" : [ "obj-8", 0 ]
				}

			}
, 			{
				"patchline" : 				{
					"destination" : [ "obj-42", 0 ],
					"order" : 3,
					"source" : [ "obj-8", 0 ]
				}

			}
, 			{
				"patchline" : 				{
					"destination" : [ "obj-158", 0 ],
					"order" : 0,
					"source" : [ "obj-84", 0 ]
				}

			}
, 			{
				"patchline" : 				{
					"destination" : [ "obj-45", 1 ],
					"order" : 1,
					"source" : [ "obj-84", 0 ]
				}

			}
, 			{
				"patchline" : 				{
					"color" : [ 0.070588235294118, 0.909803921568627, 0.909803921568627, 1.0 ],
					"destination" : [ "obj-156", 0 ],
					"order" : 4,
					"source" : [ "obj-86", 0 ]
				}

			}
, 			{
				"patchline" : 				{
					"color" : [ 0.070588235294118, 0.909803921568627, 0.909803921568627, 1.0 ],
					"destination" : [ "obj-158", 0 ],
					"order" : 1,
					"source" : [ "obj-86", 0 ]
				}

			}
, 			{
				"patchline" : 				{
					"color" : [ 0.070588235294118, 0.909803921568627, 0.909803921568627, 1.0 ],
					"destination" : [ "obj-37", 0 ],
					"order" : 2,
					"source" : [ "obj-86", 0 ]
				}

			}
, 			{
				"patchline" : 				{
					"color" : [ 0.070588235294118, 0.909803921568627, 0.909803921568627, 1.0 ],
					"destination" : [ "obj-38", 0 ],
					"order" : 0,
					"source" : [ "obj-86", 0 ]
				}

			}
, 			{
				"patchline" : 				{
					"color" : [ 0.070588235294118, 0.909803921568627, 0.909803921568627, 1.0 ],
					"destination" : [ "obj-53", 0 ],
					"order" : 3,
					"source" : [ "obj-86", 0 ]
				}

			}
, 			{
				"patchline" : 				{
					"destination" : [ "obj-16", 0 ],
					"order" : 1,
					"source" : [ "obj-99", 0 ]
				}

			}
, 			{
				"patchline" : 				{
					"color" : [ 0.149019607843137, 0.984313725490196, 0.984313725490196, 1.0 ],
					"destination" : [ "obj-175", 0 ],
					"order" : 0,
					"source" : [ "obj-99", 0 ]
				}

			}
, 			{
				"patchline" : 				{
					"destination" : [ "obj-86", 0 ],
					"order" : 2,
					"source" : [ "obj-99", 0 ]
				}

			}
 ],
		"originid" : "pat-6",
		"parameters" : 		{
			"obj-25" : [ "live.gain~", "live.gain~", 0 ],
			"obj-7" : [ "vst~", "vst~", 0 ],
			"parameterbanks" : 			{
				"0" : 				{
					"index" : 0,
					"name" : "",
					"parameters" : [ "-", "-", "-", "-", "-", "-", "-", "-" ]
				}

			}
,
			"inherited_shortname" : 1
		}
,
		"dependency_cache" : [ 			{
				"name" : "MetaPiano.maxsnap",
				"bootpath" : "~/Documents/Max 9/Snapshots",
				"type" : "mx@s",
				"implicit" : 1
			}
, 			{
				"name" : "Tigran Example.png",
				"bootpath" : "D:/PROYECTOS/Max-Msp/Propios/MaxMsp-Patches/MIDI/TigranHamasyan_Entertain_Me/Images",
				"patcherrelativepath" : "./Images",
				"type" : "PNG",
				"implicit" : 1
			}
, 			{
				"name" : "Time signatures.png",
				"bootpath" : "D:/PROYECTOS/Max-Msp/Propios/MaxMsp-Patches/MIDI/TigranHamasyan_Entertain_Me/Images",
				"patcherrelativepath" : "./Images",
				"type" : "PNG",
				"implicit" : 1
			}
 ],
		"autosave" : 0
	}

}
