{
	"patcher" : 	{
		"fileversion" : 1,
		"appversion" : 		{
			"major" : 9,
			"minor" : 0,
			"revision" : 1,
			"architecture" : "x64",
			"modernui" : 1
		}
,
		"classnamespace" : "box",
		"rect" : [ 34.0, 85.0, 1428.0, 953.0 ],
		"gridsize" : [ 15.0, 15.0 ],
		"boxes" : [ 			{
				"box" : 				{
					"fontname" : "Arial",
					"fontsize" : 13.0,
					"id" : "obj-66",
					"maxclass" : "message",
					"numinlets" : 2,
					"numoutlets" : 1,
					"outlettype" : [ "" ],
					"patching_rect" : [ 815.0, 1321.607700298743111, 33.0, 23.0 ],
					"presentation" : 1,
					"presentation_rect" : [ 890.770209183641555, 434.77832967042923, 33.0, 23.0 ],
					"text" : "stop"
				}

			}
, 			{
				"box" : 				{
					"fontname" : "Arial",
					"fontsize" : 13.0,
					"id" : "obj-50",
					"maxclass" : "message",
					"numinlets" : 2,
					"numoutlets" : 1,
					"outlettype" : [ "" ],
					"patching_rect" : [ 717.0, 1337.032736029667376, 58.0, 23.0 ],
					"presentation" : 1,
					"presentation_rect" : [ 830.770209183641555, 434.77832967042923, 45.0, 23.0 ],
					"text" : "record"
				}

			}
, 			{
				"box" : 				{
					"fontname" : "Arial",
					"fontsize" : 13.0,
					"id" : "obj-54",
					"maxclass" : "message",
					"numinlets" : 2,
					"numoutlets" : 1,
					"outlettype" : [ "" ],
					"patching_rect" : [ 1042.0, 1337.032736029667376, 57.0, 23.0 ],
					"presentation" : 1,
					"presentation_rect" : [ 934.770209183641555, 434.77832967042923, 36.0, 23.0 ],
					"text" : "write"
				}

			}
, 			{
				"box" : 				{
					"fontname" : "Arial",
					"fontsize" : 13.0,
					"id" : "obj-58",
					"linecount" : 2,
					"maxclass" : "newobj",
					"numinlets" : 1,
					"numoutlets" : 3,
					"outlettype" : [ "int", "bang", "" ],
					"patching_rect" : [ 717.0, 1388.032736029667376, 105.0, 38.0 ],
					"text" : "seq Midi_File.midi"
				}

			}
, 			{
				"box" : 				{
					"fontname" : "Arial",
					"fontsize" : 13.0,
					"id" : "obj-15",
					"maxclass" : "newobj",
					"numinlets" : 3,
					"numoutlets" : 0,
					"patching_rect" : [ 80.0, 1354.0, 55.0, 23.0 ],
					"text" : "noteout"
				}

			}
, 			{
				"box" : 				{
					"id" : "obj-4",
					"maxclass" : "newobj",
					"numinlets" : 1,
					"numoutlets" : 0,
					"patching_rect" : [ 31.0, 1232.019337365661613, 47.0, 22.0 ],
					"text" : "midiout"
				}

			}
, 			{
				"box" : 				{
					"id" : "obj-143",
					"maxclass" : "comment",
					"numinlets" : 1,
					"numoutlets" : 0,
					"patching_rect" : [ 1599.0, 415.51666796207428, 37.0, 20.0 ],
					"presentation" : 1,
					"presentation_rect" : [ 746.770209183641555, 711.930068545817221, 37.0, 20.0 ],
					"text" : "Short"
				}

			}
, 			{
				"box" : 				{
					"id" : "obj-145",
					"maxclass" : "comment",
					"numinlets" : 1,
					"numoutlets" : 0,
					"patching_rect" : [ 1697.501447975635529, 415.51666796207428, 35.0, 20.0 ],
					"presentation" : 1,
					"presentation_rect" : [ 877.744026800526399, 711.930068545817221, 35.0, 20.0 ],
					"text" : "Long"
				}

			}
, 			{
				"box" : 				{
					"id" : "obj-141",
					"maxclass" : "comment",
					"numinlets" : 1,
					"numoutlets" : 0,
					"patching_rect" : [ 1453.051446557044983, 415.51666796207428, 39.0, 20.0 ],
					"presentation" : 1,
					"presentation_rect" : [ 530.40680571397138, 711.930068545817221, 39.0, 20.0 ],
					"text" : "Quick"
				}

			}
, 			{
				"box" : 				{
					"id" : "obj-130",
					"maxclass" : "comment",
					"numinlets" : 1,
					"numoutlets" : 0,
					"patching_rect" : [ 1547.666679799556732, 415.51666796207428, 35.0, 20.0 ],
					"presentation" : 1,
					"presentation_rect" : [ 657.380623330856224, 711.930068545817221, 35.0, 20.0 ],
					"text" : "Slow"
				}

			}
, 			{
				"box" : 				{
					"id" : "obj-14",
					"maxclass" : "comment",
					"numinlets" : 1,
					"numoutlets" : 0,
					"patching_rect" : [ 52.800000786781311, 477.26666796207428, 129.266663432121277, 20.0 ],
					"text" : "sends value if velocity"
				}

			}
, 			{
				"box" : 				{
					"fontsize" : 28.0,
					"id" : "obj-181",
					"maxclass" : "comment",
					"numinlets" : 1,
					"numoutlets" : 0,
					"patching_rect" : [ 1436.551446557044983, 250.136232256889343, 411.0, 39.0 ],
					"presentation" : 1,
					"presentation_rect" : [ 571.380623330856224, 561.631866872310638, 401.0, 39.0 ],
					"text" : "Change parameters in real time"
				}

			}
, 			{
				"box" : 				{
					"fontsize" : 28.0,
					"id" : "obj-180",
					"maxclass" : "comment",
					"numinlets" : 1,
					"numoutlets" : 0,
					"patching_rect" : [ 592.316664218902588, 170.266667962074251, 315.0, 39.0 ],
					"presentation" : 1,
					"presentation_rect" : [ 62.323853453000424, 702.430068545817221, 239.043478012084961, 39.0 ],
					"text" : "To restart, click on"
				}

			}
, 			{
				"box" : 				{
					"id" : "obj-173",
					"maxclass" : "newobj",
					"numinlets" : 1,
					"numoutlets" : 1,
					"outlettype" : [ "" ],
					"patching_rect" : [ 154.733330885569217, 212.61399870153798, 80.0, 22.0 ],
					"text" : "prepend read"
				}

			}
, 			{
				"box" : 				{
					"fontsize" : 26.344458589544981,
					"id" : "obj-168",
					"linecount" : 2,
					"maxclass" : "comment",
					"numinlets" : 1,
					"numoutlets" : 0,
					"patching_rect" : [ 711.316664218902588, 38.419336984191972, 247.333333333333371, 67.0 ],
					"presentation" : 1,
					"presentation_linecount" : 2,
					"presentation_rect" : [ 416.436133543650385, 59.912026590825263, 192.0, 67.0 ],
					"text" : "Take a listen of the midi file"
				}

			}
, 			{
				"box" : 				{
					"id" : "obj-165",
					"maxclass" : "message",
					"numinlets" : 2,
					"numoutlets" : 1,
					"outlettype" : [ "" ],
					"patching_rect" : [ 75.866664230823517, 1049.066667139530182, 50.0, 22.0 ],
					"text" : "84"
				}

			}
, 			{
				"box" : 				{
					"id" : "obj-153",
					"maxclass" : "message",
					"numinlets" : 2,
					"numoutlets" : 1,
					"outlettype" : [ "" ],
					"patching_rect" : [ 255.633330682913424, 386.333324474674214, 123.0, 22.0 ],
					"text" : "midievent 144 59 0"
				}

			}
, 			{
				"box" : 				{
					"fontlink" : 1,
					"fontsize" : 36.0,
					"id" : "obj-12",
					"maxclass" : "textbutton",
					"numinlets" : 1,
					"numoutlets" : 3,
					"outlettype" : [ "", "", "int" ],
					"parameter_enable" : 0,
					"patching_rect" : [ 484.130714236625749, 1266.35486315909975, 212.13671875, 49.396484375 ],
					"presentation" : 1,
					"presentation_rect" : [ 72.823853453000424, 269.975687613737705, 212.13671875, 49.396484375 ],
					"text" : "Show plugin",
					"texton" : "",
					"textoncolor" : [ 1.0, 1.0, 1.0, 1.0 ],
					"varname" : "textbutton[7]"
				}

			}
, 			{
				"box" : 				{
					"fontlink" : 1,
					"fontsize" : 36.0,
					"id" : "obj-132",
					"maxclass" : "textbutton",
					"numinlets" : 1,
					"numoutlets" : 3,
					"outlettype" : [ "", "", "int" ],
					"parameter_enable" : 0,
					"patching_rect" : [ 256.476667811445509, 1266.35486315909975, 202.169906616210938, 49.396484375 ],
					"presentation" : 1,
					"presentation_rect" : [ 72.823853453000424, 214.33420497846717, 202.169906616210938, 49.396484375 ],
					"text" : "Load plugin",
					"texton" : "",
					"textoncolor" : [ 1.0, 1.0, 1.0, 1.0 ],
					"varname" : "textbutton[8]"
				}

			}
, 			{
				"box" : 				{
					"fontname" : "Arial",
					"fontsize" : 13.0,
					"id" : "obj-134",
					"maxclass" : "message",
					"numinlets" : 2,
					"numoutlets" : 1,
					"outlettype" : [ "" ],
					"patching_rect" : [ 484.130714236625749, 1321.607700298743111, 70.0, 23.0 ],
					"text" : "open"
				}

			}
, 			{
				"box" : 				{
					"fontname" : "Arial",
					"fontsize" : 13.0,
					"id" : "obj-137",
					"maxclass" : "message",
					"numinlets" : 2,
					"numoutlets" : 1,
					"outlettype" : [ "" ],
					"patching_rect" : [ 256.476667811445509, 1321.607700298743111, 70.0, 23.0 ],
					"text" : "plug"
				}

			}
, 			{
				"box" : 				{
					"bgcolor" : [ 0.427450980392157, 0.843137254901961, 1.0, 1.0 ],
					"color" : [ 1.0, 0.968627450980392, 0.968627450980392, 1.0 ],
					"fontsize" : 12.763370200378333,
					"id" : "obj-138",
					"maxclass" : "newobj",
					"numinlets" : 1,
					"numoutlets" : 1,
					"outlettype" : [ "" ],
					"patching_rect" : [ 96.556909084320296, 1712.866707861423492, 74.0, 23.0 ],
					"text" : "loadmess 1",
					"textcolor" : [ 0.0, 0.0, 0.0, 1.0 ]
				}

			}
, 			{
				"box" : 				{
					"id" : "obj-140",
					"lastchannelcount" : 0,
					"livemode" : 1,
					"maxclass" : "live.gain~",
					"mode" : 1,
					"numinlets" : 2,
					"numoutlets" : 5,
					"outlettype" : [ "signal", "signal", "", "float", "list" ],
					"parameter_enable" : 1,
					"patching_rect" : [ 211.977347956754443, 1522.845546185970306, 76.0, 264.0 ],
					"presentation" : 1,
					"presentation_rect" : [ 1038.815788984298706, 454.936214864253884, 94.0, 321.0 ],
					"saved_attribute_attributes" : 					{
						"valueof" : 						{
							"parameter_initial" : [ 0 ],
							"parameter_initial_enable" : 1,
							"parameter_longname" : "live.gain~[2]",
							"parameter_mmax" : 6.0,
							"parameter_mmin" : -70.0,
							"parameter_modmode" : 0,
							"parameter_osc_name" : "<default>",
							"parameter_shortname" : "live.gain~[1]",
							"parameter_type" : 0,
							"parameter_unitstyle" : 4
						}

					}
,
					"showname" : 0,
					"varname" : "live.gain~[2]"
				}

			}
, 			{
				"box" : 				{
					"id" : "obj-128",
					"maxclass" : "kslider",
					"mode" : 1,
					"numinlets" : 2,
					"numoutlets" : 2,
					"offset" : 21,
					"outlettype" : [ "int", "int" ],
					"parameter_enable" : 0,
					"patching_rect" : [ 340.816664218902588, 1143.274365614371163, 884.0, 72.0 ],
					"presentation" : 1,
					"presentation_rect" : [ 22.030282060305467, 810.553086824749926, 1248.0, 98.0 ],
					"range" : 88,
					"varname" : "kslider[1]"
				}

			}
, 			{
				"box" : 				{
					"id" : "obj-146",
					"maxclass" : "newobj",
					"numinlets" : 1,
					"numoutlets" : 1,
					"outlettype" : [ "" ],
					"patching_rect" : [ 227.895772104206003, 1361.064058203182867, 276.0, 22.0 ],
					"text" : "loadmess plug_vst \"C74_VST:/Pianoteq 6 (64-bit)\""
				}

			}
, 			{
				"box" : 				{
					"fontsize" : 22.164409706845444,
					"id" : "obj-147",
					"maxclass" : "comment",
					"numinlets" : 1,
					"numoutlets" : 0,
					"patching_rect" : [ 27.378368173326749, 1103.616311609744571, 123.0, 32.0 ],
					"text" : "Salida MIDI"
				}

			}
, 			{
				"box" : 				{
					"bubble" : 1,
					"fontsize" : 22.717271995162591,
					"id" : "obj-149",
					"maxclass" : "comment",
					"numinlets" : 1,
					"numoutlets" : 0,
					"patching_rect" : [ 472.855426967144354, 1445.178356170654752, 216.123895585536957, 37.0 ],
					"text" : "Debug parametros",
					"textcolor" : [ 0.0, 0.0, 0.0, 1.0 ]
				}

			}
, 			{
				"box" : 				{
					"bubble" : 1,
					"bubbleside" : 3,
					"id" : "obj-174",
					"maxclass" : "comment",
					"numinlets" : 1,
					"numoutlets" : 0,
					"patching_rect" : [ 13.976006871178583, 1160.084685973564774, 71.333330988883972, 24.0 ],
					"text" : "Debug",
					"textcolor" : [ 0.0, 0.0, 0.0, 1.0 ]
				}

			}
, 			{
				"box" : 				{
					"fontsize" : 35.882681015278941,
					"id" : "obj-178",
					"maxclass" : "comment",
					"numinlets" : 1,
					"numoutlets" : 0,
					"patching_rect" : [ 12.376006847336726, 1522.845546185970306, 148.0, 48.0 ],
					"presentation" : 1,
					"presentation_rect" : [ 1021.815788984298706, 404.936214864253884, 128.0, 48.0 ],
					"text" : "Volume"
				}

			}
, 			{
				"box" : 				{
					"id" : "obj-179",
					"maxclass" : "message",
					"numinlets" : 2,
					"numoutlets" : 1,
					"outlettype" : [ "" ],
					"patching_rect" : [ 87.466663122177124, 1160.084685973564774, 124.390245676040649, 22.0 ],
					"text" : "midievent 144 84 0"
				}

			}
, 			{
				"box" : 				{
					"fontname" : "Arial",
					"fontsize" : 13.0,
					"format" : 6,
					"id" : "obj-186",
					"maxclass" : "flonum",
					"numinlets" : 1,
					"numoutlets" : 2,
					"outlettype" : [ "", "bang" ],
					"parameter_enable" : 0,
					"patching_rect" : [ 399.818225701622964, 1452.178356170654297, 54.0, 23.0 ],
					"varname" : "number[12]"
				}

			}
, 			{
				"box" : 				{
					"fontname" : "Arial",
					"fontsize" : 13.0,
					"id" : "obj-189",
					"maxclass" : "number",
					"numinlets" : 1,
					"numoutlets" : 2,
					"outlettype" : [ "", "bang" ],
					"parameter_enable" : 0,
					"patching_rect" : [ 289.818225701622737, 1452.178356170654297, 53.0, 23.0 ],
					"varname" : "number[17]"
				}

			}
, 			{
				"box" : 				{
					"fontname" : "Arial",
					"fontsize" : 13.0,
					"id" : "obj-195",
					"maxclass" : "newobj",
					"numinlets" : 1,
					"numoutlets" : 2,
					"outlettype" : [ "int", "float" ],
					"patching_rect" : [ 289.818225701622737, 1422.178356170654297, 129.0, 23.0 ],
					"text" : "unpack 0 0."
				}

			}
, 			{
				"box" : 				{
					"fontname" : "Arial",
					"fontsize" : 13.0,
					"id" : "obj-200",
					"maxclass" : "comment",
					"numinlets" : 1,
					"numoutlets" : 0,
					"patching_rect" : [ 284.818225701622737, 1477.178356170654297, 105.0, 21.0 ],
					"text" : "parameter index"
				}

			}
, 			{
				"box" : 				{
					"fontname" : "Arial",
					"fontsize" : 13.0,
					"id" : "obj-208",
					"maxclass" : "comment",
					"numinlets" : 1,
					"numoutlets" : 0,
					"patching_rect" : [ 394.818225701622964, 1477.178356170654297, 72.0, 21.0 ],
					"text" : "value (0-1)"
				}

			}
, 			{
				"box" : 				{
					"id" : "obj-216",
					"linecount" : 3,
					"maxclass" : "comment",
					"numinlets" : 1,
					"numoutlets" : 0,
					"patching_rect" : [ 447.728377153448378, 1388.532736029667376, 180.526313424110413, 48.0 ],
					"text" : "Para ver los parámetros, habilitar \"show controls in Patcher\", seccion \"appearance\""
				}

			}
, 			{
				"box" : 				{
					"id" : "obj-223",
					"maxclass" : "ezdac~",
					"numinlets" : 2,
					"numoutlets" : 0,
					"patching_rect" : [ 211.977347956754443, 1791.751436173915863, 75.916667938232422, 75.916667938232422 ]
				}

			}
, 			{
				"box" : 				{
					"fontname" : "Arial",
					"fontsize" : 13.0,
					"id" : "obj-224",
					"maxclass" : "newobj",
					"numinlets" : 7,
					"numoutlets" : 2,
					"outlettype" : [ "int", "" ],
					"patching_rect" : [ 161.066664218902588, 1128.449645817279816, 69.99024486541748, 23.0 ],
					"text" : "midiformat"
				}

			}
, 			{
				"box" : 				{
					"fontname" : "Arial",
					"fontsize" : 13.0,
					"id" : "obj-225",
					"maxclass" : "newobj",
					"numinlets" : 2,
					"numoutlets" : 1,
					"outlettype" : [ "" ],
					"patching_rect" : [ 161.066664218902588, 1068.76666796207428, 103.0, 23.0 ],
					"text" : "join"
				}

			}
, 			{
				"box" : 				{
					"autosave" : 1,
					"bgmode" : 0,
					"border" : 0,
					"clickthrough" : 0,
					"id" : "obj-250",
					"maxclass" : "newobj",
					"numinlets" : 2,
					"numoutlets" : 8,
					"offset" : [ 0.0, 0.0 ],
					"outlettype" : [ "signal", "signal", "", "list", "int", "", "", "" ],
					"patching_rect" : [ 212.056909084320068, 1388.532736029667376, 200.44307210703937, 22.0 ],
					"save" : [ "#N", "vst~", "loaduniqueid", 0, ";" ],
					"saved_attribute_attributes" : 					{
						"valueof" : 						{
							"parameter_invisible" : 1,
							"parameter_longname" : "vst~[3]",
							"parameter_modmode" : 0,
							"parameter_osc_name" : "<default>",
							"parameter_shortname" : "vst~[1]",
							"parameter_type" : 3
						}

					}
,
					"saved_object_attributes" : 					{
						"parameter_enable" : 1,
						"parameter_mappable" : 0
					}
,
					"snapshot" : 					{
						"filetype" : "C74Snapshot",
						"version" : 2,
						"minorversion" : 0,
						"name" : "snapshotlist",
						"origin" : "vst~",
						"type" : "list",
						"subtype" : "Undefined",
						"embed" : 1,
						"snapshot" : 						{

						}
,
						"snapshotlist" : 						{
							"current_snapshot" : 0,
							"entries" : [ 								{
									"filetype" : "C74Snapshot",
									"version" : 2,
									"minorversion" : 0,
									"name" : "Pianoteq 6",
									"origin" : "",
									"type" : "AudioUnit",
									"subtype" : "AudioEffect",
									"embed" : 1,
									"snapshot" : 									{

									}
,
									"fileref" : 									{
										"name" : "Pianoteq 6",
										"filename" : "Pianoteq 6.maxsnap",
										"filepath" : "~/Documents/Max 9/Snapshots",
										"filepos" : -1,
										"snapshotfileid" : "14fe3681ce8c58d0fedf945abce54ab3"
									}

								}
 ]
						}

					}
,
					"text" : "vst~",
					"varname" : "vst~[1]",
					"viewvisibility" : 0
				}

			}
, 			{
				"box" : 				{
					"fontsize" : 28.0,
					"id" : "obj-127",
					"linecount" : 2,
					"maxclass" : "comment",
					"numinlets" : 1,
					"numoutlets" : 0,
					"patching_rect" : [ 953.466662585735321, 155.26666796207428, 401.0, 71.0 ],
					"presentation" : 1,
					"presentation_rect" : [ 72.823853453000424, 336.037780437868605, 639.0, 39.0 ],
					"text" : "Select Markov Chain Order Parameters... and then"
				}

			}
, 			{
				"box" : 				{
					"id" : "obj-111",
					"maxclass" : "comment",
					"numinlets" : 1,
					"numoutlets" : 0,
					"patching_rect" : [ 868.316664218902588, 988.26666796207428, 37.0, 20.0 ],
					"text" : "msec"
				}

			}
, 			{
				"box" : 				{
					"id" : "obj-73",
					"maxclass" : "toggle",
					"numinlets" : 1,
					"numoutlets" : 1,
					"outlettype" : [ "int" ],
					"parameter_enable" : 0,
					"patching_rect" : [ 430.05833015839255, 154.26666796207428, 24.0, 24.0 ],
					"svg" : ""
				}

			}
, 			{
				"box" : 				{
					"id" : "obj-164",
					"maxclass" : "message",
					"numinlets" : 2,
					"numoutlets" : 1,
					"outlettype" : [ "" ],
					"patching_rect" : [ 464.316664218902588, 130.26666796207428, 29.5, 22.0 ],
					"text" : "1"
				}

			}
, 			{
				"box" : 				{
					"id" : "obj-163",
					"maxclass" : "message",
					"numinlets" : 2,
					"numoutlets" : 1,
					"outlettype" : [ "" ],
					"patching_rect" : [ 430.05833015839255, 130.26666796207428, 29.5, 22.0 ],
					"text" : "0"
				}

			}
, 			{
				"box" : 				{
					"id" : "obj-161",
					"maxclass" : "newobj",
					"numinlets" : 2,
					"numoutlets" : 1,
					"outlettype" : [ "" ],
					"patching_rect" : [ 464.316664218902588, 187.26666796207428, 57.5, 22.0 ],
					"text" : "gate"
				}

			}
, 			{
				"box" : 				{
					"id" : "obj-160",
					"maxclass" : "message",
					"numinlets" : 2,
					"numoutlets" : 1,
					"outlettype" : [ "" ],
					"patching_rect" : [ 154.733330885569217, 183.577231476341325, 110.0, 22.0 ],
					"presentation" : 1,
					"presentation_rect" : [ 148.35718719164538, 131.930080466746205, 110.0, 22.0 ],
					"text" : "\"Firth of Fifths.mid\""
				}

			}
, 			{
				"box" : 				{
					"id" : "obj-158",
					"maxclass" : "message",
					"numinlets" : 2,
					"numoutlets" : 1,
					"outlettype" : [ "" ],
					"patching_rect" : [ 540.91666579246521, 367.233324152809132, 67.0, 22.0 ],
					"text" : "Let´s build!"
				}

			}
, 			{
				"box" : 				{
					"id" : "obj-156",
					"maxclass" : "newobj",
					"numinlets" : 1,
					"numoutlets" : 8,
					"outlettype" : [ "", "", "", "int", "int", "", "int", "" ],
					"patching_rect" : [ 286.133330682913424, 354.433323962074269, 92.5, 22.0 ],
					"text" : "midiparse"
				}

			}
, 			{
				"box" : 				{
					"id" : "obj-157",
					"maxclass" : "newobj",
					"numinlets" : 1,
					"numoutlets" : 3,
					"outlettype" : [ "int", "bang", "" ],
					"patching_rect" : [ 286.133330682913424, 312.916667938232422, 92.5, 22.0 ],
					"text" : "seq"
				}

			}
, 			{
				"box" : 				{
					"id" : "obj-155",
					"maxclass" : "message",
					"numinlets" : 2,
					"numoutlets" : 1,
					"outlettype" : [ "" ],
					"patching_rect" : [ 586.566664218902588, 272.26666796207428, 71.0, 22.0 ],
					"text" : "Select MIDI"
				}

			}
, 			{
				"box" : 				{
					"id" : "obj-154",
					"maxclass" : "message",
					"numinlets" : 2,
					"numoutlets" : 1,
					"outlettype" : [ "" ],
					"patching_rect" : [ 464.316664218902588, 272.26666796207428, 82.0, 22.0 ],
					"text" : "Ready to play"
				}

			}
, 			{
				"box" : 				{
					"id" : "obj-152",
					"linecount" : 3,
					"maxclass" : "comment",
					"numinlets" : 1,
					"numoutlets" : 0,
					"patching_rect" : [ 965.116664290428162, 631.441464722156525, 181.200000464916229, 48.0 ],
					"text" : "subpatch para contar cantidad de notas superpuestas cuando hay un acorde"
				}

			}
, 			{
				"box" : 				{
					"fontsize" : 28.0,
					"id" : "obj-150",
					"linecount" : 2,
					"maxclass" : "comment",
					"numinlets" : 1,
					"numoutlets" : 0,
					"patching_rect" : [ 419.355007727913517, 42.419336984191972, 257.0, 71.0 ],
					"presentation" : 1,
					"presentation_rect" : [ 56.149122317631964, 11.478157389823124, 458.0, 39.0 ],
					"text" : "Choose a file or select one example"
				}

			}
, 			{
				"box" : 				{
					"id" : "obj-144",
					"maxclass" : "message",
					"numinlets" : 2,
					"numoutlets" : 1,
					"outlettype" : [ "" ],
					"patching_rect" : [ 833.066687405109406, 932.266691505908966, 50.0, 22.0 ],
					"text" : "26020"
				}

			}
, 			{
				"box" : 				{
					"id" : "obj-119",
					"maxclass" : "newobj",
					"numinlets" : 1,
					"numoutlets" : 1,
					"outlettype" : [ "" ],
					"patching_rect" : [ 335.933330933252932, 228.113998701538009, 79.0, 22.0 ],
					"text" : "append 1024"
				}

			}
, 			{
				"box" : 				{
					"id" : "obj-109",
					"maxclass" : "newobj",
					"numinlets" : 1,
					"numoutlets" : 2,
					"outlettype" : [ "int", "int" ],
					"patching_rect" : [ 286.133330682913424, 414.51666796207428, 59.25, 22.0 ],
					"text" : "unpack"
				}

			}
, 			{
				"box" : 				{
					"fontsize" : 19.861375862297116,
					"id" : "obj-80",
					"maxclass" : "comment",
					"numinlets" : 1,
					"numoutlets" : 0,
					"patching_rect" : [ 1263.816664218902588, 323.133323234897603, 84.0, 29.0 ],
					"presentation" : 1,
					"presentation_rect" : [ 507.906805713971494, 379.77832967042923, 84.0, 29.0 ],
					"text" : "Duration"
				}

			}
, 			{
				"box" : 				{
					"fontsize" : 19.861375862297116,
					"id" : "obj-76",
					"maxclass" : "comment",
					"numinlets" : 1,
					"numoutlets" : 0,
					"patching_rect" : [ 1172.816664218902588, 378.61399870153798, 105.0, 29.0 ],
					"presentation" : 1,
					"presentation_rect" : [ 383.038384397824643, 379.77832967042923, 105.0, 29.0 ],
					"text" : "Separation"
				}

			}
, 			{
				"box" : 				{
					"fontsize" : 19.861375862297116,
					"id" : "obj-42",
					"maxclass" : "comment",
					"numinlets" : 1,
					"numoutlets" : 0,
					"patching_rect" : [ 1079.566664218902588, 323.133323234897603, 96.0, 29.0 ],
					"presentation" : 1,
					"presentation_rect" : [ 276.367331465085385, 379.77832967042923, 96.0, 29.0 ],
					"text" : "Dynamics"
				}

			}
, 			{
				"box" : 				{
					"fontsize" : 19.861375862297116,
					"id" : "obj-5",
					"maxclass" : "comment",
					"numinlets" : 1,
					"numoutlets" : 0,
					"patching_rect" : [ 992.116664409637451, 375.133324009757985, 60.0, 29.0 ],
					"presentation" : 1,
					"presentation_rect" : [ 189.120345274607416, 379.77832967042923, 60.0, 29.0 ],
					"text" : "Notes"
				}

			}
, 			{
				"box" : 				{
					"color" : [ 0.996078431372549, 1.0, 0.47843137254902, 1.0 ],
					"id" : "obj-7",
					"maxclass" : "newobj",
					"numinlets" : 1,
					"numoutlets" : 1,
					"outlettype" : [ "" ],
					"patching_rect" : [ 485.816664218902588, 717.26666796207428, 77.0, 22.0 ],
					"text" : "loadmess 50"
				}

			}
, 			{
				"box" : 				{
					"id" : "obj-110",
					"maxclass" : "button",
					"numinlets" : 1,
					"numoutlets" : 1,
					"outlettype" : [ "bang" ],
					"parameter_enable" : 0,
					"patching_rect" : [ 1017.816664218902588, 987.26666796207428, 24.0, 24.0 ]
				}

			}
, 			{
				"box" : 				{
					"id" : "obj-108",
					"maxclass" : "button",
					"numinlets" : 1,
					"numoutlets" : 1,
					"outlettype" : [ "bang" ],
					"parameter_enable" : 0,
					"patching_rect" : [ 688.316664218902588, 963.26666796207428, 24.0, 24.0 ]
				}

			}
, 			{
				"box" : 				{
					"id" : "obj-106",
					"maxclass" : "button",
					"numinlets" : 1,
					"numoutlets" : 1,
					"outlettype" : [ "bang" ],
					"parameter_enable" : 0,
					"patching_rect" : [ 399.691664218902588, 964.26666796207428, 24.0, 24.0 ]
				}

			}
, 			{
				"box" : 				{
					"fontsize" : 21.435295776205869,
					"id" : "obj-103",
					"maxclass" : "comment",
					"numinlets" : 1,
					"numoutlets" : 0,
					"patching_rect" : [ 81.566664218902588, 321.433323962074269, 85.0, 31.0 ],
					"presentation" : 1,
					"presentation_rect" : [ 907.917176193552677, 29.948134342667146, 85.0, 31.0 ],
					"text" : "Loading"
				}

			}
, 			{
				"box" : 				{
					"id" : "obj-102",
					"maxclass" : "newobj",
					"numinlets" : 1,
					"numoutlets" : 4,
					"outlettype" : [ "Select MIDI", "int", "bang", "" ],
					"patching_rect" : [ 586.566664218902588, 224.613998701538009, 115.0, 22.0 ],
					"text" : "t \"Select MIDI\" 0 b s"
				}

			}
, 			{
				"box" : 				{
					"id" : "obj-92",
					"maxclass" : "newobj",
					"numinlets" : 1,
					"numoutlets" : 2,
					"outlettype" : [ "Ready to play", "" ],
					"patching_rect" : [ 464.316664218902588, 224.613998701538009, 106.0, 22.0 ],
					"text" : "t \"Ready to play\" s"
				}

			}
, 			{
				"box" : 				{
					"fontsize" : 31.561866796558686,
					"id" : "obj-90",
					"linecount" : 2,
					"maxclass" : "message",
					"numinlets" : 2,
					"numoutlets" : 1,
					"outlettype" : [ "" ],
					"patching_rect" : [ 523.534252424792612, 409.333324474674214, 133.0, 81.0 ],
					"presentation" : 1,
					"presentation_rect" : [ 918.917176193552677, 135.430080466746205, 213.898612790745801, 45.0 ],
					"text" : "Ready to play",
					"textjustification" : 1
				}

			}
, 			{
				"box" : 				{
					"fontsize" : 21.435295776205869,
					"id" : "obj-85",
					"maxclass" : "comment",
					"numinlets" : 1,
					"numoutlets" : 0,
					"patching_rect" : [ 389.69166499376297, 455.76666796207428, 81.75, 31.0 ],
					"presentation" : 1,
					"presentation_rect" : [ 1061.306762046338008, 29.948134342667146, 80.0, 31.0 ],
					"text" : "Loaded"
				}

			}
, 			{
				"box" : 				{
					"fontsize" : 28.0,
					"id" : "obj-82",
					"maxclass" : "comment",
					"numinlets" : 1,
					"numoutlets" : 0,
					"patching_rect" : [ 269.066664218902588, 552.183323962074269, 71.0, 39.0 ],
					"presentation" : 1,
					"presentation_rect" : [ 62.323853453000424, 576.936214864253998, 71.0, 39.0 ],
					"text" : "Play!"
				}

			}
, 			{
				"box" : 				{
					"fontsize" : 19.861375862297116,
					"id" : "obj-25",
					"maxclass" : "comment",
					"numinlets" : 1,
					"numoutlets" : 0,
					"patching_rect" : [ 893.066664218902588, 323.133323234897603, 73.0, 29.0 ],
					"presentation" : 1,
					"presentation_rect" : [ 78.323853453000424, 379.77832967042923, 73.0, 29.0 ],
					"text" : "Chords"
				}

			}
, 			{
				"box" : 				{
					"fontsize" : 22.0,
					"id" : "obj-101",
					"maxclass" : "comment",
					"numinlets" : 1,
					"numoutlets" : 0,
					"patching_rect" : [ 557.566664218902588, 668.933323962074269, 111.0, 32.0 ],
					"presentation" : 1,
					"presentation_rect" : [ 968.426944113515447, 607.360930911719493, 84.0, 32.0 ],
					"text" : "Velocity"
				}

			}
, 			{
				"box" : 				{
					"fontsize" : 22.0,
					"id" : "obj-99",
					"maxclass" : "comment",
					"numinlets" : 1,
					"numoutlets" : 0,
					"patching_rect" : [ 1697.501447975635529, 307.505303671325578, 98.0, 32.0 ],
					"presentation" : 1,
					"presentation_rect" : [ 783.770209183641555, 607.360930911719493, 92.0, 32.0 ],
					"text" : "Duration"
				}

			}
, 			{
				"box" : 				{
					"format" : 6,
					"id" : "obj-93",
					"maxclass" : "flonum",
					"numinlets" : 1,
					"numoutlets" : 2,
					"outlettype" : [ "", "bang" ],
					"parameter_enable" : 0,
					"patching_rect" : [ 1676.416679799556732, 438.914004495109452, 50.0, 22.0 ]
				}

			}
, 			{
				"box" : 				{
					"format" : 6,
					"id" : "obj-94",
					"maxclass" : "flonum",
					"numinlets" : 1,
					"numoutlets" : 2,
					"outlettype" : [ "", "bang" ],
					"parameter_enable" : 0,
					"patching_rect" : [ 1640.816664218902588, 488.313997974361314, 92.400000631809235, 22.0 ],
					"presentation" : 1,
					"presentation_rect" : [ 787.770209183641555, 732.936214864253998, 84.0, 22.0 ]
				}

			}
, 			{
				"box" : 				{
					"id" : "obj-95",
					"maxclass" : "newobj",
					"numinlets" : 2,
					"numoutlets" : 1,
					"outlettype" : [ "float" ],
					"patching_rect" : [ 1640.816664218902588, 455.313997974361314, 32.0, 22.0 ],
					"text" : "/ 16."
				}

			}
, 			{
				"box" : 				{
					"id" : "obj-96",
					"maxclass" : "dial",
					"min" : 1.0,
					"numinlets" : 1,
					"numoutlets" : 1,
					"outlettype" : [ "float" ],
					"parameter_enable" : 0,
					"patching_rect" : [ 1640.816664218902588, 378.61399870153798, 53.0, 53.0 ],
					"presentation" : 1,
					"presentation_rect" : [ 787.770209183641555, 646.936214864253998, 84.0, 84.0 ],
					"size" : 96.0
				}

			}
, 			{
				"box" : 				{
					"format" : 6,
					"id" : "obj-89",
					"maxclass" : "flonum",
					"numinlets" : 1,
					"numoutlets" : 2,
					"outlettype" : [ "", "bang" ],
					"parameter_enable" : 0,
					"patching_rect" : [ 1532.666679799556732, 438.914004495109452, 50.0, 22.0 ]
				}

			}
, 			{
				"box" : 				{
					"color" : [ 0.996078431372549, 1.0, 0.47843137254902, 1.0 ],
					"id" : "obj-87",
					"maxclass" : "newobj",
					"numinlets" : 1,
					"numoutlets" : 1,
					"outlettype" : [ "" ],
					"patching_rect" : [ 1497.066664218902588, 341.613998641933335, 77.0, 22.0 ],
					"text" : "loadmess 15"
				}

			}
, 			{
				"box" : 				{
					"fontsize" : 22.0,
					"id" : "obj-81",
					"maxclass" : "comment",
					"numinlets" : 1,
					"numoutlets" : 0,
					"patching_rect" : [ 1436.551446557044983, 303.505303611720933, 72.0, 32.0 ],
					"presentation" : 1,
					"presentation_rect" : [ 577.380623330856224, 607.360930911719493, 72.0, 32.0 ],
					"text" : "Speed"
				}

			}
, 			{
				"box" : 				{
					"id" : "obj-74",
					"maxclass" : "comment",
					"numinlets" : 1,
					"numoutlets" : 0,
					"patching_rect" : [ 383.816664218902588, 857.26666796207428, 91.0, 20.0 ],
					"text" : "Diámicas notas"
				}

			}
, 			{
				"box" : 				{
					"id" : "obj-72",
					"maxclass" : "message",
					"numinlets" : 2,
					"numoutlets" : 1,
					"outlettype" : [ "" ],
					"patching_rect" : [ 154.733330885569217, 91.419336984191972, 174.0, 22.0 ],
					"presentation" : 1,
					"presentation_rect" : [ 148.35718719164538, 59.912026590825263, 174.0, 22.0 ],
					"text" : "\"Super Mario Bros Theme.mid\""
				}

			}
, 			{
				"box" : 				{
					"fontsize" : 19.653454832407718,
					"id" : "obj-69",
					"maxclass" : "message",
					"numinlets" : 2,
					"numoutlets" : 1,
					"outlettype" : [ "" ],
					"patching_rect" : [ 411.516664266586304, 194.113998701538009, 46.0, 31.0 ],
					"presentation" : 1,
					"presentation_rect" : [ 357.436133543650385, 95.912026590825263, 49.0, 31.0 ],
					"text" : "stop"
				}

			}
, 			{
				"box" : 				{
					"fontsize" : 20.646404081895927,
					"id" : "obj-52",
					"maxclass" : "message",
					"numinlets" : 2,
					"numoutlets" : 1,
					"outlettype" : [ "" ],
					"patching_rect" : [ 335.933330933252932, 194.113998701538009, 49.0, 32.0 ],
					"presentation" : 1,
					"presentation_rect" : [ 357.436133543650385, 59.912026590825263, 49.0, 32.0 ],
					"text" : "start"
				}

			}
, 			{
				"box" : 				{
					"bubble" : 1,
					"id" : "obj-49",
					"linecount" : 6,
					"maxclass" : "comment",
					"numinlets" : 1,
					"numoutlets" : 0,
					"patching_rect" : [ 688.316664218902588, 571.76666796207428, 119.0, 93.0 ],
					"text" : "Para saber cuándo separar un grupo de notas en un acorde, arpeggio o notas sueltas"
				}

			}
, 			{
				"box" : 				{
					"bubble" : 1,
					"fontsize" : 18.75889339766443,
					"id" : "obj-47",
					"maxclass" : "comment",
					"numinlets" : 1,
					"numoutlets" : 0,
					"patching_rect" : [ 351.816664218902588, 663.26666796207428, 76.5, 32.0 ],
					"text" : "Pulso"
				}

			}
, 			{
				"box" : 				{
					"bubble" : 1,
					"id" : "obj-44",
					"linecount" : 4,
					"maxclass" : "comment",
					"numinlets" : 1,
					"numoutlets" : 0,
					"patching_rect" : [ 939.316664218902588, 703.76666796207428, 181.0, 66.0 ],
					"text" : "Ponele que toco un acorde, pero unas notas las suelto antes que otras... tienen diferente duración"
				}

			}
, 			{
				"box" : 				{
					"id" : "obj-39",
					"maxclass" : "comment",
					"numinlets" : 1,
					"numoutlets" : 0,
					"patching_rect" : [ 1040.566664218902588, 882.26666796207428, 145.0, 20.0 ],
					"text" : "Duración notas y acordes"
				}

			}
, 			{
				"box" : 				{
					"id" : "obj-38",
					"maxclass" : "comment",
					"numinlets" : 1,
					"numoutlets" : 0,
					"patching_rect" : [ 767.566664218902588, 882.26666796207428, 142.0, 20.0 ],
					"text" : "Separación / ritmo notas "
				}

			}
, 			{
				"box" : 				{
					"id" : "obj-36",
					"maxclass" : "comment",
					"numinlets" : 1,
					"numoutlets" : 0,
					"patching_rect" : [ 214.066664218902588, 857.26666796207428, 81.0, 20.0 ],
					"text" : "Notas sueltas"
				}

			}
, 			{
				"box" : 				{
					"id" : "obj-28",
					"maxclass" : "comment",
					"numinlets" : 1,
					"numoutlets" : 0,
					"patching_rect" : [ 196.066664218902588, 792.26666796207428, 53.0, 20.0 ],
					"text" : "Acordes"
				}

			}
, 			{
				"box" : 				{
					"id" : "obj-142",
					"maxclass" : "message",
					"numinlets" : 2,
					"numoutlets" : 1,
					"outlettype" : [ "" ],
					"patching_rect" : [ 154.733330885569217, 124.077231476341325, 111.0, 22.0 ],
					"presentation" : 1,
					"presentation_rect" : [ 148.35718719164538, 83.930080466746205, 111.0, 22.0 ],
					"text" : "green-hill-zone.mid"
				}

			}
, 			{
				"box" : 				{
					"id" : "obj-136",
					"maxclass" : "newobj",
					"numinlets" : 1,
					"numoutlets" : 2,
					"outlettype" : [ "int", "Let´s build!" ],
					"patching_rect" : [ 403.81666499376297, 354.433323962074269, 102.5, 22.0 ],
					"text" : "t 1 \"Let´s build!\""
				}

			}
, 			{
				"box" : 				{
					"id" : "obj-135",
					"maxclass" : "number",
					"numinlets" : 1,
					"numoutlets" : 2,
					"outlettype" : [ "", "bang" ],
					"parameter_enable" : 0,
					"patching_rect" : [ 501.21666419506073, 890.26666796207428, 35.0, 22.0 ],
					"presentation" : 1,
					"presentation_rect" : [ 991.926944113515447, 732.436214864253998, 37.0, 22.0 ]
				}

			}
, 			{
				"box" : 				{
					"id" : "obj-133",
					"maxclass" : "slider",
					"min" : -50.0,
					"numinlets" : 1,
					"numoutlets" : 1,
					"outlettype" : [ "" ],
					"parameter_enable" : 0,
					"patching_rect" : [ 485.816664218902588, 746.26666796207428, 35.0, 140.0 ],
					"presentation" : 1,
					"presentation_rect" : [ 991.926944113515447, 646.936214864253998, 37.0, 89.5 ],
					"size" : 101.0
				}

			}
, 			{
				"box" : 				{
					"color" : [ 0.996078431372549, 1.0, 0.47843137254902, 1.0 ],
					"id" : "obj-131",
					"maxclass" : "newobj",
					"numinlets" : 1,
					"numoutlets" : 1,
					"outlettype" : [ "" ],
					"patching_rect" : [ 809.316664218902588, 358.26666796207428, 70.0, 22.0 ],
					"text" : "loadmess 2"
				}

			}
, 			{
				"box" : 				{
					"id" : "obj-129",
					"maxclass" : "number",
					"maximum" : 6,
					"minimum" : 0,
					"numinlets" : 1,
					"numoutlets" : 2,
					"outlettype" : [ "", "bang" ],
					"parameter_enable" : 0,
					"patching_rect" : [ 809.316664218902588, 386.76666796207428, 50.0, 22.0 ]
				}

			}
, 			{
				"box" : 				{
					"fontsize" : 24.0,
					"id" : "obj-124",
					"ignoreclick" : 1,
					"maxclass" : "number",
					"numinlets" : 1,
					"numoutlets" : 2,
					"outlettype" : [ "", "bang" ],
					"parameter_enable" : 0,
					"patching_rect" : [ 1271.05931127772601, 516.683323962074155, 78.0, 36.0 ],
					"presentation" : 1,
					"presentation_rect" : [ 539.910711963971494, 434.77832967042923, 27.9921875, 36.0 ],
					"triangle" : 0
				}

			}
, 			{
				"box" : 				{
					"id" : "obj-125",
					"maxclass" : "dial",
					"min" : 1.0,
					"numinlets" : 1,
					"numoutlets" : 1,
					"outlettype" : [ "float" ],
					"parameter_enable" : 0,
					"patching_rect" : [ 1263.816664218902588, 428.76666796207428, 84.0, 84.0 ],
					"presentation" : 1,
					"presentation_rect" : [ 507.906805713971494, 410.77832967042923, 84.0, 84.0 ],
					"size" : 6.0
				}

			}
, 			{
				"box" : 				{
					"id" : "obj-126",
					"maxclass" : "newobj",
					"numinlets" : 1,
					"numoutlets" : 1,
					"outlettype" : [ "" ],
					"patching_rect" : [ 1263.816664218902588, 554.683323962074269, 84.0, 22.0 ],
					"text" : "prepend order"
				}

			}
, 			{
				"box" : 				{
					"fontsize" : 24.0,
					"id" : "obj-120",
					"ignoreclick" : 1,
					"maxclass" : "number",
					"numinlets" : 1,
					"numoutlets" : 2,
					"outlettype" : [ "", "bang" ],
					"parameter_enable" : 0,
					"patching_rect" : [ 1180.05931127772601, 517.183323962074155, 78.0, 36.0 ],
					"presentation" : 1,
					"presentation_rect" : [ 424.542290647824643, 434.77832967042923, 27.9921875, 36.0 ],
					"triangle" : 0
				}

			}
, 			{
				"box" : 				{
					"id" : "obj-121",
					"maxclass" : "dial",
					"min" : 1.0,
					"numinlets" : 1,
					"numoutlets" : 1,
					"outlettype" : [ "float" ],
					"parameter_enable" : 0,
					"patching_rect" : [ 1172.816664218902588, 429.26666796207428, 84.0, 84.0 ],
					"presentation" : 1,
					"presentation_rect" : [ 393.538384397824643, 410.77832967042923, 84.0, 84.0 ],
					"size" : 6.0
				}

			}
, 			{
				"box" : 				{
					"id" : "obj-122",
					"maxclass" : "newobj",
					"numinlets" : 1,
					"numoutlets" : 1,
					"outlettype" : [ "" ],
					"patching_rect" : [ 1172.816664218902588, 555.183323962074269, 84.0, 22.0 ],
					"text" : "prepend order"
				}

			}
, 			{
				"box" : 				{
					"fontsize" : 24.0,
					"id" : "obj-116",
					"ignoreclick" : 1,
					"maxclass" : "number",
					"numinlets" : 1,
					"numoutlets" : 2,
					"outlettype" : [ "", "bang" ],
					"parameter_enable" : 0,
					"patching_rect" : [ 1086.80931127772601, 517.183323962074155, 78.0, 36.0 ],
					"presentation" : 1,
					"presentation_rect" : [ 314.581764181455014, 434.77832967042923, 27.9921875, 36.0 ],
					"triangle" : 0
				}

			}
, 			{
				"box" : 				{
					"id" : "obj-117",
					"maxclass" : "dial",
					"min" : 1.0,
					"numinlets" : 1,
					"numoutlets" : 1,
					"outlettype" : [ "float" ],
					"parameter_enable" : 0,
					"patching_rect" : [ 1079.566664218902588, 429.26666796207428, 84.0, 84.0 ],
					"presentation" : 1,
					"presentation_rect" : [ 282.367331465085385, 410.77832967042923, 84.0, 84.0 ],
					"size" : 6.0
				}

			}
, 			{
				"box" : 				{
					"id" : "obj-118",
					"maxclass" : "newobj",
					"numinlets" : 1,
					"numoutlets" : 1,
					"outlettype" : [ "" ],
					"patching_rect" : [ 1079.566664218902588, 555.183323962074269, 84.0, 22.0 ],
					"text" : "prepend order"
				}

			}
, 			{
				"box" : 				{
					"fontsize" : 24.0,
					"id" : "obj-112",
					"ignoreclick" : 1,
					"maxclass" : "number",
					"numinlets" : 1,
					"numoutlets" : 2,
					"outlettype" : [ "", "bang" ],
					"parameter_enable" : 0,
					"patching_rect" : [ 993.55931127772601, 517.183323962074155, 78.0, 36.0 ],
					"presentation" : 1,
					"presentation_rect" : [ 208.124251524607416, 434.77832967042923, 27.9921875, 36.0 ],
					"triangle" : 0
				}

			}
, 			{
				"box" : 				{
					"id" : "obj-113",
					"maxclass" : "dial",
					"min" : 1.0,
					"numinlets" : 1,
					"numoutlets" : 1,
					"outlettype" : [ "float" ],
					"parameter_enable" : 0,
					"patching_rect" : [ 986.316664218902588, 429.26666796207428, 84.0, 84.0 ],
					"presentation" : 1,
					"presentation_rect" : [ 177.120345274607416, 410.77832967042923, 84.0, 84.0 ],
					"size" : 6.0
				}

			}
, 			{
				"box" : 				{
					"id" : "obj-114",
					"maxclass" : "newobj",
					"numinlets" : 1,
					"numoutlets" : 1,
					"outlettype" : [ "" ],
					"patching_rect" : [ 986.316664218902588, 555.183323962074269, 84.0, 22.0 ],
					"text" : "prepend order"
				}

			}
, 			{
				"box" : 				{
					"format" : 6,
					"id" : "obj-97",
					"maxclass" : "flonum",
					"numinlets" : 1,
					"numoutlets" : 2,
					"outlettype" : [ "", "bang" ],
					"parameter_enable" : 0,
					"patching_rect" : [ 1497.066664218902588, 488.313997974361314, 92.400000631809235, 22.0 ],
					"presentation" : 1,
					"presentation_rect" : [ 571.380623330856224, 732.936214864253998, 84.0, 22.0 ]
				}

			}
, 			{
				"box" : 				{
					"id" : "obj-98",
					"maxclass" : "newobj",
					"numinlets" : 2,
					"numoutlets" : 1,
					"outlettype" : [ "float" ],
					"patching_rect" : [ 1497.066664218902588, 455.313997974361314, 32.0, 22.0 ],
					"text" : "/ 16."
				}

			}
, 			{
				"box" : 				{
					"id" : "obj-100",
					"maxclass" : "dial",
					"min" : 1.0,
					"numinlets" : 1,
					"numoutlets" : 1,
					"outlettype" : [ "float" ],
					"parameter_enable" : 0,
					"patching_rect" : [ 1497.066664218902588, 378.61399870153798, 53.0, 53.0 ],
					"presentation" : 1,
					"presentation_rect" : [ 571.380623330856224, 646.936214864253998, 84.0, 84.0 ],
					"size" : 64.0
				}

			}
, 			{
				"box" : 				{
					"id" : "obj-61",
					"maxclass" : "newobj",
					"numinlets" : 2,
					"numoutlets" : 1,
					"outlettype" : [ "float" ],
					"patching_rect" : [ 634.316664218902588, 908.26666796207428, 50.5, 22.0 ],
					"text" : "* 1."
				}

			}
, 			{
				"box" : 				{
					"id" : "obj-60",
					"maxclass" : "newobj",
					"numinlets" : 2,
					"numoutlets" : 1,
					"outlettype" : [ "float" ],
					"patching_rect" : [ 907.316664218902588, 932.26666796207428, 75.5, 22.0 ],
					"text" : "* 1."
				}

			}
, 			{
				"box" : 				{
					"id" : "obj-45",
					"maxclass" : "message",
					"numinlets" : 2,
					"numoutlets" : 1,
					"outlettype" : [ "" ],
					"patching_rect" : [ 154.733330885569217, 153.229900736877596, 85.0, 22.0 ],
					"presentation" : 1,
					"presentation_rect" : [ 148.35718719164538, 107.930080466746205, 85.0, 22.0 ],
					"text" : "x-s-theme.mid"
				}

			}
, 			{
				"box" : 				{
					"fontsize" : 24.0,
					"id" : "obj-32",
					"ignoreclick" : 1,
					"maxclass" : "number",
					"numinlets" : 1,
					"numoutlets" : 2,
					"outlettype" : [ "", "bang" ],
					"parameter_enable" : 0,
					"patching_rect" : [ 900.30931127772601, 517.183323962074155, 78.0, 36.0 ],
					"presentation" : 1,
					"presentation_rect" : [ 104.827759703000424, 434.77832967042923, 27.9921875, 36.0 ],
					"triangle" : 0
				}

			}
, 			{
				"box" : 				{
					"id" : "obj-18",
					"maxclass" : "dial",
					"min" : 1.0,
					"numinlets" : 1,
					"numoutlets" : 1,
					"outlettype" : [ "float" ],
					"parameter_enable" : 0,
					"patching_rect" : [ 893.066664218902588, 429.26666796207428, 84.0, 84.0 ],
					"presentation" : 1,
					"presentation_rect" : [ 72.823853453000424, 410.77832967042923, 84.0, 84.0 ],
					"size" : 6.0
				}

			}
, 			{
				"box" : 				{
					"id" : "obj-10",
					"maxclass" : "newobj",
					"numinlets" : 1,
					"numoutlets" : 1,
					"outlettype" : [ "" ],
					"patching_rect" : [ 893.066664218902588, 555.183323962074269, 84.0, 22.0 ],
					"text" : "prepend order"
				}

			}
, 			{
				"box" : 				{
					"fontsize" : 24.369907716816289,
					"id" : "obj-8",
					"maxclass" : "message",
					"numinlets" : 2,
					"numoutlets" : 1,
					"outlettype" : [ "" ],
					"patching_rect" : [ 828.733344515164845, 172.266667962074251, 63.0, 37.0 ],
					"presentation" : 1,
					"presentation_rect" : [ 303.367331465085385, 703.430068545817221, 63.0, 37.0 ],
					"text" : "reset"
				}

			}
, 			{
				"box" : 				{
					"id" : "obj-37",
					"maxclass" : "number",
					"numinlets" : 1,
					"numoutlets" : 2,
					"outlettype" : [ "", "bang" ],
					"parameter_enable" : 0,
					"patching_rect" : [ 357.355007727913517, 1041.76666796207428, 50.0, 22.0 ]
				}

			}
, 			{
				"box" : 				{
					"id" : "obj-34",
					"maxclass" : "comment",
					"numinlets" : 1,
					"numoutlets" : 0,
					"patching_rect" : [ 419.355007727913517, 1041.76666796207428, 85.0, 20.0 ],
					"text" : "MIDI  Channel"
				}

			}
, 			{
				"box" : 				{
					"format" : 6,
					"id" : "obj-30",
					"maxclass" : "flonum",
					"numinlets" : 1,
					"numoutlets" : 2,
					"outlettype" : [ "", "bang" ],
					"parameter_enable" : 0,
					"patching_rect" : [ 907.316664218902588, 987.26666796207428, 103.846158981323242, 22.0 ]
				}

			}
, 			{
				"box" : 				{
					"id" : "obj-20",
					"maxclass" : "number",
					"numinlets" : 1,
					"numoutlets" : 2,
					"outlettype" : [ "", "bang" ],
					"parameter_enable" : 0,
					"patching_rect" : [ 634.316664218902588, 963.26666796207428, 50.0, 22.0 ]
				}

			}
, 			{
				"box" : 				{
					"id" : "obj-16",
					"maxclass" : "number",
					"numinlets" : 1,
					"numoutlets" : 2,
					"outlettype" : [ "", "bang" ],
					"parameter_enable" : 0,
					"patching_rect" : [ 340.816664218902588, 964.26666796207428, 50.0, 22.0 ]
				}

			}
, 			{
				"box" : 				{
					"id" : "obj-9",
					"maxclass" : "newobj",
					"numinlets" : 2,
					"numoutlets" : 1,
					"outlettype" : [ "bang" ],
					"patcher" : 					{
						"fileversion" : 1,
						"appversion" : 						{
							"major" : 9,
							"minor" : 0,
							"revision" : 1,
							"architecture" : "x64",
							"modernui" : 1
						}
,
						"classnamespace" : "box",
						"rect" : [ 59.0, 107.0, 640.0, 480.0 ],
						"gridsize" : [ 15.0, 15.0 ],
						"boxes" : [ 							{
								"box" : 								{
									"id" : "obj-45",
									"maxclass" : "newobj",
									"numinlets" : 2,
									"numoutlets" : 3,
									"outlettype" : [ "bang", "bang", "int" ],
									"patching_rect" : [ 133.0, 349.333344000000011, 29.0, 22.0 ],
									"text" : "uzi"
								}

							}
, 							{
								"box" : 								{
									"id" : "obj-44",
									"maxclass" : "newobj",
									"numinlets" : 1,
									"numoutlets" : 2,
									"outlettype" : [ "bang", "int" ],
									"patching_rect" : [ 133.0, 313.333344000000011, 29.5, 22.0 ],
									"text" : "t b i"
								}

							}
, 							{
								"box" : 								{
									"id" : "obj-42",
									"maxclass" : "newobj",
									"numinlets" : 2,
									"numoutlets" : 2,
									"outlettype" : [ "", "" ],
									"patching_rect" : [ 133.0, 242.333344000000011, 37.0, 22.0 ],
									"text" : "zl.len"
								}

							}
, 							{
								"box" : 								{
									"id" : "obj-39",
									"linecount" : 3,
									"maxclass" : "newobj",
									"numinlets" : 2,
									"numoutlets" : 1,
									"outlettype" : [ "bang" ],
									"patching_rect" : [ 50.0, 133.333344000000011, 81.0, 50.0 ],
									"text" : "delay @delaytime 10 samples"
								}

							}
, 							{
								"box" : 								{
									"id" : "obj-38",
									"maxclass" : "newobj",
									"numinlets" : 2,
									"numoutlets" : 2,
									"outlettype" : [ "", "" ],
									"patching_rect" : [ 133.0, 205.333344000000011, 51.0, 22.0 ],
									"text" : "zl.group"
								}

							}
, 							{
								"box" : 								{
									"id" : "obj-37",
									"maxclass" : "newobj",
									"numinlets" : 1,
									"numoutlets" : 2,
									"outlettype" : [ "bang", "int" ],
									"patching_rect" : [ 50.0, 100.0, 102.0, 22.0 ],
									"text" : "t b i"
								}

							}
, 							{
								"box" : 								{
									"id" : "obj-36",
									"maxclass" : "newobj",
									"numinlets" : 1,
									"numoutlets" : 3,
									"outlettype" : [ "", "", "" ],
									"patching_rect" : [ 133.0, 279.333344000000011, 134.0, 22.0 ],
									"text" : "ml.markov @dynamic 1"
								}

							}
, 							{
								"box" : 								{
									"comment" : "",
									"id" : "obj-5",
									"index" : 1,
									"maxclass" : "inlet",
									"numinlets" : 0,
									"numoutlets" : 1,
									"outlettype" : [ "" ],
									"patching_rect" : [ 50.0, 40.0, 30.0, 30.0 ]
								}

							}
, 							{
								"box" : 								{
									"comment" : "",
									"id" : "obj-7",
									"index" : 2,
									"maxclass" : "inlet",
									"numinlets" : 0,
									"numoutlets" : 1,
									"outlettype" : [ "bang" ],
									"patching_rect" : [ 194.5, 234.333344000000011, 30.0, 30.0 ]
								}

							}
, 							{
								"box" : 								{
									"comment" : "",
									"id" : "obj-8",
									"index" : 1,
									"maxclass" : "outlet",
									"numinlets" : 1,
									"numoutlets" : 0,
									"patching_rect" : [ 133.0, 431.333344000000011, 30.0, 30.0 ]
								}

							}
 ],
						"lines" : [ 							{
								"patchline" : 								{
									"destination" : [ "obj-44", 0 ],
									"source" : [ "obj-36", 0 ]
								}

							}
, 							{
								"patchline" : 								{
									"destination" : [ "obj-38", 0 ],
									"source" : [ "obj-37", 1 ]
								}

							}
, 							{
								"patchline" : 								{
									"destination" : [ "obj-39", 0 ],
									"source" : [ "obj-37", 0 ]
								}

							}
, 							{
								"patchline" : 								{
									"destination" : [ "obj-42", 0 ],
									"source" : [ "obj-38", 0 ]
								}

							}
, 							{
								"patchline" : 								{
									"destination" : [ "obj-38", 0 ],
									"source" : [ "obj-39", 0 ]
								}

							}
, 							{
								"patchline" : 								{
									"destination" : [ "obj-36", 0 ],
									"source" : [ "obj-42", 0 ]
								}

							}
, 							{
								"patchline" : 								{
									"destination" : [ "obj-45", 1 ],
									"source" : [ "obj-44", 1 ]
								}

							}
, 							{
								"patchline" : 								{
									"destination" : [ "obj-45", 0 ],
									"source" : [ "obj-44", 0 ]
								}

							}
, 							{
								"patchline" : 								{
									"destination" : [ "obj-8", 0 ],
									"source" : [ "obj-45", 0 ]
								}

							}
, 							{
								"patchline" : 								{
									"destination" : [ "obj-37", 0 ],
									"source" : [ "obj-5", 0 ]
								}

							}
, 							{
								"patchline" : 								{
									"destination" : [ "obj-36", 0 ],
									"source" : [ "obj-7", 0 ]
								}

							}
 ],
						"originid" : "pat-27"
					}
,
					"patching_rect" : [ 176.066664218902588, 814.26666796207428, 112.0, 22.0 ],
					"saved_object_attributes" : 					{
						"globalpatchername" : ""
					}
,
					"text" : "p Chord_Generator"
				}

			}
, 			{
				"box" : 				{
					"id" : "obj-86",
					"ignoreclick" : 1,
					"maxclass" : "toggle",
					"numinlets" : 1,
					"numoutlets" : 1,
					"outlettype" : [ "int" ],
					"parameter_enable" : 0,
					"patching_rect" : [ 403.81666499376297, 398.76666796207428, 53.5, 53.5 ],
					"presentation" : 1,
					"presentation_rect" : [ 1069.797735108377537, 62.930080466746205, 63.018053875920941, 63.018053875920941 ],
					"svg" : ""
				}

			}
, 			{
				"box" : 				{
					"fontsize" : 35.384785002959752,
					"id" : "obj-83",
					"maxclass" : "message",
					"numinlets" : 2,
					"numoutlets" : 1,
					"outlettype" : [ "" ],
					"patching_rect" : [ 154.733330885569217, 38.419336984191972, 81.420764207839966, 49.0 ],
					"presentation" : 1,
					"presentation_rect" : [ 28.780703624089483, 59.912026590825263, 80.210524439811707, 49.0 ],
					"text" : "read"
				}

			}
, 			{
				"box" : 				{
					"id" : "obj-79",
					"maxclass" : "newobj",
					"numinlets" : 1,
					"numoutlets" : 4,
					"outlettype" : [ "bang", "", "int", "loading..." ],
					"patching_rect" : [ 154.733330885569217, 251.016667783260345, 93.0, 22.0 ],
					"text" : "t b s 0 loading..."
				}

			}
, 			{
				"box" : 				{
					"color" : [ 0.890196078431372, 0.298039215686275, 0.298039215686275, 1.0 ],
					"id" : "obj-78",
					"maxclass" : "newobj",
					"numinlets" : 0,
					"numoutlets" : 1,
					"outlettype" : [ "" ],
					"patching_rect" : [ 292.466664254665375, 775.26666796207428, 43.0, 22.0 ],
					"text" : "r reset"
				}

			}
, 			{
				"box" : 				{
					"fontsize" : 12.312643739525765,
					"id" : "obj-57",
					"maxclass" : "newobj",
					"numinlets" : 1,
					"numoutlets" : 0,
					"patching_rect" : [ 682.366664290428162, 378.133324009757985, 32.0, 23.0 ],
					"text" : "print"
				}

			}
, 			{
				"box" : 				{
					"color" : [ 0.890196078431372, 0.298039215686275, 0.298039215686275, 1.0 ],
					"id" : "obj-59",
					"maxclass" : "newobj",
					"numinlets" : 1,
					"numoutlets" : 0,
					"patching_rect" : [ 711.316664218902588, 272.26666796207428, 45.0, 22.0 ],
					"text" : "s reset"
				}

			}
, 			{
				"box" : 				{
					"fontsize" : 24.213094595356768,
					"id" : "obj-77",
					"maxclass" : "message",
					"numinlets" : 2,
					"numoutlets" : 1,
					"outlettype" : [ "" ],
					"patching_rect" : [ 502.816664218902588, 144.26666796207428, 60.0, 36.0 ],
					"presentation" : 1,
					"presentation_rect" : [ 715.103542407699706, 337.537780437868605, 65.916666666666657, 36.0 ],
					"text" : "build"
				}

			}
, 			{
				"box" : 				{
					"id" : "obj-71",
					"maxclass" : "newobj",
					"numinlets" : 1,
					"numoutlets" : 1,
					"outlettype" : [ "" ],
					"patching_rect" : [ 907.316664218902588, 956.26666796207428, 122.0, 22.0 ],
					"text" : "translate samples ms"
				}

			}
, 			{
				"box" : 				{
					"id" : "obj-70",
					"maxclass" : "newobj",
					"numinlets" : 1,
					"numoutlets" : 3,
					"outlettype" : [ "", "", "" ],
					"patching_rect" : [ 907.316664218902588, 882.26666796207428, 134.0, 22.0 ],
					"text" : "ml.markov @dynamic 1"
				}

			}
, 			{
				"box" : 				{
					"id" : "obj-68",
					"maxclass" : "newobj",
					"numinlets" : 2,
					"numoutlets" : 1,
					"outlettype" : [ "int" ],
					"patching_rect" : [ 907.316664218902588, 856.26666796207428, 30.0, 22.0 ],
					"text" : "* 20"
				}

			}
, 			{
				"box" : 				{
					"id" : "obj-67",
					"maxclass" : "newobj",
					"numinlets" : 2,
					"numoutlets" : 2,
					"outlettype" : [ "", "" ],
					"patching_rect" : [ 907.316664218902588, 832.26666796207428, 47.0, 22.0 ],
					"text" : "zl.iter 1"
				}

			}
, 			{
				"box" : 				{
					"id" : "obj-65",
					"maxclass" : "newobj",
					"numinlets" : 2,
					"numoutlets" : 2,
					"outlettype" : [ "", "" ],
					"patching_rect" : [ 907.316664218902588, 805.26666796207428, 55.0, 22.0 ],
					"text" : "zl.sort -1"
				}

			}
, 			{
				"box" : 				{
					"id" : "obj-62",
					"linecount" : 3,
					"maxclass" : "newobj",
					"numinlets" : 2,
					"numoutlets" : 1,
					"outlettype" : [ "bang" ],
					"patching_rect" : [ 834.816664218902588, 710.76666796207428, 77.0, 50.0 ],
					"text" : "delay @delaytime 10 samples"
				}

			}
, 			{
				"box" : 				{
					"id" : "obj-63",
					"maxclass" : "newobj",
					"numinlets" : 2,
					"numoutlets" : 2,
					"outlettype" : [ "", "" ],
					"patching_rect" : [ 907.316664218902588, 775.26666796207428, 51.0, 22.0 ],
					"text" : "zl.group"
				}

			}
, 			{
				"box" : 				{
					"id" : "obj-64",
					"maxclass" : "newobj",
					"numinlets" : 1,
					"numoutlets" : 2,
					"outlettype" : [ "bang", "int" ],
					"patching_rect" : [ 834.816664218902588, 682.76666796207428, 91.5, 22.0 ],
					"text" : "t b i"
				}

			}
, 			{
				"box" : 				{
					"id" : "obj-56",
					"maxclass" : "newobj",
					"numinlets" : 1,
					"numoutlets" : 1,
					"outlettype" : [ "" ],
					"patching_rect" : [ 834.816664218902588, 607.76666796207428, 101.0, 22.0 ],
					"text" : "prepend midinote"
				}

			}
, 			{
				"box" : 				{
					"id" : "obj-55",
					"linecount" : 2,
					"maxclass" : "newobj",
					"numinlets" : 1,
					"numoutlets" : 2,
					"outlettype" : [ "", "" ],
					"patching_rect" : [ 834.733331322669983, 637.441464722156525, 126.0, 36.0 ],
					"text" : "poly~ Midi_Length 64 @steal 1 @target 0"
				}

			}
, 			{
				"box" : 				{
					"id" : "obj-53",
					"maxclass" : "newobj",
					"numinlets" : 1,
					"numoutlets" : 1,
					"outlettype" : [ "" ],
					"patching_rect" : [ 634.316664218902588, 932.26666796207428, 122.0, 22.0 ],
					"text" : "translate samples ms"
				}

			}
, 			{
				"box" : 				{
					"id" : "obj-51",
					"maxclass" : "newobj",
					"numinlets" : 1,
					"numoutlets" : 3,
					"outlettype" : [ "", "", "" ],
					"patching_rect" : [ 634.316664218902588, 882.26666796207428, 134.0, 22.0 ],
					"text" : "ml.markov @dynamic 1"
				}

			}
, 			{
				"box" : 				{
					"id" : "obj-48",
					"maxclass" : "newobj",
					"numinlets" : 2,
					"numoutlets" : 1,
					"outlettype" : [ "int" ],
					"patching_rect" : [ 634.316664218902588, 858.26666796207428, 30.0, 22.0 ],
					"text" : "* 20"
				}

			}
, 			{
				"box" : 				{
					"id" : "obj-46",
					"maxclass" : "newobj",
					"numinlets" : 2,
					"numoutlets" : 1,
					"outlettype" : [ "int" ],
					"patching_rect" : [ 681.316664218902588, 800.26666796207428, 59.0, 22.0 ],
					"text" : "< 200000"
				}

			}
, 			{
				"box" : 				{
					"id" : "obj-31",
					"maxclass" : "newobj",
					"numinlets" : 2,
					"numoutlets" : 1,
					"outlettype" : [ "" ],
					"patching_rect" : [ 634.316664218902588, 832.26666796207428, 39.0, 22.0 ],
					"text" : "gate"
				}

			}
, 			{
				"box" : 				{
					"id" : "obj-29",
					"linecount" : 3,
					"maxclass" : "newobj",
					"numinlets" : 2,
					"numoutlets" : 1,
					"outlettype" : [ "bang" ],
					"patching_rect" : [ 592.316664218902588, 607.76666796207428, 75.0, 50.0 ],
					"text" : "delay @delaytime 10 samples"
				}

			}
, 			{
				"box" : 				{
					"id" : "obj-27",
					"maxclass" : "newobj",
					"numinlets" : 1,
					"numoutlets" : 3,
					"outlettype" : [ "int", "int", "int" ],
					"patching_rect" : [ 592.316664218902588, 571.76666796207428, 94.0, 22.0 ],
					"text" : "t 1 0 i"
				}

			}
, 			{
				"box" : 				{
					"id" : "obj-3",
					"maxclass" : "newobj",
					"numinlets" : 2,
					"numoutlets" : 1,
					"outlettype" : [ "" ],
					"patching_rect" : [ 634.316664218902588, 671.433323962074269, 52.0, 22.0 ],
					"text" : "gate 1 1"
				}

			}
, 			{
				"box" : 				{
					"id" : "obj-2",
					"maxclass" : "newobj",
					"numinlets" : 1,
					"numoutlets" : 2,
					"outlettype" : [ "bang", "bang" ],
					"patching_rect" : [ 634.316664218902588, 703.76666796207428, 66.0, 22.0 ],
					"text" : "b"
				}

			}
, 			{
				"box" : 				{
					"id" : "obj-1",
					"linecount" : 3,
					"maxclass" : "newobj",
					"numinlets" : 2,
					"numoutlets" : 2,
					"outlettype" : [ "float", "" ],
					"patching_rect" : [ 634.316664218902588, 734.76666796207428, 66.0, 50.0 ],
					"text" : "timer @format samples"
				}

			}
, 			{
				"box" : 				{
					"id" : "obj-24",
					"maxclass" : "newobj",
					"numinlets" : 2,
					"numoutlets" : 1,
					"outlettype" : [ "int" ],
					"patching_rect" : [ 340.816664218902588, 914.26666796207428, 164.0, 22.0 ],
					"text" : "+ 0"
				}

			}
, 			{
				"box" : 				{
					"id" : "obj-17",
					"maxclass" : "newobj",
					"numinlets" : 2,
					"numoutlets" : 1,
					"outlettype" : [ "" ],
					"patching_rect" : [ 201.316664218902588, 512.26666796207428, 34.0, 22.0 ],
					"text" : "gate"
				}

			}
, 			{
				"box" : 				{
					"id" : "obj-19",
					"maxclass" : "newobj",
					"numinlets" : 2,
					"numoutlets" : 1,
					"outlettype" : [ "int" ],
					"patching_rect" : [ 234.566664218902588, 477.26666796207428, 29.5, 22.0 ],
					"text" : "> 0"
				}

			}
, 			{
				"box" : 				{
					"id" : "obj-13",
					"maxclass" : "newobj",
					"numinlets" : 1,
					"numoutlets" : 3,
					"outlettype" : [ "", "", "" ],
					"patching_rect" : [ 340.816664218902588, 882.26666796207428, 134.0, 22.0 ],
					"text" : "ml.markov @dynamic 1"
				}

			}
, 			{
				"box" : 				{
					"id" : "obj-43",
					"maxclass" : "toggle",
					"numinlets" : 1,
					"numoutlets" : 1,
					"outlettype" : [ "int" ],
					"parameter_enable" : 0,
					"patching_rect" : [ 269.066664218902588, 596.433323962074269, 65.0, 65.0 ],
					"presentation" : 1,
					"presentation_rect" : [ 148.35718719164538, 533.936214864253998, 125.0, 125.0 ],
					"svg" : ""
				}

			}
, 			{
				"box" : 				{
					"id" : "obj-41",
					"maxclass" : "newobj",
					"numinlets" : 2,
					"numoutlets" : 1,
					"outlettype" : [ "bang" ],
					"patching_rect" : [ 269.066664218902588, 672.433323962074269, 65.0, 22.0 ],
					"text" : "metro 160"
				}

			}
, 			{
				"box" : 				{
					"id" : "obj-40",
					"ignoreclick" : 1,
					"maxclass" : "button",
					"numinlets" : 1,
					"numoutlets" : 1,
					"outlettype" : [ "bang" ],
					"parameter_enable" : 0,
					"patching_rect" : [ 95.066664218902588, 354.433323962074269, 58.0, 58.0 ],
					"presentation" : 1,
					"presentation_rect" : [ 918.917176193552677, 62.930080466746205, 63.018053875920941, 63.018053875920941 ]
				}

			}
, 			{
				"box" : 				{
					"id" : "obj-6",
					"maxclass" : "newobj",
					"numinlets" : 3,
					"numoutlets" : 0,
					"patching_rect" : [ 273.355007727913517, 1068.76666796207428, 103.0, 22.0 ],
					"text" : "noteout"
				}

			}
, 			{
				"box" : 				{
					"id" : "obj-35",
					"maxclass" : "newobj",
					"numinlets" : 3,
					"numoutlets" : 2,
					"outlettype" : [ "float", "float" ],
					"patching_rect" : [ 161.066664218902588, 996.26666796207428, 103.0, 22.0 ],
					"text" : "makenote 96 159"
				}

			}
, 			{
				"box" : 				{
					"id" : "obj-33",
					"maxclass" : "newobj",
					"numinlets" : 1,
					"numoutlets" : 3,
					"outlettype" : [ "", "", "" ],
					"patching_rect" : [ 161.066664218902588, 882.26666796207428, 134.0, 22.0 ],
					"text" : "ml.markov @dynamic 1"
				}

			}
, 			{
				"box" : 				{
					"id" : "obj-26",
					"maxclass" : "newobj",
					"numinlets" : 2,
					"numoutlets" : 1,
					"outlettype" : [ "" ],
					"patching_rect" : [ 161.066664218902588, 512.26666796207428, 34.0, 22.0 ],
					"text" : "gate"
				}

			}
, 			{
				"box" : 				{
					"id" : "obj-23",
					"maxclass" : "newobj",
					"numinlets" : 1,
					"numoutlets" : 2,
					"outlettype" : [ "int", "int" ],
					"patching_rect" : [ 176.066664218902588, 438.833324474674214, 59.25, 22.0 ],
					"text" : "unpack"
				}

			}
, 			{
				"box" : 				{
					"id" : "obj-22",
					"maxclass" : "newobj",
					"numinlets" : 1,
					"numoutlets" : 8,
					"outlettype" : [ "", "", "", "int", "int", "", "int", "" ],
					"patching_rect" : [ 176.066664218902588, 354.433323962074269, 92.5, 22.0 ],
					"text" : "midiparse"
				}

			}
, 			{
				"box" : 				{
					"id" : "obj-21",
					"maxclass" : "message",
					"numinlets" : 2,
					"numoutlets" : 1,
					"outlettype" : [ "" ],
					"patching_rect" : [ 113.066664218902588, 287.01666796207428, 69.0, 22.0 ],
					"text" : "start 20480"
				}

			}
, 			{
				"box" : 				{
					"id" : "obj-11",
					"maxclass" : "newobj",
					"numinlets" : 1,
					"numoutlets" : 3,
					"outlettype" : [ "int", "bang", "" ],
					"patching_rect" : [ 176.066664218902588, 312.916667938232422, 92.5, 22.0 ],
					"text" : "seq"
				}

			}
, 			{
				"box" : 				{
					"background" : 1,
					"bgcolor" : [ 1.0, 0.788235, 0.470588, 1.0 ],
					"fontname" : "Arial Bold",
					"fontsize" : 20.0,
					"hint" : "",
					"id" : "obj-177",
					"ignoreclick" : 1,
					"legacytextcolor" : 1,
					"maxclass" : "textbutton",
					"numinlets" : 1,
					"numoutlets" : 3,
					"outlettype" : [ "", "", "int" ],
					"parameter_enable" : 0,
					"patching_rect" : [ 592.316664218902588, 143.266667962074337, 26.007352941176578, 27.0 ],
					"presentation" : 1,
					"presentation_rect" : [ 17.682456056277147, 708.430068545817221, 26.007352941176578, 27.0 ],
					"rounded" : 60.0,
					"text" : "6",
					"textcolor" : [ 0.34902, 0.34902, 0.34902, 1.0 ]
				}

			}
, 			{
				"box" : 				{
					"background" : 1,
					"bgcolor" : [ 1.0, 0.788235, 0.470588, 1.0 ],
					"fontname" : "Arial Bold",
					"fontsize" : 20.0,
					"hint" : "",
					"id" : "obj-176",
					"ignoreclick" : 1,
					"legacytextcolor" : 1,
					"maxclass" : "textbutton",
					"numinlets" : 1,
					"numoutlets" : 3,
					"outlettype" : [ "", "", "int" ],
					"parameter_enable" : 0,
					"patching_rect" : [ 1463.0, 367.233324152809132, 26.007352941176578, 27.0 ],
					"presentation" : 1,
					"presentation_rect" : [ 541.023765156688, 567.631866872310638, 26.007352941176578, 27.0 ],
					"rounded" : 60.0,
					"text" : "5",
					"textcolor" : [ 0.34902, 0.34902, 0.34902, 1.0 ]
				}

			}
, 			{
				"box" : 				{
					"background" : 1,
					"bgcolor" : [ 1.0, 0.788235, 0.470588, 1.0 ],
					"fontname" : "Arial Bold",
					"fontsize" : 20.0,
					"hint" : "",
					"id" : "obj-148",
					"ignoreclick" : 1,
					"legacytextcolor" : 1,
					"maxclass" : "textbutton",
					"numinlets" : 1,
					"numoutlets" : 3,
					"outlettype" : [ "", "", "int" ],
					"parameter_enable" : 0,
					"patching_rect" : [ 900.30931127772601, 386.76666796207428, 26.007352941176578, 27.0 ],
					"presentation" : 1,
					"presentation_rect" : [ 22.030282060305467, 582.936214864253998, 26.007352941176578, 27.0 ],
					"rounded" : 60.0,
					"text" : "4",
					"textcolor" : [ 0.34902, 0.34902, 0.34902, 1.0 ]
				}

			}
, 			{
				"box" : 				{
					"background" : 1,
					"bgcolor" : [ 1.0, 0.788235, 0.470588, 1.0 ],
					"fontname" : "Arial Bold",
					"fontsize" : 20.0,
					"hint" : "",
					"id" : "obj-88",
					"ignoreclick" : 1,
					"legacytextcolor" : 1,
					"maxclass" : "textbutton",
					"numinlets" : 1,
					"numoutlets" : 3,
					"outlettype" : [ "", "", "int" ],
					"parameter_enable" : 0,
					"patching_rect" : [ 502.816664218902588, 110.433323962074269, 26.007352941176578, 27.0 ],
					"presentation" : 1,
					"presentation_rect" : [ 17.682456056277147, 342.537780437868605, 26.007352941176578, 27.0 ],
					"rounded" : 60.0,
					"text" : "3",
					"textcolor" : [ 0.34902, 0.34902, 0.34902, 1.0 ]
				}

			}
, 			{
				"box" : 				{
					"background" : 1,
					"bgcolor" : [ 1.0, 0.788235, 0.470588, 1.0 ],
					"fontname" : "Arial Bold",
					"fontsize" : 20.0,
					"hint" : "",
					"id" : "obj-91",
					"ignoreclick" : 1,
					"legacytextcolor" : 1,
					"maxclass" : "textbutton",
					"numinlets" : 1,
					"numoutlets" : 3,
					"outlettype" : [ "", "", "int" ],
					"parameter_enable" : 0,
					"patching_rect" : [ 269.066664218902588, 1229.519337365661613, 26.007352941176464, 27.0 ],
					"presentation" : 1,
					"presentation_rect" : [ 17.682456056277147, 232.334204978467142, 26.007352941176464, 27.0 ],
					"rounded" : 60.0,
					"text" : "2",
					"textcolor" : [ 0.34902, 0.34902, 0.34902, 1.0 ]
				}

			}
, 			{
				"box" : 				{
					"background" : 1,
					"bgcolor" : [ 1.0, 0.788235, 0.470588, 1.0 ],
					"fontname" : "Arial Bold",
					"fontsize" : 20.0,
					"hint" : "",
					"id" : "obj-104",
					"ignoreclick" : 1,
					"legacytextcolor" : 1,
					"maxclass" : "textbutton",
					"numinlets" : 1,
					"numoutlets" : 3,
					"outlettype" : [ "", "", "int" ],
					"parameter_enable" : 0,
					"patching_rect" : [ 384.808161123125956, 42.419336984191972, 26.007352941176464, 27.0 ],
					"presentation" : 1,
					"presentation_rect" : [ 17.682456056277147, 15.478157389823124, 26.007352941176464, 27.0 ],
					"rounded" : 60.0,
					"text" : "1",
					"textcolor" : [ 0.34902, 0.34902, 0.34902, 1.0 ]
				}

			}
 ],
		"lines" : [ 			{
				"patchline" : 				{
					"destination" : [ "obj-31", 1 ],
					"order" : 1,
					"source" : [ "obj-1", 1 ]
				}

			}
, 			{
				"patchline" : 				{
					"destination" : [ "obj-46", 0 ],
					"order" : 0,
					"source" : [ "obj-1", 1 ]
				}

			}
, 			{
				"patchline" : 				{
					"color" : [ 0.258823529411765, 0.258823529411765, 0.258823529411765, 1.0 ],
					"destination" : [ "obj-9", 1 ],
					"source" : [ "obj-10", 0 ]
				}

			}
, 			{
				"patchline" : 				{
					"destination" : [ "obj-89", 0 ],
					"order" : 0,
					"source" : [ "obj-100", 0 ]
				}

			}
, 			{
				"patchline" : 				{
					"destination" : [ "obj-98", 0 ],
					"order" : 1,
					"source" : [ "obj-100", 0 ]
				}

			}
, 			{
				"patchline" : 				{
					"destination" : [ "obj-131", 0 ],
					"order" : 1,
					"source" : [ "obj-102", 2 ]
				}

			}
, 			{
				"patchline" : 				{
					"color" : [ 0.592156862745098, 0.47843137254902, 0.133333333333333, 1.0 ],
					"destination" : [ "obj-155", 0 ],
					"source" : [ "obj-102", 0 ]
				}

			}
, 			{
				"patchline" : 				{
					"color" : [ 0.592156862745098, 0.47843137254902, 0.133333333333333, 1.0 ],
					"destination" : [ "obj-57", 0 ],
					"order" : 1,
					"source" : [ "obj-102", 3 ]
				}

			}
, 			{
				"patchline" : 				{
					"destination" : [ "obj-59", 0 ],
					"order" : 0,
					"source" : [ "obj-102", 3 ]
				}

			}
, 			{
				"patchline" : 				{
					"color" : [ 0.537254901960784, 0.188235294117647, 0.607843137254902, 1.0 ],
					"destination" : [ "obj-86", 0 ],
					"source" : [ "obj-102", 1 ]
				}

			}
, 			{
				"patchline" : 				{
					"destination" : [ "obj-87", 0 ],
					"order" : 0,
					"source" : [ "obj-102", 2 ]
				}

			}
, 			{
				"patchline" : 				{
					"destination" : [ "obj-128", 1 ],
					"source" : [ "obj-109", 1 ]
				}

			}
, 			{
				"patchline" : 				{
					"destination" : [ "obj-128", 0 ],
					"source" : [ "obj-109", 0 ]
				}

			}
, 			{
				"patchline" : 				{
					"destination" : [ "obj-136", 0 ],
					"order" : 1,
					"source" : [ "obj-11", 1 ]
				}

			}
, 			{
				"patchline" : 				{
					"color" : [ 0.047058823529412, 0.913725490196078, 0.913725490196078, 1.0 ],
					"destination" : [ "obj-164", 0 ],
					"order" : 0,
					"source" : [ "obj-11", 1 ]
				}

			}
, 			{
				"patchline" : 				{
					"destination" : [ "obj-22", 0 ],
					"order" : 0,
					"source" : [ "obj-11", 0 ]
				}

			}
, 			{
				"patchline" : 				{
					"destination" : [ "obj-40", 0 ],
					"order" : 1,
					"source" : [ "obj-11", 0 ]
				}

			}
, 			{
				"patchline" : 				{
					"destination" : [ "obj-112", 0 ],
					"order" : 0,
					"source" : [ "obj-113", 0 ]
				}

			}
, 			{
				"patchline" : 				{
					"destination" : [ "obj-114", 0 ],
					"order" : 1,
					"source" : [ "obj-113", 0 ]
				}

			}
, 			{
				"patchline" : 				{
					"color" : [ 0.945098039215686, 0.913725490196078, 0.407843137254902, 1.0 ],
					"destination" : [ "obj-33", 0 ],
					"source" : [ "obj-114", 0 ]
				}

			}
, 			{
				"patchline" : 				{
					"destination" : [ "obj-116", 0 ],
					"order" : 0,
					"source" : [ "obj-117", 0 ]
				}

			}
, 			{
				"patchline" : 				{
					"destination" : [ "obj-118", 0 ],
					"order" : 1,
					"source" : [ "obj-117", 0 ]
				}

			}
, 			{
				"patchline" : 				{
					"color" : [ 0.501960784313725, 0.36078431372549, 0.262745098039216, 1.0 ],
					"destination" : [ "obj-13", 0 ],
					"source" : [ "obj-118", 0 ]
				}

			}
, 			{
				"patchline" : 				{
					"color" : [ 0.929411764705882, 0.584313725490196, 1.0, 1.0 ],
					"destination" : [ "obj-157", 0 ],
					"source" : [ "obj-119", 0 ]
				}

			}
, 			{
				"patchline" : 				{
					"destination" : [ "obj-134", 0 ],
					"source" : [ "obj-12", 0 ]
				}

			}
, 			{
				"patchline" : 				{
					"destination" : [ "obj-120", 0 ],
					"order" : 0,
					"source" : [ "obj-121", 0 ]
				}

			}
, 			{
				"patchline" : 				{
					"destination" : [ "obj-122", 0 ],
					"order" : 1,
					"source" : [ "obj-121", 0 ]
				}

			}
, 			{
				"patchline" : 				{
					"color" : [ 0.145098039215686, 0.074509803921569, 0.376470588235294, 1.0 ],
					"destination" : [ "obj-51", 0 ],
					"source" : [ "obj-122", 0 ]
				}

			}
, 			{
				"patchline" : 				{
					"destination" : [ "obj-124", 0 ],
					"order" : 0,
					"source" : [ "obj-125", 0 ]
				}

			}
, 			{
				"patchline" : 				{
					"destination" : [ "obj-126", 0 ],
					"order" : 1,
					"source" : [ "obj-125", 0 ]
				}

			}
, 			{
				"patchline" : 				{
					"color" : [ 0.929411764705882, 0.584313725490196, 1.0, 1.0 ],
					"destination" : [ "obj-70", 0 ],
					"source" : [ "obj-126", 0 ]
				}

			}
, 			{
				"patchline" : 				{
					"destination" : [ "obj-113", 0 ],
					"order" : 3,
					"source" : [ "obj-129", 0 ]
				}

			}
, 			{
				"patchline" : 				{
					"destination" : [ "obj-117", 0 ],
					"order" : 2,
					"source" : [ "obj-129", 0 ]
				}

			}
, 			{
				"patchline" : 				{
					"destination" : [ "obj-121", 0 ],
					"order" : 1,
					"source" : [ "obj-129", 0 ]
				}

			}
, 			{
				"patchline" : 				{
					"destination" : [ "obj-125", 0 ],
					"order" : 0,
					"source" : [ "obj-129", 0 ]
				}

			}
, 			{
				"patchline" : 				{
					"destination" : [ "obj-18", 0 ],
					"order" : 4,
					"source" : [ "obj-129", 0 ]
				}

			}
, 			{
				"patchline" : 				{
					"destination" : [ "obj-24", 0 ],
					"source" : [ "obj-13", 0 ]
				}

			}
, 			{
				"patchline" : 				{
					"destination" : [ "obj-129", 0 ],
					"source" : [ "obj-131", 0 ]
				}

			}
, 			{
				"patchline" : 				{
					"destination" : [ "obj-137", 0 ],
					"source" : [ "obj-132", 0 ]
				}

			}
, 			{
				"patchline" : 				{
					"destination" : [ "obj-135", 0 ],
					"order" : 0,
					"source" : [ "obj-133", 0 ]
				}

			}
, 			{
				"patchline" : 				{
					"destination" : [ "obj-24", 1 ],
					"order" : 1,
					"source" : [ "obj-133", 0 ]
				}

			}
, 			{
				"patchline" : 				{
					"destination" : [ "obj-250", 0 ],
					"source" : [ "obj-134", 0 ]
				}

			}
, 			{
				"patchline" : 				{
					"destination" : [ "obj-158", 0 ],
					"order" : 2,
					"source" : [ "obj-136", 1 ]
				}

			}
, 			{
				"patchline" : 				{
					"color" : [ 0.592156862745098, 0.47843137254902, 0.133333333333333, 1.0 ],
					"destination" : [ "obj-57", 0 ],
					"order" : 0,
					"source" : [ "obj-136", 1 ]
				}

			}
, 			{
				"patchline" : 				{
					"color" : [ 0.537254901960784, 0.188235294117647, 0.607843137254902, 1.0 ],
					"destination" : [ "obj-86", 0 ],
					"source" : [ "obj-136", 0 ]
				}

			}
, 			{
				"patchline" : 				{
					"color" : [ 1.0, 0.866666666666667, 0.866666666666667, 1.0 ],
					"destination" : [ "obj-90", 1 ],
					"order" : 1,
					"source" : [ "obj-136", 1 ]
				}

			}
, 			{
				"patchline" : 				{
					"destination" : [ "obj-250", 0 ],
					"source" : [ "obj-137", 0 ]
				}

			}
, 			{
				"patchline" : 				{
					"destination" : [ "obj-223", 0 ],
					"source" : [ "obj-138", 0 ]
				}

			}
, 			{
				"patchline" : 				{
					"destination" : [ "obj-223", 1 ],
					"source" : [ "obj-140", 1 ]
				}

			}
, 			{
				"patchline" : 				{
					"destination" : [ "obj-223", 0 ],
					"source" : [ "obj-140", 0 ]
				}

			}
, 			{
				"patchline" : 				{
					"destination" : [ "obj-173", 0 ],
					"source" : [ "obj-142", 0 ]
				}

			}
, 			{
				"patchline" : 				{
					"destination" : [ "obj-250", 0 ],
					"source" : [ "obj-146", 0 ]
				}

			}
, 			{
				"patchline" : 				{
					"color" : [ 1.0, 0.866666666666667, 0.866666666666667, 1.0 ],
					"destination" : [ "obj-90", 1 ],
					"source" : [ "obj-154", 0 ]
				}

			}
, 			{
				"patchline" : 				{
					"color" : [ 1.0, 0.866666666666667, 0.866666666666667, 1.0 ],
					"destination" : [ "obj-90", 1 ],
					"source" : [ "obj-155", 0 ]
				}

			}
, 			{
				"patchline" : 				{
					"destination" : [ "obj-109", 0 ],
					"source" : [ "obj-156", 0 ]
				}

			}
, 			{
				"patchline" : 				{
					"destination" : [ "obj-15", 0 ],
					"order" : 2,
					"source" : [ "obj-156", 7 ]
				}

			}
, 			{
				"patchline" : 				{
					"destination" : [ "obj-153", 1 ],
					"order" : 0,
					"source" : [ "obj-156", 7 ]
				}

			}
, 			{
				"patchline" : 				{
					"destination" : [ "obj-250", 0 ],
					"order" : 1,
					"source" : [ "obj-156", 7 ]
				}

			}
, 			{
				"patchline" : 				{
					"destination" : [ "obj-156", 0 ],
					"source" : [ "obj-157", 0 ]
				}

			}
, 			{
				"patchline" : 				{
					"color" : [ 1.0, 0.866666666666667, 0.866666666666667, 1.0 ],
					"destination" : [ "obj-90", 1 ],
					"source" : [ "obj-158", 0 ]
				}

			}
, 			{
				"patchline" : 				{
					"destination" : [ "obj-173", 0 ],
					"source" : [ "obj-160", 0 ]
				}

			}
, 			{
				"patchline" : 				{
					"color" : [ 0.592156862745098, 0.47843137254902, 0.133333333333333, 1.0 ],
					"destination" : [ "obj-57", 0 ],
					"order" : 0,
					"source" : [ "obj-161", 0 ]
				}

			}
, 			{
				"patchline" : 				{
					"destination" : [ "obj-92", 0 ],
					"order" : 1,
					"source" : [ "obj-161", 0 ]
				}

			}
, 			{
				"patchline" : 				{
					"color" : [ 0.047058823529412, 0.913725490196078, 0.913725490196078, 1.0 ],
					"destination" : [ "obj-161", 0 ],
					"order" : 0,
					"source" : [ "obj-163", 0 ]
				}

			}
, 			{
				"patchline" : 				{
					"color" : [ 0.047058823529412, 0.913725490196078, 0.913725490196078, 1.0 ],
					"destination" : [ "obj-73", 0 ],
					"order" : 1,
					"source" : [ "obj-163", 0 ]
				}

			}
, 			{
				"patchline" : 				{
					"color" : [ 0.047058823529412, 0.913725490196078, 0.913725490196078, 1.0 ],
					"destination" : [ "obj-161", 0 ],
					"order" : 0,
					"source" : [ "obj-164", 0 ]
				}

			}
, 			{
				"patchline" : 				{
					"color" : [ 0.047058823529412, 0.913725490196078, 0.913725490196078, 1.0 ],
					"destination" : [ "obj-73", 0 ],
					"order" : 1,
					"source" : [ "obj-164", 0 ]
				}

			}
, 			{
				"patchline" : 				{
					"color" : [ 0.56078431372549, 0.513725490196078, 0.513725490196078, 1.0 ],
					"destination" : [ "obj-13", 0 ],
					"source" : [ "obj-17", 0 ]
				}

			}
, 			{
				"patchline" : 				{
					"destination" : [ "obj-79", 0 ],
					"source" : [ "obj-173", 0 ]
				}

			}
, 			{
				"patchline" : 				{
					"destination" : [ "obj-10", 0 ],
					"order" : 1,
					"source" : [ "obj-18", 0 ]
				}

			}
, 			{
				"patchline" : 				{
					"destination" : [ "obj-32", 0 ],
					"order" : 0,
					"source" : [ "obj-18", 0 ]
				}

			}
, 			{
				"patchline" : 				{
					"destination" : [ "obj-17", 0 ],
					"order" : 0,
					"source" : [ "obj-19", 0 ]
				}

			}
, 			{
				"patchline" : 				{
					"destination" : [ "obj-26", 0 ],
					"order" : 1,
					"source" : [ "obj-19", 0 ]
				}

			}
, 			{
				"patchline" : 				{
					"destination" : [ "obj-186", 0 ],
					"source" : [ "obj-195", 1 ]
				}

			}
, 			{
				"patchline" : 				{
					"destination" : [ "obj-189", 0 ],
					"source" : [ "obj-195", 0 ]
				}

			}
, 			{
				"patchline" : 				{
					"destination" : [ "obj-1", 1 ],
					"midpoints" : [ 690.816664218902588, 729.76666796207428, 690.816664218902588, 729.76666796207428 ],
					"source" : [ "obj-2", 1 ]
				}

			}
, 			{
				"patchline" : 				{
					"destination" : [ "obj-1", 0 ],
					"source" : [ "obj-2", 0 ]
				}

			}
, 			{
				"patchline" : 				{
					"destination" : [ "obj-11", 0 ],
					"midpoints" : [ 122.566664218902588, 314.01666796207428, 185.566664218902588, 314.01666796207428 ],
					"source" : [ "obj-21", 0 ]
				}

			}
, 			{
				"patchline" : 				{
					"destination" : [ "obj-23", 0 ],
					"order" : 1,
					"source" : [ "obj-22", 0 ]
				}

			}
, 			{
				"patchline" : 				{
					"destination" : [ "obj-56", 0 ],
					"order" : 0,
					"source" : [ "obj-22", 0 ]
				}

			}
, 			{
				"patchline" : 				{
					"destination" : [ "obj-179", 1 ],
					"order" : 1,
					"source" : [ "obj-224", 1 ]
				}

			}
, 			{
				"patchline" : 				{
					"destination" : [ "obj-250", 0 ],
					"order" : 0,
					"source" : [ "obj-224", 1 ]
				}

			}
, 			{
				"patchline" : 				{
					"destination" : [ "obj-58", 0 ],
					"source" : [ "obj-224", 0 ]
				}

			}
, 			{
				"patchline" : 				{
					"destination" : [ "obj-15", 0 ],
					"order" : 1,
					"source" : [ "obj-225", 0 ]
				}

			}
, 			{
				"patchline" : 				{
					"destination" : [ "obj-224", 0 ],
					"midpoints" : [ 170.566664218902588, 1117.066667139530182, 170.566664218902588, 1117.066667139530182 ],
					"order" : 0,
					"source" : [ "obj-225", 0 ]
				}

			}
, 			{
				"patchline" : 				{
					"destination" : [ "obj-17", 1 ],
					"order" : 1,
					"source" : [ "obj-23", 1 ]
				}

			}
, 			{
				"patchline" : 				{
					"destination" : [ "obj-19", 0 ],
					"order" : 0,
					"source" : [ "obj-23", 1 ]
				}

			}
, 			{
				"patchline" : 				{
					"destination" : [ "obj-26", 1 ],
					"source" : [ "obj-23", 0 ]
				}

			}
, 			{
				"patchline" : 				{
					"destination" : [ "obj-106", 0 ],
					"order" : 0,
					"source" : [ "obj-24", 0 ]
				}

			}
, 			{
				"patchline" : 				{
					"destination" : [ "obj-16", 0 ],
					"order" : 1,
					"source" : [ "obj-24", 0 ]
				}

			}
, 			{
				"patchline" : 				{
					"destination" : [ "obj-35", 1 ],
					"order" : 2,
					"source" : [ "obj-24", 0 ]
				}

			}
, 			{
				"patchline" : 				{
					"destination" : [ "obj-140", 1 ],
					"source" : [ "obj-250", 1 ]
				}

			}
, 			{
				"patchline" : 				{
					"destination" : [ "obj-140", 0 ],
					"source" : [ "obj-250", 0 ]
				}

			}
, 			{
				"patchline" : 				{
					"destination" : [ "obj-195", 0 ],
					"source" : [ "obj-250", 3 ]
				}

			}
, 			{
				"patchline" : 				{
					"color" : [ 0.56078431372549, 0.513725490196078, 0.513725490196078, 1.0 ],
					"destination" : [ "obj-27", 0 ],
					"order" : 0,
					"source" : [ "obj-26", 0 ]
				}

			}
, 			{
				"patchline" : 				{
					"color" : [ 0.56078431372549, 0.513725490196078, 0.513725490196078, 1.0 ],
					"destination" : [ "obj-33", 0 ],
					"order" : 2,
					"source" : [ "obj-26", 0 ]
				}

			}
, 			{
				"patchline" : 				{
					"color" : [ 0.56078431372549, 0.513725490196078, 0.513725490196078, 1.0 ],
					"destination" : [ "obj-9", 0 ],
					"order" : 1,
					"source" : [ "obj-26", 0 ]
				}

			}
, 			{
				"patchline" : 				{
					"destination" : [ "obj-29", 0 ],
					"source" : [ "obj-27", 0 ]
				}

			}
, 			{
				"patchline" : 				{
					"destination" : [ "obj-3", 1 ],
					"source" : [ "obj-27", 2 ]
				}

			}
, 			{
				"patchline" : 				{
					"destination" : [ "obj-3", 0 ],
					"midpoints" : [ 639.316664218902588, 599.76666796207428, 581.316664218902588, 599.76666796207428, 581.316664218902588, 665.76666796207428, 643.816664218902588, 665.76666796207428 ],
					"source" : [ "obj-27", 1 ]
				}

			}
, 			{
				"patchline" : 				{
					"destination" : [ "obj-3", 0 ],
					"source" : [ "obj-29", 0 ]
				}

			}
, 			{
				"patchline" : 				{
					"destination" : [ "obj-2", 0 ],
					"source" : [ "obj-3", 0 ]
				}

			}
, 			{
				"patchline" : 				{
					"destination" : [ "obj-48", 0 ],
					"source" : [ "obj-31", 0 ]
				}

			}
, 			{
				"patchline" : 				{
					"destination" : [ "obj-35", 0 ],
					"source" : [ "obj-33", 0 ]
				}

			}
, 			{
				"patchline" : 				{
					"destination" : [ "obj-128", 1 ],
					"order" : 0,
					"source" : [ "obj-35", 1 ]
				}

			}
, 			{
				"patchline" : 				{
					"destination" : [ "obj-128", 0 ],
					"order" : 0,
					"source" : [ "obj-35", 0 ]
				}

			}
, 			{
				"patchline" : 				{
					"destination" : [ "obj-165", 1 ],
					"order" : 2,
					"source" : [ "obj-35", 0 ]
				}

			}
, 			{
				"patchline" : 				{
					"destination" : [ "obj-225", 1 ],
					"order" : 1,
					"source" : [ "obj-35", 1 ]
				}

			}
, 			{
				"patchline" : 				{
					"destination" : [ "obj-225", 0 ],
					"order" : 1,
					"source" : [ "obj-35", 0 ]
				}

			}
, 			{
				"patchline" : 				{
					"destination" : [ "obj-6", 2 ],
					"source" : [ "obj-37", 0 ]
				}

			}
, 			{
				"patchline" : 				{
					"color" : [ 0.552941176470588, 0.803921568627451, 0.12156862745098, 1.0 ],
					"destination" : [ "obj-13", 0 ],
					"order" : 2,
					"source" : [ "obj-41", 0 ]
				}

			}
, 			{
				"patchline" : 				{
					"color" : [ 0.552941176470588, 0.803921568627451, 0.12156862745098, 1.0 ],
					"destination" : [ "obj-51", 0 ],
					"order" : 1,
					"source" : [ "obj-41", 0 ]
				}

			}
, 			{
				"patchline" : 				{
					"color" : [ 0.552941176470588, 0.803921568627451, 0.12156862745098, 1.0 ],
					"destination" : [ "obj-70", 0 ],
					"order" : 0,
					"source" : [ "obj-41", 0 ]
				}

			}
, 			{
				"patchline" : 				{
					"color" : [ 0.552941176470588, 0.803921568627451, 0.12156862745098, 1.0 ],
					"destination" : [ "obj-9", 1 ],
					"order" : 3,
					"source" : [ "obj-41", 0 ]
				}

			}
, 			{
				"patchline" : 				{
					"destination" : [ "obj-41", 0 ],
					"source" : [ "obj-43", 0 ]
				}

			}
, 			{
				"patchline" : 				{
					"destination" : [ "obj-173", 0 ],
					"source" : [ "obj-45", 0 ]
				}

			}
, 			{
				"patchline" : 				{
					"destination" : [ "obj-31", 0 ],
					"source" : [ "obj-46", 0 ]
				}

			}
, 			{
				"patchline" : 				{
					"destination" : [ "obj-51", 0 ],
					"source" : [ "obj-48", 0 ]
				}

			}
, 			{
				"patchline" : 				{
					"destination" : [ "obj-58", 0 ],
					"source" : [ "obj-50", 0 ]
				}

			}
, 			{
				"patchline" : 				{
					"destination" : [ "obj-61", 0 ],
					"source" : [ "obj-51", 0 ]
				}

			}
, 			{
				"patchline" : 				{
					"destination" : [ "obj-119", 0 ],
					"source" : [ "obj-52", 0 ]
				}

			}
, 			{
				"patchline" : 				{
					"destination" : [ "obj-108", 0 ],
					"order" : 0,
					"source" : [ "obj-53", 0 ]
				}

			}
, 			{
				"patchline" : 				{
					"destination" : [ "obj-20", 0 ],
					"order" : 1,
					"source" : [ "obj-53", 0 ]
				}

			}
, 			{
				"patchline" : 				{
					"color" : [ 0.925490196078431, 0.176470588235294, 1.0, 1.0 ],
					"destination" : [ "obj-41", 1 ],
					"order" : 2,
					"source" : [ "obj-53", 0 ]
				}

			}
, 			{
				"patchline" : 				{
					"destination" : [ "obj-58", 0 ],
					"source" : [ "obj-54", 0 ]
				}

			}
, 			{
				"patchline" : 				{
					"destination" : [ "obj-64", 0 ],
					"source" : [ "obj-55", 0 ]
				}

			}
, 			{
				"patchline" : 				{
					"destination" : [ "obj-55", 0 ],
					"source" : [ "obj-56", 0 ]
				}

			}
, 			{
				"patchline" : 				{
					"destination" : [ "obj-71", 0 ],
					"source" : [ "obj-60", 0 ]
				}

			}
, 			{
				"patchline" : 				{
					"destination" : [ "obj-53", 0 ],
					"source" : [ "obj-61", 0 ]
				}

			}
, 			{
				"patchline" : 				{
					"destination" : [ "obj-63", 0 ],
					"source" : [ "obj-62", 0 ]
				}

			}
, 			{
				"patchline" : 				{
					"destination" : [ "obj-65", 0 ],
					"source" : [ "obj-63", 0 ]
				}

			}
, 			{
				"patchline" : 				{
					"destination" : [ "obj-62", 0 ],
					"source" : [ "obj-64", 0 ]
				}

			}
, 			{
				"patchline" : 				{
					"destination" : [ "obj-63", 0 ],
					"source" : [ "obj-64", 1 ]
				}

			}
, 			{
				"patchline" : 				{
					"destination" : [ "obj-67", 0 ],
					"source" : [ "obj-65", 0 ]
				}

			}
, 			{
				"patchline" : 				{
					"destination" : [ "obj-58", 0 ],
					"source" : [ "obj-66", 0 ]
				}

			}
, 			{
				"patchline" : 				{
					"destination" : [ "obj-68", 0 ],
					"source" : [ "obj-67", 0 ]
				}

			}
, 			{
				"patchline" : 				{
					"destination" : [ "obj-70", 0 ],
					"source" : [ "obj-68", 0 ]
				}

			}
, 			{
				"patchline" : 				{
					"color" : [ 0.929411764705882, 0.584313725490196, 1.0, 1.0 ],
					"destination" : [ "obj-157", 0 ],
					"source" : [ "obj-69", 0 ]
				}

			}
, 			{
				"patchline" : 				{
					"destination" : [ "obj-133", 0 ],
					"source" : [ "obj-7", 0 ]
				}

			}
, 			{
				"patchline" : 				{
					"destination" : [ "obj-144", 1 ],
					"order" : 1,
					"source" : [ "obj-70", 0 ]
				}

			}
, 			{
				"patchline" : 				{
					"destination" : [ "obj-60", 0 ],
					"order" : 0,
					"source" : [ "obj-70", 0 ]
				}

			}
, 			{
				"patchline" : 				{
					"destination" : [ "obj-110", 0 ],
					"order" : 0,
					"source" : [ "obj-71", 0 ]
				}

			}
, 			{
				"patchline" : 				{
					"destination" : [ "obj-30", 0 ],
					"order" : 1,
					"source" : [ "obj-71", 0 ]
				}

			}
, 			{
				"patchline" : 				{
					"destination" : [ "obj-35", 2 ],
					"order" : 2,
					"source" : [ "obj-71", 0 ]
				}

			}
, 			{
				"patchline" : 				{
					"destination" : [ "obj-173", 0 ],
					"source" : [ "obj-72", 0 ]
				}

			}
, 			{
				"patchline" : 				{
					"destination" : [ "obj-161", 1 ],
					"source" : [ "obj-77", 0 ]
				}

			}
, 			{
				"patchline" : 				{
					"color" : [ 0.756862745098039, 0.141176470588235, 0.141176470588235, 1.0 ],
					"destination" : [ "obj-13", 0 ],
					"order" : 2,
					"source" : [ "obj-78", 0 ]
				}

			}
, 			{
				"patchline" : 				{
					"color" : [ 0.756862745098039, 0.141176470588235, 0.141176470588235, 1.0 ],
					"destination" : [ "obj-33", 0 ],
					"order" : 4,
					"source" : [ "obj-78", 0 ]
				}

			}
, 			{
				"patchline" : 				{
					"color" : [ 0.756862745098039, 0.141176470588235, 0.141176470588235, 1.0 ],
					"destination" : [ "obj-51", 0 ],
					"order" : 1,
					"source" : [ "obj-78", 0 ]
				}

			}
, 			{
				"patchline" : 				{
					"color" : [ 0.756862745098039, 0.141176470588235, 0.141176470588235, 1.0 ],
					"destination" : [ "obj-70", 0 ],
					"order" : 0,
					"source" : [ "obj-78", 0 ]
				}

			}
, 			{
				"patchline" : 				{
					"color" : [ 0.756862745098039, 0.141176470588235, 0.141176470588235, 1.0 ],
					"destination" : [ "obj-9", 1 ],
					"order" : 3,
					"source" : [ "obj-78", 0 ]
				}

			}
, 			{
				"patchline" : 				{
					"destination" : [ "obj-11", 0 ],
					"order" : 1,
					"source" : [ "obj-79", 1 ]
				}

			}
, 			{
				"patchline" : 				{
					"destination" : [ "obj-157", 0 ],
					"order" : 0,
					"source" : [ "obj-79", 1 ]
				}

			}
, 			{
				"patchline" : 				{
					"color" : [ 0.047058823529412, 0.913725490196078, 0.913725490196078, 1.0 ],
					"destination" : [ "obj-163", 0 ],
					"order" : 2,
					"source" : [ "obj-79", 3 ]
				}

			}
, 			{
				"patchline" : 				{
					"destination" : [ "obj-21", 0 ],
					"source" : [ "obj-79", 0 ]
				}

			}
, 			{
				"patchline" : 				{
					"color" : [ 0.592156862745098, 0.47843137254902, 0.133333333333333, 1.0 ],
					"destination" : [ "obj-57", 0 ],
					"order" : 0,
					"source" : [ "obj-79", 3 ]
				}

			}
, 			{
				"patchline" : 				{
					"color" : [ 0.537254901960784, 0.188235294117647, 0.607843137254902, 1.0 ],
					"destination" : [ "obj-86", 0 ],
					"source" : [ "obj-79", 2 ]
				}

			}
, 			{
				"patchline" : 				{
					"color" : [ 1.0, 0.866666666666667, 0.866666666666667, 1.0 ],
					"destination" : [ "obj-90", 1 ],
					"order" : 1,
					"source" : [ "obj-79", 3 ]
				}

			}
, 			{
				"patchline" : 				{
					"destination" : [ "obj-102", 0 ],
					"source" : [ "obj-8", 0 ]
				}

			}
, 			{
				"patchline" : 				{
					"destination" : [ "obj-79", 0 ],
					"source" : [ "obj-83", 0 ]
				}

			}
, 			{
				"patchline" : 				{
					"destination" : [ "obj-100", 0 ],
					"order" : 1,
					"source" : [ "obj-87", 0 ]
				}

			}
, 			{
				"patchline" : 				{
					"destination" : [ "obj-96", 0 ],
					"order" : 0,
					"source" : [ "obj-87", 0 ]
				}

			}
, 			{
				"patchline" : 				{
					"destination" : [ "obj-33", 0 ],
					"source" : [ "obj-9", 0 ]
				}

			}
, 			{
				"patchline" : 				{
					"color" : [ 0.592156862745098, 0.47843137254902, 0.133333333333333, 1.0 ],
					"destination" : [ "obj-154", 0 ],
					"source" : [ "obj-92", 0 ]
				}

			}
, 			{
				"patchline" : 				{
					"destination" : [ "obj-59", 0 ],
					"source" : [ "obj-92", 1 ]
				}

			}
, 			{
				"patchline" : 				{
					"color" : [ 0.047058823529412, 0.913725490196078, 0.913725490196078, 1.0 ],
					"destination" : [ "obj-60", 1 ],
					"order" : 1,
					"source" : [ "obj-95", 0 ]
				}

			}
, 			{
				"patchline" : 				{
					"destination" : [ "obj-94", 0 ],
					"order" : 0,
					"source" : [ "obj-95", 0 ]
				}

			}
, 			{
				"patchline" : 				{
					"destination" : [ "obj-93", 0 ],
					"order" : 0,
					"source" : [ "obj-96", 0 ]
				}

			}
, 			{
				"patchline" : 				{
					"destination" : [ "obj-95", 0 ],
					"order" : 1,
					"source" : [ "obj-96", 0 ]
				}

			}
, 			{
				"patchline" : 				{
					"color" : [ 0.047058823529412, 0.913725490196078, 0.913725490196078, 1.0 ],
					"destination" : [ "obj-61", 1 ],
					"order" : 1,
					"source" : [ "obj-98", 0 ]
				}

			}
, 			{
				"patchline" : 				{
					"destination" : [ "obj-97", 0 ],
					"order" : 0,
					"source" : [ "obj-98", 0 ]
				}

			}
 ],
		"originid" : "pat-25",
		"parameters" : 		{
			"obj-140" : [ "live.gain~[2]", "live.gain~[1]", 0 ],
			"obj-250" : [ "vst~[3]", "vst~[1]", 0 ],
			"parameterbanks" : 			{
				"0" : 				{
					"index" : 0,
					"name" : "",
					"parameters" : [ "-", "-", "-", "-", "-", "-", "-", "-" ]
				}

			}
,
			"inherited_shortname" : 1
		}
,
		"dependency_cache" : [ 			{
				"name" : "Midi_Length.maxpat",
				"bootpath" : "D:/PROYECTOS/Max-Msp/Propios/MaxMsp-Patches/MIDI/Markov Chains",
				"patcherrelativepath" : ".",
				"type" : "JSON",
				"implicit" : 1
			}
, 			{
				"name" : "Pianoteq 6.maxsnap",
				"bootpath" : "~/Documents/Max 9/Snapshots",
				"type" : "mx@s",
				"implicit" : 1
			}
, 			{
				"name" : "ml.markov.mxe64",
				"type" : "mx64"
			}
 ],
		"autosave" : 0,
		"boxgroups" : [ 			{
				"boxes" : [ "obj-125", "obj-124" ]
			}
, 			{
				"boxes" : [ "obj-121", "obj-120" ]
			}
, 			{
				"boxes" : [ "obj-117", "obj-116" ]
			}
, 			{
				"boxes" : [ "obj-113", "obj-112" ]
			}
, 			{
				"boxes" : [ "obj-18", "obj-32" ]
			}
 ]
	}

}
